ply
format ascii 1.0
comment Created by Blender 2.79 (sub 0) - www.blender.org, source file: 'untitled2.blend'
element vertex 342
property float x
property float y
property float z
property float nx
property float ny
property float nz
element face 132
property list uchar uint vertex_indices
end_header
-0.000000 1.093750 -1.000000 0.382683 0.000000 -0.923880
-0.000000 1.750000 -1.000000 0.382683 0.000000 -0.923880
0.707107 1.750000 -0.707107 0.382683 0.000000 -0.923880
0.707107 1.093750 -0.707107 0.382683 0.000000 -0.923880
0.707107 1.093750 -0.707107 0.923880 -0.000000 -0.382683
0.707107 1.750000 -0.707107 0.923880 -0.000000 -0.382683
1.000000 1.750000 0.000000 0.923880 -0.000000 -0.382683
1.000000 1.093750 0.000000 0.923880 -0.000000 -0.382683
1.000000 1.093750 0.000000 0.923880 0.000000 0.382683
1.000000 1.750000 0.000000 0.923880 0.000000 0.382683
0.707107 1.750000 0.707107 0.923880 0.000000 0.382683
0.707107 1.093750 0.707107 0.923880 0.000000 0.382683
0.707107 1.093750 0.707107 0.382683 0.000000 0.923880
0.707107 1.750000 0.707107 0.382683 0.000000 0.923880
-0.000000 1.750000 1.000000 0.382683 0.000000 0.923880
-0.000000 1.093750 1.000000 0.382683 0.000000 0.923880
-0.000000 1.093750 1.000000 -0.382684 0.000000 0.923880
-0.000000 1.750000 1.000000 -0.382684 0.000000 0.923880
-0.707107 1.750000 0.707107 -0.382684 0.000000 0.923880
-0.707107 1.093750 0.707107 -0.382684 0.000000 0.923880
-0.707107 1.093750 0.707107 -0.923880 0.000000 0.382683
-0.707107 1.750000 0.707107 -0.923880 0.000000 0.382683
-1.000000 1.750000 0.000000 -0.923880 0.000000 0.382683
-1.000000 1.093750 0.000000 -0.923880 0.000000 0.382683
0.707107 1.968750 0.707107 0.923880 0.000000 0.382683
1.000000 1.968750 0.000000 0.923880 0.000000 0.382683
1.000000 2.625000 0.000000 0.923880 0.000000 0.382683
0.707107 2.625000 0.707107 0.923880 0.000000 0.382683
-1.000000 1.093750 0.000000 -0.923880 -0.000000 -0.382683
-1.000000 1.750000 0.000000 -0.923880 -0.000000 -0.382683
-0.707107 1.750000 -0.707107 -0.923880 -0.000000 -0.382683
-0.707107 1.093750 -0.707107 -0.923880 -0.000000 -0.382683
-0.707107 1.093750 -0.707107 -0.382683 0.000000 -0.923880
-0.707107 1.750000 -0.707107 -0.382683 0.000000 -0.923880
-0.000000 1.750000 -1.000000 -0.382683 0.000000 -0.923880
-0.000000 1.093750 -1.000000 -0.382683 0.000000 -0.923880
-1.000000 0.875000 0.000000 -0.923880 -0.000000 -0.382683
-0.707107 0.875000 -0.707107 -0.923880 -0.000000 -0.382683
-0.707107 -0.000000 -0.707107 -0.923880 -0.000000 -0.382683
-1.000000 0.000000 0.000000 -0.923880 -0.000000 -0.382683
-0.707107 2.843750 -0.707107 -0.923880 -0.000000 -0.382683
-1.000000 2.843750 -0.000000 -0.923880 -0.000000 -0.382683
-1.000000 3.500000 -0.000000 -0.923880 -0.000000 -0.382683
-0.707107 3.500000 -0.707107 -0.923880 -0.000000 -0.382683
-1.000000 1.968750 0.000000 -0.923880 0.000000 0.382683
-0.707107 1.968750 0.707107 -0.923880 0.000000 0.382683
-0.707107 2.625000 0.707107 -0.923880 0.000000 0.382683
-1.000000 2.625000 -0.000000 -0.923880 0.000000 0.382683
-0.000000 1.968750 1.000000 0.382683 0.000000 0.923880
0.707107 1.968750 0.707107 0.382683 0.000000 0.923880
0.707107 2.625000 0.707107 0.382683 0.000000 0.923880
-0.000000 2.625000 1.000000 0.382683 0.000000 0.923880
-0.707107 1.968750 -0.707107 -0.923880 0.000000 -0.382683
-1.000000 1.968750 0.000000 -0.923880 0.000000 -0.382683
-1.000000 2.625000 -0.000000 -0.923880 0.000000 -0.382683
-0.707107 2.625000 -0.707107 -0.923880 0.000000 -0.382683
1.000000 1.968750 0.000000 0.923880 -0.000000 -0.382683
0.707107 1.968750 -0.707107 0.923880 -0.000000 -0.382683
0.707107 2.625000 -0.707107 0.923880 -0.000000 -0.382683
1.000000 2.625000 0.000000 0.923880 -0.000000 -0.382683
-0.707107 1.968750 0.707107 -0.382684 0.000000 0.923880
-0.000000 1.968750 1.000000 -0.382684 0.000000 0.923880
-0.000000 2.625000 1.000000 -0.382684 0.000000 0.923880
-0.707107 2.625000 0.707107 -0.382684 0.000000 0.923880
0.000000 1.968750 -1.000000 -0.382683 -0.000000 -0.923880
-0.707107 1.968750 -0.707107 -0.382683 -0.000000 -0.923880
-0.707107 2.625000 -0.707107 -0.382683 -0.000000 -0.923880
0.000000 2.625000 -1.000000 -0.382683 -0.000000 -0.923880
0.707107 1.968750 -0.707107 0.382683 -0.000000 -0.923880
0.000000 1.968750 -1.000000 0.382683 -0.000000 -0.923880
0.000000 2.625000 -1.000000 0.382683 -0.000000 -0.923880
0.707107 2.625000 -0.707107 0.382683 -0.000000 -0.923880
1.000000 3.718750 -0.000000 0.923880 -0.000000 -0.382683
0.707107 3.718750 -0.707107 0.923880 -0.000000 -0.382683
0.707107 4.375000 -0.707107 0.923880 -0.000000 -0.382683
1.000000 4.375000 -0.000000 0.923880 -0.000000 -0.382683
-0.707107 2.843750 0.707107 -0.382684 0.000000 0.923880
-0.000000 2.843750 1.000000 -0.382684 0.000000 0.923880
-0.000000 3.500000 1.000000 -0.382684 0.000000 0.923880
-0.707107 3.500000 0.707107 -0.382684 0.000000 0.923880
0.707107 2.843750 0.707107 0.923880 0.000000 0.382683
1.000000 2.843750 0.000000 0.923880 0.000000 0.382683
1.000000 3.500000 -0.000000 0.923880 0.000000 0.382683
0.707107 3.500000 0.707107 0.923880 0.000000 0.382683
0.707107 2.843750 -0.707107 0.382683 -0.000000 -0.923880
0.000000 2.843750 -1.000000 0.382683 -0.000000 -0.923880
0.000000 3.500000 -1.000000 0.382683 -0.000000 -0.923880
0.707107 3.500000 -0.707107 0.382683 -0.000000 -0.923880
0.000000 2.843750 -1.000000 -0.382683 -0.000000 -0.923880
-0.707107 2.843750 -0.707107 -0.382683 -0.000000 -0.923880
-0.707107 3.500000 -0.707107 -0.382683 -0.000000 -0.923880
0.000000 3.500000 -1.000000 -0.382683 -0.000000 -0.923880
-1.000000 2.843750 -0.000000 -0.923880 0.000000 0.382683
-0.707107 2.843750 0.707107 -0.923880 0.000000 0.382683
-0.707107 3.500000 0.707107 -0.923880 0.000000 0.382683
-1.000000 3.500000 -0.000000 -0.923880 0.000000 0.382683
-0.000000 2.843750 1.000000 0.382683 0.000000 0.923880
0.707107 2.843750 0.707107 0.382683 0.000000 0.923880
0.707107 3.500000 0.707107 0.382683 0.000000 0.923880
-0.000000 3.500000 1.000000 0.382683 0.000000 0.923880
1.000000 2.843750 0.000000 0.923880 -0.000000 -0.382683
0.707107 2.843750 -0.707107 0.923880 -0.000000 -0.382683
0.707107 3.500000 -0.707107 0.923880 -0.000000 -0.382683
1.000000 3.500000 -0.000000 0.923880 -0.000000 -0.382683
0.000000 4.593750 -1.000000 -0.382684 -0.000000 -0.923880
-0.707107 4.593750 -0.707107 -0.382684 -0.000000 -0.923880
-0.707107 5.250000 -0.707107 -0.382684 -0.000000 -0.923880
-0.000000 5.250000 -1.000000 -0.382684 -0.000000 -0.923880
-0.707107 3.718750 -0.707107 -0.923880 0.000000 -0.382683
-1.000000 3.718750 -0.000000 -0.923880 0.000000 -0.382683
-1.000000 4.375000 -0.000000 -0.923880 0.000000 -0.382683
-0.707106 4.375000 -0.707107 -0.923880 0.000000 -0.382683
-0.707107 3.718750 0.707107 -0.382684 0.000000 0.923880
0.000000 3.718750 1.000000 -0.382684 0.000000 0.923880
0.000000 4.375000 1.000000 -0.382684 0.000000 0.923880
-0.707106 4.375000 0.707107 -0.382684 0.000000 0.923880
0.707107 3.718750 0.707107 0.923880 -0.000000 0.382683
1.000000 3.718750 -0.000000 0.923880 -0.000000 0.382683
1.000000 4.375000 -0.000000 0.923880 -0.000000 0.382683
0.707107 4.375000 0.707107 0.923880 -0.000000 0.382683
0.707107 3.718750 -0.707107 0.382683 -0.000000 -0.923880
0.000000 3.718750 -1.000000 0.382683 -0.000000 -0.923880
0.000000 4.375000 -1.000000 0.382683 -0.000000 -0.923880
0.707107 4.375000 -0.707107 0.382683 -0.000000 -0.923880
0.000000 3.718750 -1.000000 -0.382684 0.000000 -0.923880
-0.707107 3.718750 -0.707107 -0.382684 0.000000 -0.923880
-0.707106 4.375000 -0.707107 -0.382684 0.000000 -0.923880
0.000000 4.375000 -1.000000 -0.382684 0.000000 -0.923880
-1.000000 3.718750 -0.000000 -0.923880 0.000000 0.382683
-0.707107 3.718750 0.707107 -0.923880 0.000000 0.382683
-0.707106 4.375000 0.707107 -0.923880 0.000000 0.382683
-1.000000 4.375000 -0.000000 -0.923880 0.000000 0.382683
0.000000 3.718750 1.000000 0.382683 -0.000000 0.923880
0.707107 3.718750 0.707107 0.382683 -0.000000 0.923880
0.707107 4.375000 0.707107 0.382683 -0.000000 0.923880
0.000000 4.375000 1.000000 0.382683 -0.000000 0.923880
0.707107 5.468750 0.707107 0.923880 -0.000001 0.382683
1.000000 5.468750 -0.000000 0.923880 -0.000001 0.382683
1.000000 6.125000 -0.000000 0.923880 -0.000001 0.382683
0.707107 6.125000 0.707107 0.923880 -0.000001 0.382683
-1.000000 4.593750 -0.000000 -0.923880 -0.000001 0.382683
-0.707107 4.593750 0.707107 -0.923880 -0.000001 0.382683
-0.707107 5.250000 0.707106 -0.923880 -0.000001 0.382683
-1.000000 5.250000 -0.000000 -0.923880 -0.000001 0.382683
0.000000 4.593750 1.000000 0.382683 0.000000 0.923880
0.707107 4.593750 0.707107 0.382683 0.000000 0.923880
0.707107 5.250000 0.707107 0.382683 0.000000 0.923880
-0.000000 5.250000 1.000000 0.382683 0.000000 0.923880
1.000000 4.593750 -0.000000 0.923880 0.000001 -0.382683
0.707107 4.593750 -0.707107 0.923880 0.000001 -0.382683
0.707107 5.250000 -0.707107 0.923880 0.000001 -0.382683
1.000000 5.250000 -0.000000 0.923880 0.000001 -0.382683
-0.707107 4.593750 -0.707107 -0.923880 -0.000001 -0.382683
-1.000000 4.593750 -0.000000 -0.923880 -0.000001 -0.382683
-1.000000 5.250000 -0.000000 -0.923880 -0.000001 -0.382683
-0.707107 5.250000 -0.707107 -0.923880 -0.000001 -0.382683
-0.707107 4.593750 0.707107 -0.382684 -0.000000 0.923879
0.000000 4.593750 1.000000 -0.382684 -0.000000 0.923879
-0.000000 5.250000 1.000000 -0.382684 -0.000000 0.923879
-0.707107 5.250000 0.707106 -0.382684 -0.000000 0.923879
0.707107 4.593750 0.707107 0.923880 0.000001 0.382683
1.000000 4.593750 -0.000000 0.923880 0.000001 0.382683
1.000000 5.250000 -0.000000 0.923880 0.000001 0.382683
0.707107 5.250000 0.707107 0.923880 0.000001 0.382683
0.707107 4.593750 -0.707107 0.382683 0.000000 -0.923880
0.000000 4.593750 -1.000000 0.382683 0.000000 -0.923880
-0.000000 5.250000 -1.000000 0.382683 0.000000 -0.923880
0.707107 5.250000 -0.707107 0.382683 0.000000 -0.923880
-0.707106 6.355083 -0.707107 -0.382683 0.000000 -0.923880
-0.707106 7.045331 -0.707107 -0.382683 0.000000 -0.923880
0.000001 7.000000 -1.000000 -0.382683 0.000000 -0.923880
0.000000 6.355083 -1.000000 -0.382683 0.000000 -0.923880
0.707107 5.468750 -0.707107 0.382683 -0.000000 -0.923880
-0.000000 5.468750 -1.000000 0.382683 -0.000000 -0.923880
0.000000 6.125000 -1.000000 0.382683 -0.000000 -0.923880
0.707107 6.125000 -0.707107 0.382683 -0.000000 -0.923880
-0.000000 5.468750 -1.000000 -0.382683 0.000000 -0.923880
-0.707107 5.468750 -0.707107 -0.382683 0.000000 -0.923880
-0.707106 6.125000 -0.707107 -0.382683 0.000000 -0.923880
0.000000 6.125000 -1.000000 -0.382683 0.000000 -0.923880
-1.000000 5.468750 -0.000000 -0.923880 0.000001 0.382683
-0.707107 5.468750 0.707106 -0.923880 0.000001 0.382683
-0.707106 6.125000 0.707106 -0.923880 0.000001 0.382683
-1.000000 6.125000 -0.000000 -0.923880 0.000001 0.382683
-0.000000 5.468750 1.000000 0.382683 -0.000000 0.923880
0.707107 5.468750 0.707107 0.382683 -0.000000 0.923880
0.707107 6.125000 0.707107 0.382683 -0.000000 0.923880
0.000000 6.125000 1.000000 0.382683 -0.000000 0.923880
1.000000 5.468750 -0.000000 0.923880 -0.000001 -0.382683
0.707107 5.468750 -0.707107 0.923880 -0.000001 -0.382683
0.707107 6.125000 -0.707107 0.923880 -0.000001 -0.382683
1.000000 6.125000 -0.000000 0.923880 -0.000001 -0.382683
-0.707107 5.468750 -0.707107 -0.923880 0.000001 -0.382683
-1.000000 5.468750 -0.000000 -0.923880 0.000001 -0.382683
-1.000000 6.125000 -0.000000 -0.923880 0.000001 -0.382683
-0.707106 6.125000 -0.707107 -0.923880 0.000001 -0.382683
-0.707107 5.468750 0.707106 -0.382684 0.000000 0.923879
-0.000000 5.468750 1.000000 -0.382684 0.000000 0.923879
0.000000 6.125000 1.000000 -0.382684 0.000000 0.923879
-0.707106 6.125000 0.707106 -0.382684 0.000000 0.923879
0.000000 6.355083 1.000000 -0.382684 0.000000 0.923880
0.000001 7.875000 1.000000 -0.382684 0.000000 0.923880
-0.707106 7.531340 0.707106 -0.382684 0.000000 0.923880
-0.707106 6.355083 0.707106 -0.382684 0.000000 0.923880
-0.707106 6.355083 0.707106 -0.923880 0.000000 0.382683
-0.707106 7.531340 0.707106 -0.923880 0.000000 0.382683
-0.999999 7.239999 -0.000000 -0.923880 0.000000 0.382683
-1.000000 6.355083 -0.000000 -0.923880 0.000000 0.382683
0.000000 6.355083 1.000000 0.382683 -0.000000 0.923880
0.707107 6.355083 0.707107 0.382683 -0.000000 0.923880
0.707107 7.531340 0.707106 0.382683 -0.000000 0.923880
0.000001 7.875000 1.000000 0.382683 -0.000000 0.923880
0.707107 6.355083 -0.707107 0.923880 -0.000000 -0.382683
0.707107 7.045331 -0.707107 0.923880 -0.000000 -0.382683
1.000001 7.239999 -0.000000 0.923880 -0.000000 -0.382683
1.000000 6.355083 -0.000000 0.923880 -0.000000 -0.382683
-0.707107 -0.000000 -0.707107 -0.000000 -1.000000 0.000000
0.000000 -0.000000 -1.000000 -0.000000 -1.000000 0.000000
0.707107 -0.000000 -0.707107 -0.000000 -1.000000 0.000000
1.000000 0.000000 0.000000 -0.000000 -1.000000 0.000000
0.707107 0.000000 0.707107 -0.000000 -1.000000 0.000000
-0.000000 0.000000 1.000000 -0.000000 -1.000000 0.000000
-0.707107 0.000000 0.707107 -0.000000 -1.000000 0.000000
-1.000000 0.000000 0.000000 0.000000 -1.000000 0.000000
-1.000000 6.355083 -0.000000 -0.923880 0.000000 -0.382683
-0.999999 7.239999 -0.000000 -0.923880 0.000000 -0.382683
-0.707106 7.045331 -0.707107 -0.923880 0.000000 -0.382683
-0.707106 6.355083 -0.707107 -0.923880 0.000000 -0.382683
1.000000 0.875000 0.000000 0.923880 0.000000 0.382683
0.707107 0.875000 0.707107 0.923880 0.000000 0.382683
0.707107 0.000000 0.707107 0.923880 0.000000 0.382683
1.000000 0.000000 0.000000 0.923880 0.000000 0.382683
1.000000 6.355083 -0.000000 0.923880 -0.000000 0.382684
1.000001 7.239999 -0.000000 0.923880 -0.000000 0.382684
0.707107 7.531340 0.707106 0.923880 -0.000000 0.382684
0.707107 6.355083 0.707107 0.923880 -0.000000 0.382684
0.707107 7.045331 -0.707107 0.154206 0.934401 -0.321116
0.707107 7.531340 0.707106 0.154206 0.934401 -0.321116
1.000001 7.239999 -0.000000 0.154206 0.934401 -0.321116
0.707107 0.875000 0.707107 0.382683 0.000000 0.923880
-0.000000 0.875000 1.000000 0.382683 0.000000 0.923880
-0.000000 0.000000 1.000000 0.382683 0.000000 0.923880
0.707107 0.000000 0.707107 0.382683 0.000000 0.923880
-0.000000 0.875000 1.000000 -0.382684 0.000000 0.923879
-0.707107 0.875000 0.707107 -0.382684 0.000000 0.923879
-0.707107 0.000000 0.707107 -0.382684 0.000000 0.923879
-0.000000 0.000000 1.000000 -0.382684 0.000000 0.923879
-0.000000 0.875000 -1.000000 0.382683 -0.000000 -0.923880
0.707107 0.875000 -0.707107 0.382683 -0.000000 -0.923880
0.707107 -0.000000 -0.707107 0.382683 -0.000000 -0.923880
0.000000 -0.000000 -1.000000 0.382683 -0.000000 -0.923880
-0.707107 0.875000 0.707107 -0.923879 -0.000000 0.382683
-1.000000 0.875000 0.000000 -0.923879 -0.000000 0.382683
-1.000000 0.000000 0.000000 -0.923879 -0.000000 0.382683
-0.707107 0.000000 0.707107 -0.923879 -0.000000 0.382683
0.707107 0.875000 -0.707107 0.923880 0.000000 -0.382683
1.000000 0.875000 0.000000 0.923880 0.000000 -0.382683
1.000000 0.000000 0.000000 0.923880 0.000000 -0.382683
0.707107 -0.000000 -0.707107 0.923880 0.000000 -0.382683
-0.707107 0.875000 -0.707107 -0.382683 -0.000000 -0.923880
-0.000000 0.875000 -1.000000 -0.382683 -0.000000 -0.923880
0.000000 -0.000000 -1.000000 -0.382683 -0.000000 -0.923880
-0.707107 -0.000000 -0.707107 -0.382683 -0.000000 -0.923880
0.707107 7.531340 0.707106 0.073791 0.943135 -0.324117
0.707107 7.045331 -0.707107 0.073791 0.943135 -0.324117
0.000001 7.000000 -1.000000 0.073791 0.943135 -0.324117
0.000001 7.000000 -1.000000 -0.073791 0.943135 -0.324117
-0.707106 7.045331 -0.707107 -0.073791 0.943135 -0.324117
-0.707106 7.531340 0.707106 -0.073791 0.943135 -0.324117
-0.707106 7.531340 0.707106 -0.154206 0.934401 -0.321116
-0.707106 7.045331 -0.707107 -0.154206 0.934401 -0.321116
-0.999999 7.239999 -0.000000 -0.154206 0.934401 -0.321116
-0.707106 7.531340 0.707106 -0.268948 0.882401 -0.386051
0.000001 7.875000 1.000000 -0.268948 0.882401 -0.386051
0.000001 7.000000 -1.000000 -0.268948 0.882401 -0.386051
0.000001 7.875000 1.000000 0.268948 0.882401 -0.386051
0.707107 7.531340 0.707106 0.268948 0.882401 -0.386051
0.000001 7.000000 -1.000000 0.268948 0.882401 -0.386051
0.000000 6.355083 -1.000000 0.382683 -0.000000 -0.923880
0.000001 7.000000 -1.000000 0.382683 -0.000000 -0.923880
0.707107 7.045331 -0.707107 0.382683 -0.000000 -0.923880
0.707107 6.355083 -0.707107 0.382683 -0.000000 -0.923880
-0.707107 0.875000 0.707107 -0.923880 0.000000 0.382683
-1.000000 0.875000 0.000000 -0.923880 0.000000 0.382683
-0.000000 1.093750 1.000000 -0.382684 0.000000 0.923879
-0.707107 1.093750 0.707107 -0.382684 0.000000 0.923879
1.000000 0.875000 0.000000 0.923880 0.000000 0.382684
1.000000 1.093750 0.000000 0.923880 0.000000 0.382684
0.707107 1.093750 0.707107 0.923880 0.000000 0.382684
0.707107 0.875000 0.707107 0.923880 0.000000 0.382684
-0.707107 1.750000 0.707107 -0.382683 0.000000 0.923880
-0.000000 1.750000 1.000000 -0.382683 0.000000 0.923880
-0.000000 1.968750 1.000000 -0.382683 0.000000 0.923880
-0.707107 1.968750 0.707107 -0.382683 0.000000 0.923880
-0.707107 1.750000 -0.707107 -0.923879 0.000000 -0.382683
-1.000000 1.750000 0.000000 -0.923879 0.000000 -0.382683
-1.000000 1.968750 0.000000 -0.923879 0.000000 -0.382683
-0.707107 1.968750 -0.707107 -0.923879 0.000000 -0.382683
-0.707107 3.718750 -0.707107 -0.382683 0.000000 -0.923880
0.000000 3.718750 -1.000000 -0.382683 0.000000 -0.923880
0.707107 3.500000 0.707107 0.923880 -0.000001 0.382683
1.000000 3.500000 -0.000000 0.923880 -0.000001 0.382683
1.000000 3.718750 -0.000000 0.923880 -0.000001 0.382683
0.707107 3.718750 0.707107 0.923880 -0.000001 0.382683
0.707107 4.375000 0.707107 0.923880 0.000001 0.382683
1.000000 4.375000 -0.000000 0.923880 0.000001 0.382683
0.000000 4.593750 1.000000 -0.382684 -0.000000 0.923880
-0.707107 4.593750 0.707107 -0.382684 -0.000000 0.923880
-0.707106 4.375000 -0.707107 -0.923879 -0.000001 -0.382683
-1.000000 4.375000 -0.000000 -0.923879 -0.000001 -0.382683
-1.000000 4.593750 -0.000000 -0.923879 -0.000001 -0.382683
-0.707107 4.593750 -0.707107 -0.923879 -0.000001 -0.382683
1.000000 4.375000 -0.000000 0.923880 0.000001 -0.382683
0.707107 4.375000 -0.707107 0.923880 0.000001 -0.382683
-1.000000 4.375000 -0.000000 -0.923880 -0.000001 0.382683
-0.707106 4.375000 0.707107 -0.923880 -0.000001 0.382683
-0.707107 5.250000 0.707106 -0.382684 0.000000 0.923880
-0.000000 5.250000 1.000000 -0.382684 0.000000 0.923880
-0.000000 5.468750 1.000000 -0.382684 0.000000 0.923880
-0.707107 5.468750 0.707106 -0.382684 0.000000 0.923880
-0.707107 5.250000 -0.707107 -0.923880 0.000001 -0.382683
-1.000000 5.250000 -0.000000 -0.923880 0.000001 -0.382683
1.000000 5.250000 -0.000000 0.923880 -0.000001 -0.382683
0.707107 5.250000 -0.707107 0.923880 -0.000001 -0.382683
-1.000000 5.250000 -0.000000 -0.923880 0.000001 0.382683
-0.707107 5.250000 0.707106 -0.923880 0.000001 0.382683
-0.000000 5.250000 -1.000000 -0.382683 0.000000 -0.923880
-0.707107 5.250000 -0.707107 -0.382683 0.000000 -0.923880
0.707107 5.250000 0.707107 0.923880 -0.000001 0.382683
1.000000 5.250000 -0.000000 0.923880 -0.000001 0.382683
1.000000 6.125000 -0.000000 0.923880 -0.000000 0.382683
1.000000 6.355083 -0.000000 0.923880 -0.000000 0.382683
0.707107 6.355083 0.707107 0.923880 -0.000000 0.382683
0.707107 6.125000 0.707107 0.923880 -0.000000 0.382683
-1.000000 6.125000 -0.000000 -0.923880 0.000000 -0.382683
-0.707106 6.125000 -0.707107 -0.923880 0.000000 -0.382683
0.707107 6.125000 -0.707107 0.923880 -0.000000 -0.382683
1.000000 6.125000 -0.000000 0.923880 -0.000000 -0.382683
-0.707106 6.125000 0.707106 -0.923880 0.000000 0.382683
-1.000000 6.125000 -0.000000 -0.923880 0.000000 0.382683
0.000000 6.125000 1.000000 -0.382684 0.000000 0.923880
-0.707106 6.125000 0.707106 -0.382684 0.000000 0.923880
4 0 1 2 3
4 4 5 6 7
4 8 9 10 11
4 12 13 14 15
4 16 17 18 19
4 20 21 22 23
4 24 25 26 27
4 28 29 30 31
4 32 33 34 35
4 36 37 38 39
4 40 41 42 43
4 44 45 46 47
4 48 49 50 51
4 52 53 54 55
4 56 57 58 59
4 60 61 62 63
4 64 65 66 67
4 68 69 70 71
4 72 73 74 75
4 76 77 78 79
4 80 81 82 83
4 84 85 86 87
4 88 89 90 91
4 92 93 94 95
4 96 97 98 99
4 100 101 102 103
4 104 105 106 107
4 108 109 110 111
4 112 113 114 115
4 116 117 118 119
4 120 121 122 123
4 124 125 126 127
4 128 129 130 131
4 132 133 134 135
4 136 137 138 139
4 140 141 142 143
4 144 145 146 147
4 148 149 150 151
4 152 153 154 155
4 156 157 158 159
4 160 161 162 163
4 164 165 166 167
4 168 169 170 171
4 172 173 174 175
4 176 177 178 179
4 180 181 182 183
4 184 185 186 187
4 188 189 190 191
4 192 193 194 195
4 196 197 198 199
4 200 201 202 203
4 204 205 206 207
4 208 209 210 211
4 212 213 214 215
3 216 217 218
3 218 219 220
3 220 221 222
3 222 223 216
3 216 218 220
3 220 222 216
4 224 225 226 227
4 228 229 230 231
4 232 233 234 235
3 236 237 238
4 239 240 241 242
4 243 244 245 246
4 247 248 249 250
4 251 252 253 254
4 255 256 257 258
4 259 260 261 262
3 263 264 265
3 266 267 268
3 269 270 271
3 272 273 274
3 275 276 277
4 278 279 280 281
4 35 260 259 32
4 36 28 31 37
4 282 20 23 283
4 243 284 285 244
4 239 12 15 240
4 286 287 288 289
4 255 4 7 256
4 247 0 3 248
4 2 1 69 68
4 34 33 65 64
4 290 291 292 293
4 6 5 57 56
4 294 295 296 297
4 14 13 49 48
4 22 21 45 44
4 10 9 25 24
4 59 58 101 100
4 51 50 97 96
4 47 46 93 92
4 67 66 89 88
4 71 70 85 84
4 27 26 81 80
4 63 62 77 76
4 55 54 41 40
4 99 98 133 132
4 95 94 129 128
4 91 90 298 299
4 87 86 121 120
4 300 301 302 303
4 79 78 113 112
4 43 42 109 108
4 103 102 73 72
4 123 122 165 164
4 304 305 161 160
4 115 114 306 307
4 308 309 310 311
4 312 313 149 148
4 135 134 145 144
4 314 315 141 140
4 127 126 105 104
4 316 317 318 319
4 320 321 193 192
4 322 323 189 188
4 147 146 185 184
4 324 325 181 180
4 326 327 177 176
4 167 166 173 172
4 328 329 137 136
4 174 278 281 175
4 330 331 332 333
4 334 224 227 335
4 336 212 215 337
4 187 186 209 208
4 338 204 207 339
4 340 200 203 341
4 178 168 171 179
