ply
format ascii 1.0
comment Created by Blender 2.79 (sub 0) - www.blender.org, source file: 'untitled2.blend'
element vertex 437
property float x
property float y
property float z
property float nx
property float ny
property float nz
element face 165
property list uchar uint vertex_indices
end_header
0.098143 0.414624 0.414933 0.648998 -0.000000 0.760790
0.098143 0.025376 0.414933 0.648998 -0.000000 0.760790
0.394280 0.025376 0.162311 0.648998 -0.000000 0.760790
0.394279 0.414624 0.162311 0.648998 -0.000000 0.760790
-0.909647 -0.000000 0.345605 -0.000000 -1.000000 -0.000000
-0.968971 -0.000000 0.193339 -0.000000 -1.000000 -0.000000
-1.000000 0.000000 0.000000 -0.000000 -1.000000 -0.000000
-0.968971 0.000000 -0.193339 0.000000 -1.000000 -0.000000
-0.909647 0.000000 -0.345605 0.000000 -1.000000 -0.000000
-0.909647 0.000000 -0.345605 -0.000001 -1.000000 -0.000001
-0.827050 0.000000 -0.460798 -0.000001 -1.000000 -0.000001
-0.726205 0.000000 -0.542920 -0.000001 -1.000000 -0.000001
-0.726205 0.000000 -0.542920 -0.000000 -1.000000 -0.000000
-0.612134 0.000000 -0.595971 -0.000000 -1.000000 -0.000000
-0.489860 0.000000 -0.623952 -0.000000 -1.000000 -0.000000
-0.364406 0.000000 -0.630864 0.000000 -1.000000 -0.000000
-0.240794 0.000000 -0.620707 0.000000 -1.000000 -0.000000
-0.124049 0.000000 -0.597482 0.000000 -1.000000 -0.000000
-0.019192 0.000000 -0.565190 0.000000 -1.000000 -0.000000
-0.019192 0.000000 -0.565190 -0.000001 -1.000000 0.000002
0.068754 0.000000 -0.527832 -0.000001 -1.000000 0.000002
0.134765 0.000000 -0.489408 -0.000001 -1.000000 0.000002
0.134765 0.000000 -0.489408 -0.000000 -1.000000 -0.000000
0.206893 0.000000 -0.434201 -0.000000 -1.000000 -0.000000
0.270999 0.000000 -0.377821 -0.000000 -1.000000 -0.000000
0.134765 0.000000 -0.489408 0.000001 -1.000000 -0.000002
0.270999 0.000000 -0.377821 0.000001 -1.000000 -0.000002
0.384761 0.000000 -0.266096 0.000001 -1.000000 -0.000002
-1.000000 0.000000 0.000000 -0.000000 -1.000000 -0.000001
-0.909647 0.000000 -0.345605 -0.000000 -1.000000 -0.000001
-0.726205 0.000000 -0.542920 -0.000000 -1.000000 -0.000001
-0.827050 -0.000000 0.460798 0.000000 -1.000000 -0.000001
-0.909647 -0.000000 0.345605 0.000000 -1.000000 -0.000001
-0.612134 -0.000000 0.595971 -0.000000 -1.000000 0.000000
-0.726205 -0.000000 0.542920 -0.000000 -1.000000 0.000000
-0.827050 -0.000000 0.460798 -0.000000 -1.000000 0.000000
-0.364406 -0.000000 0.630864 -0.000000 -1.000000 -0.000000
-0.489860 -0.000000 0.623952 -0.000000 -1.000000 -0.000000
-0.124049 -0.000000 0.597482 0.000000 -1.000000 -0.000000
-0.240794 -0.000000 0.620707 0.000000 -1.000000 -0.000000
0.068754 -0.000000 0.527832 0.000000 -1.000000 -0.000000
-0.019192 -0.000000 0.565190 0.000000 -1.000000 -0.000000
0.206893 -0.000000 0.434201 -0.000002 -1.000000 -0.000003
0.134765 -0.000000 0.489408 -0.000002 -1.000000 -0.000003
0.068754 -0.000000 0.527832 -0.000002 -1.000000 -0.000003
0.329486 -0.000000 0.321406 -0.000005 -1.000000 -0.000006
0.270999 -0.000000 0.377821 -0.000005 -1.000000 -0.000006
0.206893 -0.000000 0.434201 -0.000005 -1.000000 -0.000006
0.384761 -0.000000 0.266096 0.000003 -1.000000 0.000003
0.329486 -0.000000 0.321406 0.000003 -1.000000 0.000003
0.206893 -0.000000 0.434201 0.000003 -1.000000 0.000003
0.206893 -0.000000 0.434201 0.000000 -1.000000 0.000000
-0.612134 -0.000000 0.595971 0.000000 -1.000000 -0.000001
-0.240794 0.000000 -0.620707 0.000000 -1.000000 -0.000001
0.134765 0.000000 -0.489408 0.000000 -1.000000 -0.000001
0.384761 0.000000 -0.266096 0.000000 -1.000000 -0.000001
0.384761 0.000000 -0.266096 -0.000000 -1.000000 0.000000
0.439229 0.000000 -0.213028 -0.000000 -1.000000 0.000000
0.439229 -0.000000 0.213028 0.000014 -1.000000 0.000015
0.384761 -0.000000 0.266096 0.000014 -1.000000 0.000015
0.206893 -0.000000 0.434201 0.000014 -1.000000 0.000015
0.439229 -0.000000 0.213028 -0.000000 -1.000000 -0.000001
0.206893 -0.000000 0.434201 -0.000000 -1.000000 -0.000001
0.439229 0.000000 -0.213028 -0.000000 -1.000000 -0.000001
0.495296 0.000000 -0.163342 -0.000000 -1.000000 -0.000001
0.495296 -0.000000 0.163342 -0.000000 -1.000000 -0.000001
0.555368 -0.000000 0.118176 0.000000 -1.000000 -0.000000
0.495296 -0.000000 0.163342 0.000000 -1.000000 -0.000000
0.495296 0.000000 -0.163342 0.000000 -1.000000 -0.000000
0.555368 0.000000 -0.118176 0.000000 -1.000000 -0.000000
0.555368 0.000000 -0.118176 -0.000000 -1.000000 -0.000001
0.621851 0.000000 -0.078669 -0.000000 -1.000000 -0.000001
0.621851 -0.000000 0.078669 -0.000000 -1.000000 -0.000001
0.555368 -0.000000 0.118176 -0.000000 -1.000000 -0.000001
0.697150 -0.000000 0.045959 0.000001 -1.000000 0.000003
0.621851 -0.000000 0.078669 0.000001 -1.000000 0.000003
-0.612134 -0.000000 0.595971 0.000001 -1.000000 0.000003
0.621851 0.000000 -0.078669 0.000000 -1.000000 -0.000000
0.697150 0.000000 -0.045959 0.000000 -1.000000 -0.000000
0.783670 0.000000 -0.021185 -0.000000 -1.000000 -0.000000
0.697150 -0.000000 0.045959 -0.000000 -1.000000 -0.000001
0.783670 0.000000 -0.021185 -0.000000 -1.000000 -0.000001
0.883818 0.000000 -0.010972 0.000000 -1.000000 -0.000000
1.000000 0.000000 0.000000 0.000000 -1.000000 -0.000000
0.883818 -0.000000 0.010972 0.000000 -1.000000 -0.000000
0.697150 -0.000000 0.045959 0.000000 -1.000000 -0.000000
0.783670 -0.000000 0.021185 0.000000 -1.000000 -0.000000
0.883818 0.000000 -0.010972 0.000000 -1.000000 0.000001
0.783670 -0.000000 0.021185 0.000000 -1.000000 0.000001
0.697150 -0.000000 0.045959 0.000000 -1.000000 0.000001
-0.019192 0.000000 -0.565190 0.294320 0.000000 -0.955707
-0.124049 0.000000 -0.597482 0.294320 0.000000 -0.955707
-0.124049 1.000000 -0.597481 0.294320 0.000000 -0.955707
-0.019192 1.000000 -0.565190 0.294320 0.000000 -0.955707
0.621851 -0.000000 0.078669 0.398432 -0.000000 0.917198
0.697150 -0.000000 0.045959 0.398432 -0.000000 0.917198
0.697150 1.000000 0.045960 0.398432 -0.000000 0.917198
0.621851 1.000000 0.078670 0.398432 -0.000000 0.917198
1.000000 0.000000 0.000000 0.094023 0.000000 -0.995570
0.883818 0.000000 -0.010972 0.094023 0.000000 -0.995570
0.883818 1.000000 -0.010972 0.094023 0.000000 -0.995570
1.000000 1.000000 0.000000 0.094023 0.000000 -0.995570
-0.364406 -0.000000 0.630864 0.081893 -0.000000 0.996641
-0.240794 -0.000000 0.620707 0.081893 -0.000000 0.996641
-0.240794 1.000000 0.620707 0.081893 -0.000000 0.996641
-0.364406 1.000000 0.630864 0.081893 -0.000000 0.996641
0.068754 0.000000 -0.527832 0.390975 0.000000 -0.920401
-0.019192 0.000000 -0.565190 0.390975 0.000000 -0.920401
-0.019192 1.000000 -0.565190 0.390975 0.000000 -0.920401
0.068754 1.000000 -0.527831 0.390975 0.000000 -0.920401
0.697150 -0.000000 0.045959 0.275273 -0.000000 0.961366
0.783670 -0.000000 0.021185 0.275273 -0.000000 0.961366
0.783670 1.000000 0.021186 0.275273 -0.000000 0.961366
0.697150 1.000000 0.045960 0.275273 -0.000000 0.961366
-0.240794 -0.000000 0.620707 0.195112 -0.000000 0.980781
-0.124049 -0.000000 0.597482 0.195112 -0.000000 0.980781
-0.124049 1.000000 0.597482 0.195112 -0.000000 0.980781
-0.240794 1.000000 0.620707 0.195112 -0.000000 0.980781
0.134765 0.000000 -0.489408 0.503067 0.000000 -0.864247
0.068754 0.000000 -0.527832 0.503067 0.000000 -0.864247
0.068754 1.000000 -0.527831 0.503067 0.000000 -0.864247
0.134765 1.000000 -0.489407 0.503067 0.000000 -0.864247
0.783670 -0.000000 0.021185 0.101454 -0.000000 0.994840
0.883818 -0.000000 0.010972 0.101454 -0.000000 0.994840
0.883818 1.000000 0.010973 0.101454 -0.000000 0.994840
0.783670 1.000000 0.021186 0.101454 -0.000000 0.994840
-0.124049 -0.000000 0.597482 0.294320 -0.000000 0.955707
-0.019192 -0.000000 0.565190 0.294320 -0.000000 0.955707
-0.019192 1.000000 0.565190 0.294320 -0.000000 0.955707
-0.124049 1.000000 0.597482 0.294320 -0.000000 0.955707
0.206893 0.000000 -0.434201 0.607796 0.000000 -0.794093
0.134765 0.000000 -0.489408 0.607796 0.000000 -0.794093
0.134765 1.000000 -0.489407 0.607796 0.000000 -0.794093
0.206893 1.000000 -0.434200 0.607796 0.000000 -0.794093
0.883818 -0.000000 0.010972 0.094024 -0.000000 0.995570
1.000000 0.000000 0.000000 0.094024 -0.000000 0.995570
1.000000 1.000000 0.000000 0.094024 -0.000000 0.995570
0.883818 1.000000 0.010973 0.094024 -0.000000 0.995570
-0.019192 -0.000000 0.565190 0.390975 -0.000000 0.920401
0.068754 -0.000000 0.527832 0.390975 -0.000000 0.920401
0.068754 1.000000 0.527832 0.390975 -0.000000 0.920401
-0.019192 1.000000 0.565190 0.390975 -0.000000 0.920401
0.270999 0.000000 -0.377821 0.660414 0.000000 -0.750902
0.206893 0.000000 -0.434201 0.660414 0.000000 -0.750902
0.206893 1.000000 -0.434200 0.660414 0.000000 -0.750902
0.270999 1.000000 -0.377820 0.660414 0.000000 -0.750902
-0.968971 0.000000 -0.193339 -0.987365 0.000000 -0.158464
-1.000000 0.000000 0.000000 -0.987365 0.000000 -0.158464
-1.000000 1.000000 0.000000 -0.987365 0.000000 -0.158464
-0.968971 1.000000 -0.193339 -0.987365 0.000000 -0.158464
0.068754 -0.000000 0.527832 0.503067 -0.000000 0.864248
0.134765 -0.000000 0.489408 0.503067 -0.000000 0.864248
0.134765 1.000000 0.489408 0.503067 -0.000000 0.864248
0.068754 1.000000 0.527832 0.503067 -0.000000 0.864248
-0.909647 0.000000 -0.345605 -0.931778 0.000000 -0.363029
-0.968971 0.000000 -0.193339 -0.931778 0.000000 -0.363029
-0.968971 1.000000 -0.193339 -0.931778 0.000000 -0.363029
-0.909647 1.000000 -0.345604 -0.931778 0.000000 -0.363029
0.134765 -0.000000 0.489408 0.607796 0.000000 0.794093
0.206893 -0.000000 0.434201 0.607796 0.000000 0.794093
0.206893 0.025376 0.434201 0.607796 0.000000 0.794093
0.134765 -0.000000 0.489408 0.607795 0.000002 0.794094
0.206893 0.025376 0.434201 0.607795 0.000002 0.794094
0.151045 0.025376 0.476947 0.607795 0.000002 0.794094
0.206893 0.414624 0.434201 0.607796 -0.000000 0.794093
0.206893 1.000000 0.434201 0.607796 -0.000000 0.794093
0.134765 1.000000 0.489408 0.607796 -0.000000 0.794093
0.134765 -0.000000 0.489408 0.607798 -0.000001 0.794092
0.151045 0.025376 0.476947 0.607798 -0.000001 0.794092
0.151045 0.414624 0.476947 0.607798 -0.000001 0.794092
0.151045 0.414624 0.476947 0.607796 -0.000000 0.794093
0.134765 -0.000000 0.489408 0.607795 -0.000000 0.794094
0.151045 0.414624 0.476947 0.607795 -0.000000 0.794094
0.134765 1.000000 0.489408 0.607795 -0.000000 0.794094
-0.827050 0.000000 -0.460798 -0.812681 0.000000 -0.582709
-0.909647 0.000000 -0.345605 -0.812681 0.000000 -0.582709
-0.909647 1.000000 -0.345604 -0.812681 0.000000 -0.582709
-0.827050 1.000000 -0.460798 -0.812681 0.000000 -0.582709
0.206893 -0.000000 0.434201 0.660414 0.000000 0.750902
0.270999 -0.000000 0.377821 0.660414 0.000000 0.750902
0.270999 0.025376 0.377821 0.660414 0.000000 0.750902
0.206893 0.025376 0.434201 0.660414 0.000000 0.750902
0.439229 0.000000 -0.213028 0.697837 0.000000 -0.716257
0.384761 0.000000 -0.266096 0.697837 0.000000 -0.716257
0.384761 1.000000 -0.266095 0.697837 0.000000 -0.716257
0.439229 1.000000 -0.213028 0.697837 0.000000 -0.716257
-1.000000 0.000000 0.000000 -0.987365 -0.000000 0.158464
-0.968971 -0.000000 0.193339 -0.987365 -0.000000 0.158464
-0.968971 1.000000 0.193339 -0.987365 -0.000000 0.158464
-1.000000 1.000000 0.000000 -0.987365 -0.000000 0.158464
-0.726205 0.000000 -0.542920 -0.631450 0.000000 -0.775416
-0.827050 0.000000 -0.460798 -0.631450 0.000000 -0.775416
-0.827050 1.000000 -0.460798 -0.631450 0.000000 -0.775416
-0.726205 1.000000 -0.542920 -0.631450 0.000000 -0.775416
0.270999 -0.000000 0.377821 0.694239 -0.000000 0.719745
0.329486 -0.000000 0.321406 0.694239 -0.000000 0.719745
0.329486 0.025376 0.321406 0.694239 -0.000000 0.719745
0.270999 0.025376 0.377821 0.694239 -0.000000 0.719745
0.495296 0.000000 -0.163342 0.663232 0.000000 -0.748414
0.439229 0.000000 -0.213028 0.663232 0.000000 -0.748414
0.439229 1.000000 -0.213028 0.663232 0.000000 -0.748414
0.495296 1.000000 -0.163342 0.663232 0.000000 -0.748414
-0.968971 -0.000000 0.193339 -0.931778 -0.000000 0.363029
-0.909647 -0.000000 0.345605 -0.931778 -0.000000 0.363029
-0.909647 1.000000 0.345605 -0.931778 -0.000000 0.363029
-0.968971 1.000000 0.193339 -0.931778 -0.000000 0.363029
-0.612134 0.000000 -0.595971 -0.421696 0.000000 -0.906737
-0.726205 0.000000 -0.542920 -0.421696 0.000000 -0.906737
-0.726205 1.000000 -0.542920 -0.421696 0.000000 -0.906737
-0.612134 1.000000 -0.595971 -0.421696 0.000000 -0.906737
0.329486 -0.000000 0.321406 0.707333 -0.000000 0.706880
0.384761 -0.000000 0.266096 0.707333 -0.000000 0.706880
0.384761 0.025376 0.266096 0.707333 -0.000000 0.706880
0.329486 0.025376 0.321406 0.707333 -0.000000 0.706880
0.555368 0.000000 -0.118176 0.600952 0.000000 -0.799285
0.495296 0.000000 -0.163342 0.600952 0.000000 -0.799285
0.495296 1.000000 -0.163342 0.600952 0.000000 -0.799285
0.555368 1.000000 -0.118176 0.600952 0.000000 -0.799285
-0.909647 -0.000000 0.345605 -0.812681 -0.000000 0.582709
-0.827050 -0.000000 0.460798 -0.812681 -0.000000 0.582709
-0.827050 1.000000 0.460799 -0.812681 -0.000000 0.582709
-0.909647 1.000000 0.345605 -0.812681 -0.000000 0.582709
-0.489860 0.000000 -0.623952 -0.223071 0.000000 -0.974802
-0.612134 0.000000 -0.595971 -0.223071 0.000000 -0.974802
-0.612134 1.000000 -0.595971 -0.223071 0.000000 -0.974802
-0.489860 1.000000 -0.623952 -0.223071 0.000000 -0.974802
0.384761 0.025376 0.266096 0.697837 -0.000000 0.716257
0.384761 -0.000000 0.266096 0.697837 -0.000000 0.716257
0.439229 -0.000000 0.213028 0.697837 -0.000000 0.716257
0.439229 1.000000 0.213029 0.697837 -0.000000 0.716257
0.384761 1.000000 0.266096 0.697837 -0.000000 0.716257
0.384761 0.414624 0.266096 0.697837 -0.000000 0.716257
0.439229 1.000000 0.213029 0.697836 -0.000000 0.716257
0.384761 0.414624 0.266096 0.697836 -0.000000 0.716257
0.438309 0.414624 0.213925 0.697836 -0.000000 0.716257
0.438309 0.025376 0.213925 0.697837 0.000000 0.716257
0.439229 1.000000 0.213029 0.697866 -0.000000 0.716228
0.438309 0.414624 0.213925 0.697866 -0.000000 0.716228
0.438309 0.025376 0.213925 0.697866 -0.000000 0.716228
0.439229 -0.000000 0.213028 0.697826 -0.000000 0.716267
0.439229 1.000000 0.213029 0.697826 -0.000000 0.716267
0.438309 0.025376 0.213925 0.697826 -0.000000 0.716267
0.621851 0.000000 -0.078669 0.510856 0.000000 -0.859666
0.555368 0.000000 -0.118176 0.510856 0.000000 -0.859666
0.555368 1.000000 -0.118176 0.510856 0.000000 -0.859666
0.621851 1.000000 -0.078669 0.510856 0.000000 -0.859666
-0.827050 -0.000000 0.460798 -0.631450 -0.000000 0.775416
-0.726205 -0.000000 0.542920 -0.631450 -0.000000 0.775416
-0.726205 1.000000 0.542921 -0.631450 -0.000000 0.775416
-0.827050 1.000000 0.460799 -0.631450 -0.000000 0.775416
-0.364406 0.000000 -0.630864 -0.055009 0.000000 -0.998486
-0.489860 0.000000 -0.623952 -0.055009 0.000000 -0.998486
-0.489860 1.000000 -0.623952 -0.055009 0.000000 -0.998486
-0.364406 1.000000 -0.630863 -0.055009 0.000000 -0.998486
0.439229 -0.000000 0.213028 0.663232 -0.000000 0.748414
0.495296 -0.000000 0.163342 0.663232 -0.000000 0.748414
0.495296 1.000000 0.163343 0.663232 -0.000000 0.748414
0.439229 1.000000 0.213029 0.663232 -0.000000 0.748414
0.697150 0.000000 -0.045959 0.398432 0.000000 -0.917198
0.621851 0.000000 -0.078669 0.398432 0.000000 -0.917198
0.621851 1.000000 -0.078669 0.398432 0.000000 -0.917198
0.697150 1.000000 -0.045959 0.398432 0.000000 -0.917198
-0.726205 -0.000000 0.542920 -0.421696 -0.000000 0.906737
-0.612134 -0.000000 0.595971 -0.421696 -0.000000 0.906737
-0.612134 1.000000 0.595972 -0.421696 -0.000000 0.906737
-0.726205 1.000000 0.542921 -0.421696 -0.000000 0.906737
-0.240794 0.000000 -0.620707 0.081893 0.000000 -0.996641
-0.364406 0.000000 -0.630864 0.081893 0.000000 -0.996641
-0.364406 1.000000 -0.630863 0.081893 0.000000 -0.996641
-0.240794 1.000000 -0.620706 0.081893 0.000000 -0.996641
0.495296 -0.000000 0.163342 0.600952 -0.000000 0.799285
0.555368 -0.000000 0.118176 0.600952 -0.000000 0.799285
0.555368 1.000000 0.118177 0.600952 -0.000000 0.799285
0.495296 1.000000 0.163343 0.600952 -0.000000 0.799285
0.783670 0.000000 -0.021185 0.275273 0.000000 -0.961366
0.697150 0.000000 -0.045959 0.275273 0.000000 -0.961366
0.697150 1.000000 -0.045959 0.275273 0.000000 -0.961366
0.783670 1.000000 -0.021185 0.275273 0.000000 -0.961366
-0.612134 -0.000000 0.595971 -0.223071 -0.000000 0.974802
-0.489860 -0.000000 0.623952 -0.223071 -0.000000 0.974802
-0.489860 1.000000 0.623953 -0.223071 -0.000000 0.974802
-0.612134 1.000000 0.595972 -0.223071 -0.000000 0.974802
-0.124049 0.000000 -0.597482 0.195112 0.000000 -0.980781
-0.240794 0.000000 -0.620707 0.195112 0.000000 -0.980781
-0.240794 1.000000 -0.620706 0.195112 0.000000 -0.980781
-0.124049 1.000000 -0.597481 0.195112 0.000000 -0.980781
0.555368 -0.000000 0.118176 0.510856 -0.000000 0.859666
0.621851 -0.000000 0.078669 0.510856 -0.000000 0.859666
0.621851 1.000000 0.078670 0.510856 -0.000000 0.859666
0.555368 1.000000 0.118177 0.510856 -0.000000 0.859666
0.883818 0.000000 -0.010972 0.101455 0.000000 -0.994840
0.783670 0.000000 -0.021185 0.101455 0.000000 -0.994840
0.783670 1.000000 -0.021185 0.101455 0.000000 -0.994840
0.883818 1.000000 -0.010972 0.101455 0.000000 -0.994840
-0.489860 -0.000000 0.623952 -0.055009 -0.000000 0.998486
-0.364406 -0.000000 0.630864 -0.055009 -0.000000 0.998486
-0.364406 1.000000 0.630864 -0.055009 -0.000000 0.998486
-0.489860 1.000000 0.623953 -0.055009 -0.000000 0.998486
0.384761 0.025376 0.266096 -0.000000 1.000000 0.000000
0.438309 0.025376 0.213925 -0.000000 1.000000 0.000000
0.394280 0.025376 0.162311 -0.000000 1.000000 0.000000
0.098143 0.025376 0.414933 -0.000000 1.000000 0.000000
0.151045 0.025376 0.476947 -0.000000 1.000000 0.000000
0.151045 0.025376 0.476947 0.000000 1.000000 0.000001
0.206893 0.025376 0.434201 0.000000 1.000000 0.000001
0.270999 0.025376 0.377821 0.000000 1.000000 0.000001
0.329486 0.025376 0.321406 0.000000 1.000000 0.000001
0.384761 0.025376 0.266096 0.000000 1.000000 0.000001
0.270999 0.025376 0.377821 0.000000 1.000000 0.000000
0.438309 0.414624 0.213925 -0.760790 -0.000000 0.648998
0.394279 0.414624 0.162311 -0.760790 -0.000000 0.648998
0.394280 0.025376 0.162311 -0.760790 -0.000000 0.648998
0.438309 0.025376 0.213925 -0.760790 -0.000000 0.648998
0.329486 0.414624 0.321406 0.707333 -0.000000 0.706880
0.384761 0.414624 0.266096 0.707333 -0.000000 0.706880
0.384761 1.000000 0.266096 0.707333 -0.000000 0.706880
0.329486 1.000000 0.321406 0.707333 -0.000000 0.706880
0.270999 0.414624 0.377821 0.694239 -0.000000 0.719745
0.329486 0.414624 0.321406 0.694239 -0.000000 0.719745
0.329486 1.000000 0.321406 0.694239 -0.000000 0.719745
0.270999 1.000000 0.377821 0.694239 -0.000000 0.719745
0.206893 0.414624 0.434201 -0.000000 -1.000000 0.000001
0.151045 0.414624 0.476947 -0.000000 -1.000000 0.000001
0.098143 0.414624 0.414933 -0.000000 -1.000000 0.000001
0.098143 0.414624 0.414933 0.000000 -1.000000 -0.000000
0.394279 0.414624 0.162311 0.000000 -1.000000 -0.000000
0.438309 0.414624 0.213925 0.000000 -1.000000 -0.000000
0.384761 0.414624 0.266096 -0.000015 -1.000000 -0.000016
0.329486 0.414624 0.321406 -0.000015 -1.000000 -0.000016
0.270999 0.414624 0.377821 -0.000015 -1.000000 -0.000016
0.098143 0.414624 0.414933 0.000001 -1.000000 0.000001
0.438309 0.414624 0.213925 0.000001 -1.000000 0.000001
0.384761 0.414624 0.266096 0.000001 -1.000000 0.000001
0.270999 0.414624 0.377821 0.000000 -1.000000 -0.000000
0.206893 0.414624 0.434201 0.000000 -1.000000 -0.000000
0.098143 0.414624 0.414933 0.000000 -1.000000 -0.000001
0.384761 0.414624 0.266096 0.000000 -1.000000 -0.000001
0.270999 0.414624 0.377821 0.000000 -1.000000 -0.000001
0.206893 0.414624 0.434201 0.660414 -0.000000 0.750902
0.270999 0.414624 0.377821 0.660414 -0.000000 0.750902
0.270999 1.000000 0.377821 0.660414 -0.000000 0.750902
0.206893 1.000000 0.434201 0.660414 -0.000000 0.750902
0.098143 0.414624 0.414933 0.760790 0.000000 -0.648998
0.151045 0.414624 0.476947 0.760790 0.000000 -0.648998
0.151045 0.025376 0.476947 0.760790 0.000000 -0.648998
0.098143 0.025376 0.414933 0.760790 0.000000 -0.648998
0.883818 1.000000 0.010973 0.000000 1.000000 -0.000000
1.000000 1.000000 0.000000 0.000000 1.000000 -0.000000
0.883818 1.000000 -0.010972 0.000000 1.000000 -0.000000
0.783670 1.000000 -0.021185 0.000000 1.000000 0.000000
0.783670 1.000000 0.021186 0.000000 1.000000 -0.000000
0.697150 1.000000 -0.045959 0.000000 1.000000 0.000000
0.697150 1.000000 0.045960 0.000000 1.000000 -0.000000
0.621851 1.000000 -0.078669 0.000000 1.000000 0.000000
0.621851 1.000000 0.078670 0.000000 1.000000 -0.000000
0.555368 1.000000 -0.118176 0.000000 1.000000 0.000000
0.555368 1.000000 0.118177 -0.000001 1.000000 0.000000
0.621851 1.000000 0.078670 -0.000001 1.000000 0.000000
0.555368 1.000000 -0.118176 -0.000001 1.000000 0.000000
0.555368 1.000000 0.118177 -0.000000 1.000000 0.000000
0.495296 1.000000 -0.163342 -0.000000 1.000000 0.000000
0.495296 1.000000 0.163343 0.000000 1.000000 0.000000
0.495296 1.000000 0.163343 0.000002 1.000000 0.000000
0.495296 1.000000 -0.163342 0.000002 1.000000 0.000000
0.439229 1.000000 -0.213028 0.000002 1.000000 0.000000
0.439229 1.000000 0.213029 -0.000001 1.000000 0.000001
0.495296 1.000000 0.163343 -0.000001 1.000000 0.000001
0.439229 1.000000 -0.213028 -0.000001 1.000000 0.000001
0.384761 1.000000 -0.266095 -0.000009 1.000000 0.000010
0.270999 1.000000 -0.377820 -0.000009 1.000000 0.000010
0.206893 1.000000 -0.434200 -0.000009 1.000000 0.000010
0.384761 1.000000 -0.266095 -0.000001 1.000000 0.000001
0.270999 1.000000 0.377821 0.000001 1.000000 0.000002
0.329486 1.000000 0.321406 0.000001 1.000000 0.000002
0.384761 1.000000 0.266096 0.000001 1.000000 0.000002
0.384761 1.000000 0.266096 0.000001 1.000000 0.000000
0.439229 1.000000 0.213029 0.000001 1.000000 0.000000
0.384761 1.000000 -0.266095 0.000001 1.000000 0.000000
0.384761 1.000000 -0.266095 -0.000003 1.000000 0.000004
0.206893 1.000000 -0.434200 -0.000003 1.000000 0.000004
0.134765 1.000000 -0.489407 -0.000003 1.000000 0.000004
0.134765 1.000000 -0.489407 0.000010 1.000000 -0.000020
0.068754 1.000000 -0.527831 0.000010 1.000000 -0.000020
-0.019192 1.000000 -0.565190 0.000010 1.000000 -0.000020
-0.019192 1.000000 -0.565190 0.000000 1.000000 0.000000
-0.124049 1.000000 -0.597481 0.000000 1.000000 0.000000
-0.240794 1.000000 -0.620706 0.000000 1.000000 0.000000
-0.364406 1.000000 -0.630863 -0.000000 1.000000 0.000000
-0.489860 1.000000 -0.623952 -0.000000 1.000000 0.000000
-0.489860 1.000000 -0.623952 0.000001 1.000000 0.000004
-0.612134 1.000000 -0.595971 0.000001 1.000000 0.000004
-0.726205 1.000000 -0.542920 0.000001 1.000000 0.000004
-0.726205 1.000000 -0.542920 0.000003 1.000000 0.000002
-0.827050 1.000000 -0.460798 0.000003 1.000000 0.000002
-0.909647 1.000000 -0.345604 0.000003 1.000000 0.000002
-0.909647 1.000000 -0.345604 -0.000001 1.000000 0.000001
-0.968971 1.000000 -0.193339 -0.000001 1.000000 0.000001
-1.000000 1.000000 0.000000 -0.000001 1.000000 0.000001
-0.968971 1.000000 0.193339 -0.000001 1.000000 0.000001
-0.909647 1.000000 0.345605 -0.000001 1.000000 0.000001
-0.827050 1.000000 0.460799 -0.000001 1.000000 0.000001
-0.726205 1.000000 0.542921 -0.000001 1.000000 0.000001
-0.726205 1.000000 0.542921 0.000000 1.000000 0.000000
-0.612134 1.000000 0.595972 0.000000 1.000000 0.000000
-0.489860 1.000000 0.623953 0.000000 1.000000 0.000000
-0.364406 1.000000 0.630864 0.000000 1.000000 0.000000
-0.240794 1.000000 0.620707 0.000000 1.000000 0.000000
-0.124049 1.000000 0.597482 0.000000 1.000000 0.000000
-0.019192 1.000000 0.565190 0.000000 1.000000 0.000000
0.068754 1.000000 0.527832 0.000000 1.000000 0.000000
0.134765 1.000000 0.489408 0.000000 1.000000 0.000000
0.134765 1.000000 0.489408 -0.000006 1.000000 -0.000007
0.206893 1.000000 0.434201 -0.000006 1.000000 -0.000007
0.270999 1.000000 0.377821 -0.000006 1.000000 -0.000007
0.270999 1.000000 0.377821 -0.000001 1.000000 0.000000
0.384761 1.000000 0.266096 -0.000001 1.000000 0.000000
0.384761 1.000000 -0.266095 -0.000001 1.000000 0.000000
0.134765 1.000000 -0.489407 -0.000001 1.000000 0.000001
-0.019192 1.000000 -0.565190 -0.000001 1.000000 0.000001
-0.489860 1.000000 -0.623952 -0.000001 1.000000 -0.000002
-0.726205 1.000000 -0.542920 -0.000001 1.000000 -0.000002
-0.909647 1.000000 -0.345604 -0.000001 1.000000 -0.000002
-0.909647 1.000000 -0.345604 -0.000000 1.000000 0.000001
-1.000000 1.000000 0.000000 -0.000000 1.000000 0.000001
-0.909647 1.000000 0.345605 -0.000000 1.000000 0.000001
-0.909647 1.000000 0.345605 -0.000000 1.000000 0.000000
-0.019192 1.000000 0.565190 0.000001 1.000000 0.000001
0.134765 1.000000 0.489408 0.000001 1.000000 0.000001
0.270999 1.000000 0.377821 0.000001 1.000000 0.000001
0.270999 1.000000 0.377821 -0.000000 1.000000 0.000000
0.384761 1.000000 -0.266095 -0.000000 1.000000 0.000000
-0.909647 1.000000 -0.345604 -0.000000 1.000000 0.000000
-0.489860 1.000000 0.623953 -0.000000 1.000000 0.000001
0.384761 0.000000 -0.266096 0.700690 0.000000 -0.713466
0.270999 0.000000 -0.377821 0.700690 0.000000 -0.713466
0.270999 1.000000 -0.377820 0.700690 0.000000 -0.713466
0.384761 1.000000 -0.266095 0.700690 0.000000 -0.713466
4 0 1 2 3
3 4 5 6
3 6 7 8
3 9 10 11
3 12 13 14
3 14 15 16
3 16 17 18
3 19 20 21
3 22 23 24
3 25 26 27
3 16 18 22
3 12 14 16
3 28 29 30
3 31 32 28
3 33 34 35
3 36 37 33
3 38 39 36
3 40 41 38
3 42 43 44
3 45 46 47
3 48 49 50
3 51 40 38
3 38 36 33
3 52 31 28
3 6 12 16
3 53 54 55
3 16 56 57
3 33 6 16
3 51 38 33
3 58 59 60
3 61 62 52
3 33 16 57
3 52 63 64
3 65 61 52
3 66 67 33
3 33 68 69
3 52 70 71
3 72 73 52
3 74 75 76
3 33 77 78
3 33 78 79
3 80 52 81
3 82 83 84
3 85 79 82
3 82 84 86
3 87 88 89
4 90 91 92 93
4 94 95 96 97
4 98 99 100 101
4 102 103 104 105
4 106 107 108 109
4 110 111 112 113
4 114 115 116 117
4 118 119 120 121
4 122 123 124 125
4 126 127 128 129
4 130 131 132 133
4 134 135 136 137
4 138 139 140 141
4 142 143 144 145
4 146 147 148 149
4 150 151 152 153
4 154 155 156 157
3 158 159 160
3 161 162 163
3 164 165 166
3 167 168 169
3 170 164 166
3 171 172 173
4 174 175 176 177
4 178 179 180 181
4 182 183 184 185
4 186 187 188 189
4 190 191 192 193
4 194 195 196 197
4 198 199 200 201
4 202 203 204 205
4 206 207 208 209
4 210 211 212 213
4 214 215 216 217
4 218 219 220 221
4 222 223 224 225
3 226 227 228
3 229 230 231
3 232 233 234
3 235 226 228
3 236 237 238
3 239 240 241
4 242 243 244 245
4 246 247 248 249
4 250 251 252 253
4 254 255 256 257
4 258 259 260 261
4 262 263 264 265
4 266 267 268 269
4 270 271 272 273
4 274 275 276 277
4 278 279 280 281
4 282 283 284 285
4 286 287 288 289
4 290 291 292 293
4 294 295 296 297
3 298 299 300
3 300 301 302
3 303 304 305
3 305 306 307
3 298 300 302
3 302 308 298
4 309 310 311 312
4 313 314 315 316
4 317 318 319 320
3 321 322 323
3 324 325 326
3 327 328 329
3 330 331 332
3 333 334 324
3 335 336 337
4 338 339 340 341
4 342 343 344 345
3 346 347 348
3 346 348 349
3 350 346 349
3 350 349 351
3 352 350 351
3 352 351 353
3 354 352 353
3 354 353 355
3 356 357 358
3 359 355 360
3 361 359 360
3 362 363 364
3 365 366 367
3 368 369 370
3 365 367 371
3 372 373 374
3 375 376 377
3 378 379 380
3 381 382 383
3 384 385 386
3 386 387 388
3 389 390 391
3 392 393 394
3 395 396 397
3 397 398 399
3 399 400 401
3 402 403 404
3 404 405 406
3 406 407 408
3 408 409 410
3 411 412 413
3 414 415 416
3 371 417 418
3 384 386 388
3 419 420 421
3 422 423 424
3 425 402 404
3 404 406 408
3 426 427 428
3 429 430 384
3 384 388 431
3 422 424 432
3 404 408 429
3 429 384 431
3 431 404 429
4 433 434 435 436
