ply
format ascii 1.0
comment Created by Blender 2.79 (sub 0) - www.blender.org, source file: 'untitled2.blend'
element vertex 437
property float x
property float y
property float z
property float nx
property float ny
property float nz
element face 165
property list uchar uint vertex_indices
end_header
0.196286 0.829248 0.829866 0.648998 -0.000000 0.760790
0.196286 0.050751 0.829865 0.648998 -0.000000 0.760790
0.788559 0.050751 0.324622 0.648998 -0.000000 0.760790
0.788559 0.829248 0.324623 0.648998 -0.000000 0.760790
-1.819293 -0.000000 0.691210 -0.000000 -1.000000 -0.000000
-1.937941 -0.000000 0.386678 -0.000000 -1.000000 -0.000000
-2.000000 0.000000 0.000000 -0.000000 -1.000000 -0.000000
-1.937941 0.000000 -0.386678 0.000000 -1.000000 -0.000000
-1.819293 0.000000 -0.691210 0.000000 -1.000000 -0.000000
-1.819293 0.000000 -0.691210 -0.000001 -1.000000 -0.000001
-1.654101 0.000000 -0.921597 -0.000001 -1.000000 -0.000001
-1.452411 0.000000 -1.085840 -0.000001 -1.000000 -0.000001
-1.452411 0.000000 -1.085840 -0.000000 -1.000000 -0.000000
-1.224269 0.000000 -1.191942 -0.000000 -1.000000 -0.000000
-0.979720 0.000001 -1.247904 -0.000000 -1.000000 -0.000000
-0.728812 0.000001 -1.261727 0.000000 -1.000000 -0.000000
-0.481589 0.000001 -1.241413 0.000000 -1.000000 -0.000000
-0.248097 0.000000 -1.194964 0.000000 -1.000000 -0.000000
-0.038383 0.000000 -1.130380 0.000000 -1.000000 -0.000000
-0.038383 0.000000 -1.130380 -0.000001 -1.000000 0.000002
0.137507 0.000000 -1.055664 -0.000001 -1.000000 0.000002
0.269529 0.000000 -0.978816 -0.000001 -1.000000 0.000002
0.269529 0.000000 -0.978816 -0.000000 -1.000000 -0.000000
0.413787 0.000000 -0.868401 -0.000000 -1.000000 -0.000000
0.541997 0.000000 -0.755641 -0.000000 -1.000000 -0.000000
0.269529 0.000000 -0.978816 0.000001 -1.000000 -0.000002
0.541997 0.000000 -0.755641 0.000001 -1.000000 -0.000002
0.769521 0.000000 -0.532191 0.000001 -1.000000 -0.000002
-2.000000 0.000000 0.000000 -0.000000 -1.000000 -0.000001
-1.819293 0.000000 -0.691210 -0.000000 -1.000000 -0.000001
-1.452411 0.000000 -1.085840 -0.000000 -1.000000 -0.000001
-1.654101 -0.000000 0.921597 0.000000 -1.000000 -0.000001
-1.819293 -0.000000 0.691210 0.000000 -1.000000 -0.000001
-1.224269 -0.000000 1.191942 -0.000000 -1.000000 0.000000
-1.452411 -0.000000 1.085840 -0.000000 -1.000000 0.000000
-1.654101 -0.000000 0.921597 -0.000000 -1.000000 0.000000
-0.728812 -0.000001 1.261727 -0.000000 -1.000000 -0.000000
-0.979720 -0.000001 1.247904 -0.000000 -1.000000 -0.000000
-0.248097 -0.000000 1.194964 0.000000 -1.000000 -0.000000
-0.481589 -0.000001 1.241413 0.000000 -1.000000 -0.000000
0.137507 -0.000000 1.055664 0.000000 -1.000000 -0.000000
-0.038383 -0.000000 1.130380 0.000000 -1.000000 -0.000000
0.413787 -0.000000 0.868401 -0.000002 -1.000000 -0.000003
0.269529 -0.000000 0.978816 -0.000002 -1.000000 -0.000003
0.137507 -0.000000 1.055664 -0.000002 -1.000000 -0.000003
0.658972 -0.000000 0.642812 -0.000005 -1.000000 -0.000006
0.541997 -0.000000 0.755641 -0.000005 -1.000000 -0.000006
0.413787 -0.000000 0.868401 -0.000005 -1.000000 -0.000006
0.769521 -0.000000 0.532191 0.000003 -1.000000 0.000003
0.658972 -0.000000 0.642812 0.000003 -1.000000 0.000003
0.413787 -0.000000 0.868401 0.000003 -1.000000 0.000003
0.413787 -0.000000 0.868401 0.000000 -1.000000 0.000000
-1.224269 -0.000000 1.191942 0.000000 -1.000000 -0.000001
-0.481589 0.000001 -1.241413 0.000000 -1.000000 -0.000001
0.269529 0.000000 -0.978816 0.000000 -1.000000 -0.000001
0.769521 0.000000 -0.532191 0.000000 -1.000000 -0.000001
0.769521 0.000000 -0.532191 -0.000000 -1.000000 0.000000
0.878458 0.000000 -0.426057 -0.000000 -1.000000 0.000000
0.878458 -0.000000 0.426057 0.000014 -1.000000 0.000015
0.769521 -0.000000 0.532191 0.000014 -1.000000 0.000015
0.413787 -0.000000 0.868401 0.000014 -1.000000 0.000015
0.878458 -0.000000 0.426057 -0.000000 -1.000000 -0.000001
0.413787 -0.000000 0.868401 -0.000000 -1.000000 -0.000001
0.878458 0.000000 -0.426057 -0.000000 -1.000000 -0.000001
0.990593 0.000000 -0.326685 -0.000000 -1.000000 -0.000001
0.990593 -0.000000 0.326685 -0.000000 -1.000000 -0.000001
1.110737 -0.000000 0.236353 0.000000 -1.000000 -0.000000
0.990593 -0.000000 0.326685 0.000000 -1.000000 -0.000000
0.990593 0.000000 -0.326685 0.000000 -1.000000 -0.000000
1.110737 0.000000 -0.236353 0.000000 -1.000000 -0.000000
1.110737 0.000000 -0.236353 -0.000000 -1.000000 -0.000001
1.243702 0.000000 -0.157338 -0.000000 -1.000000 -0.000001
1.243702 -0.000000 0.157338 -0.000000 -1.000000 -0.000001
1.110737 -0.000000 0.236353 -0.000000 -1.000000 -0.000001
1.394299 -0.000000 0.091919 0.000001 -1.000000 0.000003
1.243702 -0.000000 0.157338 0.000001 -1.000000 0.000003
-1.224269 -0.000000 1.191942 0.000001 -1.000000 0.000003
1.243702 0.000000 -0.157338 0.000000 -1.000000 -0.000000
1.394299 0.000000 -0.091919 0.000000 -1.000000 -0.000000
1.567340 0.000000 -0.042371 -0.000000 -1.000000 -0.000000
1.394299 -0.000000 0.091919 -0.000000 -1.000000 -0.000001
1.567340 0.000000 -0.042371 -0.000000 -1.000000 -0.000001
1.767637 0.000000 -0.021945 0.000000 -1.000000 -0.000000
2.000000 0.000000 0.000000 0.000000 -1.000000 -0.000000
1.767637 -0.000000 0.021945 0.000000 -1.000000 -0.000000
1.394299 -0.000000 0.091919 0.000000 -1.000000 -0.000000
1.567340 -0.000000 0.042371 0.000000 -1.000000 -0.000000
1.767637 0.000000 -0.021945 0.000000 -1.000000 0.000001
1.567340 -0.000000 0.042371 0.000000 -1.000000 0.000001
1.394299 -0.000000 0.091919 0.000000 -1.000000 0.000001
-0.038383 0.000000 -1.130380 0.294320 0.000000 -0.955707
-0.248097 0.000000 -1.194964 0.294320 0.000000 -0.955707
-0.248097 2.000000 -1.194963 0.294320 0.000000 -0.955707
-0.038383 2.000000 -1.130379 0.294320 0.000000 -0.955707
1.243702 -0.000000 0.157338 0.398432 -0.000000 0.917198
1.394299 -0.000000 0.091919 0.398432 -0.000000 0.917198
1.394299 2.000000 0.091920 0.398432 -0.000000 0.917198
1.243702 2.000000 0.157339 0.398432 -0.000000 0.917198
2.000000 0.000000 0.000000 0.094023 0.000000 -0.995570
1.767637 0.000000 -0.021945 0.094023 0.000000 -0.995570
1.767637 2.000000 -0.021944 0.094023 0.000000 -0.995570
2.000000 2.000000 0.000001 0.094023 0.000000 -0.995570
-0.728812 -0.000001 1.261727 0.081893 -0.000000 0.996641
-0.481589 -0.000001 1.241413 0.081893 -0.000000 0.996641
-0.481589 2.000000 1.241414 0.081893 -0.000000 0.996641
-0.728812 2.000000 1.261728 0.081893 -0.000000 0.996641
0.137507 0.000000 -1.055664 0.390975 0.000000 -0.920401
-0.038383 0.000000 -1.130380 0.390975 0.000000 -0.920401
-0.038383 2.000000 -1.130379 0.390975 0.000000 -0.920401
0.137507 2.000000 -1.055663 0.390975 0.000000 -0.920401
1.394299 -0.000000 0.091919 0.275273 -0.000000 0.961366
1.567340 -0.000000 0.042371 0.275273 -0.000000 0.961366
1.567340 2.000000 0.042372 0.275273 -0.000000 0.961366
1.394299 2.000000 0.091920 0.275273 -0.000000 0.961366
-0.481589 -0.000001 1.241413 0.195112 -0.000000 0.980781
-0.248097 -0.000000 1.194964 0.195112 -0.000000 0.980781
-0.248097 2.000000 1.194965 0.195112 -0.000000 0.980781
-0.481589 2.000000 1.241414 0.195112 -0.000000 0.980781
0.269529 0.000000 -0.978816 0.503067 0.000000 -0.864247
0.137507 0.000000 -1.055664 0.503067 0.000000 -0.864247
0.137507 2.000000 -1.055663 0.503067 0.000000 -0.864247
0.269529 2.000000 -0.978815 0.503067 0.000000 -0.864247
1.567340 -0.000000 0.042371 0.101454 -0.000000 0.994840
1.767637 -0.000000 0.021945 0.101454 -0.000000 0.994840
1.767637 2.000000 0.021946 0.101454 -0.000000 0.994840
1.567340 2.000000 0.042372 0.101454 -0.000000 0.994840
-0.248097 -0.000000 1.194964 0.294320 -0.000000 0.955707
-0.038383 -0.000000 1.130380 0.294320 -0.000000 0.955707
-0.038383 2.000000 1.130381 0.294320 -0.000000 0.955707
-0.248097 2.000000 1.194965 0.294320 -0.000000 0.955707
0.413787 0.000000 -0.868401 0.607796 0.000000 -0.794093
0.269529 0.000000 -0.978816 0.607796 0.000000 -0.794093
0.269529 2.000000 -0.978815 0.607796 0.000000 -0.794093
0.413787 2.000000 -0.868401 0.607796 0.000000 -0.794093
1.767637 -0.000000 0.021945 0.094024 -0.000000 0.995570
2.000000 0.000000 0.000000 0.094024 -0.000000 0.995570
2.000000 2.000000 0.000001 0.094024 -0.000000 0.995570
1.767637 2.000000 0.021946 0.094024 -0.000000 0.995570
-0.038383 -0.000000 1.130380 0.390975 -0.000000 0.920401
0.137507 -0.000000 1.055664 0.390975 -0.000000 0.920401
0.137507 2.000000 1.055665 0.390975 -0.000000 0.920401
-0.038383 2.000000 1.130381 0.390975 -0.000000 0.920401
0.541997 0.000000 -0.755641 0.660414 0.000000 -0.750902
0.413787 0.000000 -0.868401 0.660414 0.000000 -0.750902
0.413787 2.000000 -0.868401 0.660414 0.000000 -0.750902
0.541997 2.000000 -0.755640 0.660414 0.000000 -0.750902
-1.937941 0.000000 -0.386678 -0.987365 0.000000 -0.158464
-2.000000 0.000000 0.000000 -0.987365 0.000000 -0.158464
-2.000000 2.000000 0.000001 -0.987365 0.000000 -0.158464
-1.937941 2.000000 -0.386677 -0.987365 0.000000 -0.158464
0.137507 -0.000000 1.055664 0.503067 -0.000000 0.864248
0.269529 -0.000000 0.978816 0.503067 -0.000000 0.864248
0.269529 2.000000 0.978817 0.503067 -0.000000 0.864248
0.137507 2.000000 1.055665 0.503067 -0.000000 0.864248
-1.819293 0.000000 -0.691210 -0.931778 0.000000 -0.363029
-1.937941 0.000000 -0.386678 -0.931778 0.000000 -0.363029
-1.937941 2.000000 -0.386677 -0.931778 0.000000 -0.363029
-1.819293 2.000000 -0.691209 -0.931778 0.000000 -0.363029
0.269529 -0.000000 0.978816 0.607796 0.000000 0.794093
0.413787 -0.000000 0.868401 0.607796 0.000000 0.794093
0.413787 0.050751 0.868401 0.607796 0.000000 0.794093
0.269529 -0.000000 0.978816 0.607795 0.000002 0.794094
0.413787 0.050751 0.868401 0.607795 0.000002 0.794094
0.302090 0.050751 0.953894 0.607795 0.000002 0.794094
0.413787 0.829248 0.868402 0.607796 -0.000000 0.794093
0.413787 2.000000 0.868402 0.607796 -0.000000 0.794093
0.269529 2.000000 0.978817 0.607796 -0.000000 0.794093
0.269529 -0.000000 0.978816 0.607798 -0.000001 0.794092
0.302090 0.050751 0.953894 0.607798 -0.000001 0.794092
0.302090 0.829248 0.953894 0.607798 -0.000001 0.794092
0.302090 0.829248 0.953894 0.607796 -0.000000 0.794093
0.269529 -0.000000 0.978816 0.607795 -0.000000 0.794094
0.302090 0.829248 0.953894 0.607795 -0.000000 0.794094
0.269529 2.000000 0.978817 0.607795 -0.000000 0.794094
-1.654101 0.000000 -0.921597 -0.812681 0.000000 -0.582709
-1.819293 0.000000 -0.691210 -0.812681 0.000000 -0.582709
-1.819293 2.000000 -0.691209 -0.812681 0.000000 -0.582709
-1.654101 2.000000 -0.921596 -0.812681 0.000000 -0.582709
0.413787 -0.000000 0.868401 0.660414 0.000000 0.750902
0.541997 -0.000000 0.755641 0.660414 0.000000 0.750902
0.541997 0.050751 0.755641 0.660414 0.000000 0.750902
0.413787 0.050751 0.868401 0.660414 0.000000 0.750902
0.878458 0.000000 -0.426057 0.697837 0.000000 -0.716257
0.769521 0.000000 -0.532191 0.697837 0.000000 -0.716257
0.769521 2.000000 -0.532191 0.697837 0.000000 -0.716257
0.878458 2.000000 -0.426056 0.697837 0.000000 -0.716257
-2.000000 0.000000 0.000000 -0.987365 -0.000000 0.158464
-1.937941 -0.000000 0.386678 -0.987365 -0.000000 0.158464
-1.937941 2.000000 0.386679 -0.987365 -0.000000 0.158464
-2.000000 2.000000 0.000001 -0.987365 -0.000000 0.158464
-1.452411 0.000000 -1.085840 -0.631450 0.000000 -0.775416
-1.654101 0.000000 -0.921597 -0.631450 0.000000 -0.775416
-1.654101 2.000000 -0.921596 -0.631450 0.000000 -0.775416
-1.452411 2.000000 -1.085840 -0.631450 0.000000 -0.775416
0.541997 -0.000000 0.755641 0.694239 -0.000000 0.719745
0.658972 -0.000000 0.642812 0.694239 -0.000000 0.719745
0.658972 0.050751 0.642812 0.694239 -0.000000 0.719745
0.541997 0.050751 0.755641 0.694239 -0.000000 0.719745
0.990593 0.000000 -0.326685 0.663232 0.000000 -0.748414
0.878458 0.000000 -0.426057 0.663232 0.000000 -0.748414
0.878458 2.000000 -0.426056 0.663232 0.000000 -0.748414
0.990593 2.000000 -0.326684 0.663232 0.000000 -0.748414
-1.937941 -0.000000 0.386678 -0.931778 -0.000000 0.363029
-1.819293 -0.000000 0.691210 -0.931778 -0.000000 0.363029
-1.819293 2.000000 0.691211 -0.931778 -0.000000 0.363029
-1.937941 2.000000 0.386679 -0.931778 -0.000000 0.363029
-1.224269 0.000000 -1.191942 -0.421696 0.000000 -0.906737
-1.452411 0.000000 -1.085840 -0.421696 0.000000 -0.906737
-1.452411 2.000000 -1.085840 -0.421696 0.000000 -0.906737
-1.224269 2.000000 -1.191942 -0.421696 0.000000 -0.906737
0.658972 -0.000000 0.642812 0.707333 -0.000000 0.706880
0.769521 -0.000000 0.532191 0.707333 -0.000000 0.706880
0.769521 0.050751 0.532191 0.707333 -0.000000 0.706880
0.658972 0.050751 0.642812 0.707333 -0.000000 0.706880
1.110737 0.000000 -0.236353 0.600952 0.000000 -0.799285
0.990593 0.000000 -0.326685 0.600952 0.000000 -0.799285
0.990593 2.000000 -0.326684 0.600952 0.000000 -0.799285
1.110737 2.000000 -0.236352 0.600952 0.000000 -0.799285
-1.819293 -0.000000 0.691210 -0.812681 -0.000000 0.582709
-1.654101 -0.000000 0.921597 -0.812681 -0.000000 0.582709
-1.654101 2.000000 0.921598 -0.812681 -0.000000 0.582709
-1.819293 2.000000 0.691211 -0.812681 -0.000000 0.582709
-0.979720 0.000001 -1.247904 -0.223071 0.000000 -0.974802
-1.224269 0.000000 -1.191942 -0.223071 0.000000 -0.974802
-1.224269 2.000000 -1.191942 -0.223071 0.000000 -0.974802
-0.979720 2.000000 -1.247903 -0.223071 0.000000 -0.974802
0.769521 0.050751 0.532191 0.697837 -0.000000 0.716257
0.769521 -0.000000 0.532191 0.697837 -0.000000 0.716257
0.878458 -0.000000 0.426057 0.697837 -0.000000 0.716257
0.878458 2.000000 0.426057 0.697837 -0.000000 0.716257
0.769521 2.000000 0.532192 0.697837 -0.000000 0.716257
0.769521 0.829248 0.532192 0.697837 -0.000000 0.716257
0.878458 2.000000 0.426057 0.697836 -0.000000 0.716257
0.769521 0.829248 0.532192 0.697836 -0.000000 0.716257
0.876618 0.829248 0.427850 0.697836 -0.000000 0.716257
0.876618 0.050751 0.427849 0.697837 0.000000 0.716257
0.878458 2.000000 0.426057 0.697866 -0.000000 0.716228
0.876618 0.829248 0.427850 0.697866 -0.000000 0.716228
0.876618 0.050751 0.427849 0.697866 -0.000000 0.716228
0.878458 -0.000000 0.426057 0.697826 -0.000000 0.716267
0.878458 2.000000 0.426057 0.697826 -0.000000 0.716267
0.876618 0.050751 0.427849 0.697826 -0.000000 0.716267
1.243702 0.000000 -0.157338 0.510856 0.000000 -0.859666
1.110737 0.000000 -0.236353 0.510856 0.000000 -0.859666
1.110737 2.000000 -0.236352 0.510856 0.000000 -0.859666
1.243702 2.000000 -0.157338 0.510856 0.000000 -0.859666
-1.654101 -0.000000 0.921597 -0.631450 -0.000000 0.775416
-1.452411 -0.000000 1.085840 -0.631450 -0.000000 0.775416
-1.452411 2.000000 1.085841 -0.631450 -0.000000 0.775416
-1.654101 2.000000 0.921598 -0.631450 -0.000000 0.775416
-0.728812 0.000001 -1.261727 -0.055009 0.000000 -0.998486
-0.979720 0.000001 -1.247904 -0.055009 0.000000 -0.998486
-0.979720 2.000000 -1.247903 -0.055009 0.000000 -0.998486
-0.728812 2.000000 -1.261726 -0.055009 0.000000 -0.998486
0.878458 -0.000000 0.426057 0.663232 -0.000000 0.748414
0.990593 -0.000000 0.326685 0.663232 -0.000000 0.748414
0.990593 2.000000 0.326685 0.663232 -0.000000 0.748414
0.878458 2.000000 0.426057 0.663232 -0.000000 0.748414
1.394299 0.000000 -0.091919 0.398432 0.000000 -0.917198
1.243702 0.000000 -0.157338 0.398432 0.000000 -0.917198
1.243702 2.000000 -0.157338 0.398432 0.000000 -0.917198
1.394299 2.000000 -0.091918 0.398432 0.000000 -0.917198
-1.452411 -0.000000 1.085840 -0.421696 -0.000000 0.906737
-1.224269 -0.000000 1.191942 -0.421696 -0.000000 0.906737
-1.224269 2.000000 1.191943 -0.421696 -0.000000 0.906737
-1.452411 2.000000 1.085841 -0.421696 -0.000000 0.906737
-0.481589 0.000001 -1.241413 0.081893 0.000000 -0.996641
-0.728812 0.000001 -1.261727 0.081893 0.000000 -0.996641
-0.728812 2.000000 -1.261726 0.081893 0.000000 -0.996641
-0.481589 2.000000 -1.241413 0.081893 0.000000 -0.996641
0.990593 -0.000000 0.326685 0.600952 -0.000000 0.799285
1.110737 -0.000000 0.236353 0.600952 -0.000000 0.799285
1.110737 2.000000 0.236354 0.600952 -0.000000 0.799285
0.990593 2.000000 0.326685 0.600952 -0.000000 0.799285
1.567340 0.000000 -0.042371 0.275273 0.000000 -0.961366
1.394299 0.000000 -0.091919 0.275273 0.000000 -0.961366
1.394299 2.000000 -0.091918 0.275273 0.000000 -0.961366
1.567340 2.000000 -0.042370 0.275273 0.000000 -0.961366
-1.224269 -0.000000 1.191942 -0.223071 -0.000000 0.974802
-0.979720 -0.000001 1.247904 -0.223071 -0.000000 0.974802
-0.979720 2.000000 1.247905 -0.223071 -0.000000 0.974802
-1.224269 2.000000 1.191943 -0.223071 -0.000000 0.974802
-0.248097 0.000000 -1.194964 0.195112 0.000000 -0.980781
-0.481589 0.000001 -1.241413 0.195112 0.000000 -0.980781
-0.481589 2.000000 -1.241413 0.195112 0.000000 -0.980781
-0.248097 2.000000 -1.194963 0.195112 0.000000 -0.980781
1.110737 -0.000000 0.236353 0.510856 -0.000000 0.859666
1.243702 -0.000000 0.157338 0.510856 -0.000000 0.859666
1.243702 2.000000 0.157339 0.510856 -0.000000 0.859666
1.110737 2.000000 0.236354 0.510856 -0.000000 0.859666
1.767637 0.000000 -0.021945 0.101455 0.000000 -0.994840
1.567340 0.000000 -0.042371 0.101455 0.000000 -0.994840
1.567340 2.000000 -0.042370 0.101455 0.000000 -0.994840
1.767637 2.000000 -0.021944 0.101455 0.000000 -0.994840
-0.979720 -0.000001 1.247904 -0.055009 -0.000000 0.998486
-0.728812 -0.000001 1.261727 -0.055009 -0.000000 0.998486
-0.728812 2.000000 1.261728 -0.055009 -0.000000 0.998486
-0.979720 2.000000 1.247905 -0.055009 -0.000000 0.998486
0.769521 0.050751 0.532191 -0.000000 1.000000 0.000000
0.876618 0.050751 0.427849 -0.000000 1.000000 0.000000
0.788559 0.050751 0.324622 -0.000000 1.000000 0.000000
0.196286 0.050751 0.829865 -0.000000 1.000000 0.000000
0.302090 0.050751 0.953894 -0.000000 1.000000 0.000000
0.302090 0.050751 0.953894 0.000000 1.000000 0.000001
0.413787 0.050751 0.868401 0.000000 1.000000 0.000001
0.541997 0.050751 0.755641 0.000000 1.000000 0.000001
0.658972 0.050751 0.642812 0.000000 1.000000 0.000001
0.769521 0.050751 0.532191 0.000000 1.000000 0.000001
0.541997 0.050751 0.755641 0.000000 1.000000 0.000000
0.876618 0.829248 0.427850 -0.760790 -0.000000 0.648998
0.788559 0.829248 0.324623 -0.760790 -0.000000 0.648998
0.788559 0.050751 0.324622 -0.760790 -0.000000 0.648998
0.876618 0.050751 0.427849 -0.760790 -0.000000 0.648998
0.658972 0.829248 0.642812 0.707333 -0.000000 0.706880
0.769521 0.829248 0.532192 0.707333 -0.000000 0.706880
0.769521 2.000000 0.532192 0.707333 -0.000000 0.706880
0.658972 2.000000 0.642813 0.707333 -0.000000 0.706880
0.541997 0.829248 0.755642 0.694239 -0.000000 0.719745
0.658972 0.829248 0.642812 0.694239 -0.000000 0.719745
0.658972 2.000000 0.642813 0.694239 -0.000000 0.719745
0.541997 2.000000 0.755642 0.694239 -0.000000 0.719745
0.413787 0.829248 0.868402 -0.000000 -1.000000 0.000001
0.302090 0.829248 0.953894 -0.000000 -1.000000 0.000001
0.196286 0.829248 0.829866 -0.000000 -1.000000 0.000001
0.196286 0.829248 0.829866 0.000000 -1.000000 -0.000000
0.788559 0.829248 0.324623 0.000000 -1.000000 -0.000000
0.876618 0.829248 0.427850 0.000000 -1.000000 -0.000000
0.769521 0.829248 0.532192 -0.000015 -1.000000 -0.000016
0.658972 0.829248 0.642812 -0.000015 -1.000000 -0.000016
0.541997 0.829248 0.755642 -0.000015 -1.000000 -0.000016
0.196286 0.829248 0.829866 0.000001 -1.000000 0.000001
0.876618 0.829248 0.427850 0.000001 -1.000000 0.000001
0.769521 0.829248 0.532192 0.000001 -1.000000 0.000001
0.541997 0.829248 0.755642 0.000000 -1.000000 -0.000000
0.413787 0.829248 0.868402 0.000000 -1.000000 -0.000000
0.196286 0.829248 0.829866 0.000000 -1.000000 -0.000001
0.769521 0.829248 0.532192 0.000000 -1.000000 -0.000001
0.541997 0.829248 0.755642 0.000000 -1.000000 -0.000001
0.413787 0.829248 0.868402 0.660414 -0.000000 0.750902
0.541997 0.829248 0.755642 0.660414 -0.000000 0.750902
0.541997 2.000000 0.755642 0.660414 -0.000000 0.750902
0.413787 2.000000 0.868402 0.660414 -0.000000 0.750902
0.196286 0.829248 0.829866 0.760790 0.000000 -0.648998
0.302090 0.829248 0.953894 0.760790 0.000000 -0.648998
0.302090 0.050751 0.953894 0.760790 0.000000 -0.648998
0.196286 0.050751 0.829865 0.760790 0.000000 -0.648998
1.767637 2.000000 0.021946 0.000000 1.000000 -0.000000
2.000000 2.000000 0.000001 0.000000 1.000000 -0.000000
1.767637 2.000000 -0.021944 0.000000 1.000000 -0.000000
1.567340 2.000000 -0.042370 0.000000 1.000000 0.000000
1.567340 2.000000 0.042372 0.000000 1.000000 -0.000000
1.394299 2.000000 -0.091918 0.000000 1.000000 0.000000
1.394299 2.000000 0.091920 0.000000 1.000000 -0.000000
1.243702 2.000000 -0.157338 0.000000 1.000000 0.000000
1.243702 2.000000 0.157339 0.000000 1.000000 -0.000000
1.110737 2.000000 -0.236352 0.000000 1.000000 0.000000
1.110737 2.000000 0.236354 -0.000001 1.000000 0.000000
1.243702 2.000000 0.157339 -0.000001 1.000000 0.000000
1.110737 2.000000 -0.236352 -0.000001 1.000000 0.000000
1.110737 2.000000 0.236354 -0.000000 1.000000 0.000000
0.990593 2.000000 -0.326684 -0.000000 1.000000 0.000000
0.990593 2.000000 0.326685 0.000000 1.000000 0.000000
0.990593 2.000000 0.326685 0.000002 1.000000 0.000000
0.990593 2.000000 -0.326684 0.000002 1.000000 0.000000
0.878458 2.000000 -0.426056 0.000002 1.000000 0.000000
0.878458 2.000000 0.426057 -0.000001 1.000000 0.000001
0.990593 2.000000 0.326685 -0.000001 1.000000 0.000001
0.878458 2.000000 -0.426056 -0.000001 1.000000 0.000001
0.769521 2.000000 -0.532191 -0.000009 1.000000 0.000010
0.541997 2.000000 -0.755640 -0.000009 1.000000 0.000010
0.413787 2.000000 -0.868401 -0.000009 1.000000 0.000010
0.769521 2.000000 -0.532191 -0.000001 1.000000 0.000001
0.541997 2.000000 0.755642 0.000001 1.000000 0.000002
0.658972 2.000000 0.642813 0.000001 1.000000 0.000002
0.769521 2.000000 0.532192 0.000001 1.000000 0.000002
0.769521 2.000000 0.532192 0.000001 1.000000 0.000000
0.878458 2.000000 0.426057 0.000001 1.000000 0.000000
0.769521 2.000000 -0.532191 0.000001 1.000000 0.000000
0.769521 2.000000 -0.532191 -0.000003 1.000000 0.000004
0.413787 2.000000 -0.868401 -0.000003 1.000000 0.000004
0.269529 2.000000 -0.978815 -0.000003 1.000000 0.000004
0.269529 2.000000 -0.978815 0.000010 1.000000 -0.000020
0.137507 2.000000 -1.055663 0.000010 1.000000 -0.000020
-0.038383 2.000000 -1.130379 0.000010 1.000000 -0.000020
-0.038383 2.000000 -1.130379 0.000000 1.000000 0.000000
-0.248097 2.000000 -1.194963 0.000000 1.000000 0.000000
-0.481589 2.000000 -1.241413 0.000000 1.000000 0.000000
-0.728812 2.000000 -1.261726 -0.000000 1.000000 0.000000
-0.979720 2.000000 -1.247903 -0.000000 1.000000 0.000000
-0.979720 2.000000 -1.247903 0.000001 1.000000 0.000004
-1.224269 2.000000 -1.191942 0.000001 1.000000 0.000004
-1.452411 2.000000 -1.085840 0.000001 1.000000 0.000004
-1.452411 2.000000 -1.085840 0.000003 1.000000 0.000002
-1.654101 2.000000 -0.921596 0.000003 1.000000 0.000002
-1.819293 2.000000 -0.691209 0.000003 1.000000 0.000002
-1.819293 2.000000 -0.691209 -0.000001 1.000000 0.000001
-1.937941 2.000000 -0.386677 -0.000001 1.000000 0.000001
-2.000000 2.000000 0.000001 -0.000001 1.000000 0.000001
-1.937941 2.000000 0.386679 -0.000001 1.000000 0.000001
-1.819293 2.000000 0.691211 -0.000001 1.000000 0.000001
-1.654101 2.000000 0.921598 -0.000001 1.000000 0.000001
-1.452411 2.000000 1.085841 -0.000001 1.000000 0.000001
-1.452411 2.000000 1.085841 0.000000 1.000000 0.000000
-1.224269 2.000000 1.191943 0.000000 1.000000 0.000000
-0.979720 2.000000 1.247905 0.000000 1.000000 0.000000
-0.728812 2.000000 1.261728 0.000000 1.000000 0.000000
-0.481589 2.000000 1.241414 0.000000 1.000000 0.000000
-0.248097 2.000000 1.194965 0.000000 1.000000 0.000000
-0.038383 2.000000 1.130381 0.000000 1.000000 0.000000
0.137507 2.000000 1.055665 0.000000 1.000000 0.000000
0.269529 2.000000 0.978817 0.000000 1.000000 0.000000
0.269529 2.000000 0.978817 -0.000006 1.000000 -0.000007
0.413787 2.000000 0.868402 -0.000006 1.000000 -0.000007
0.541997 2.000000 0.755642 -0.000006 1.000000 -0.000007
0.541997 2.000000 0.755642 -0.000001 1.000000 0.000000
0.769521 2.000000 0.532192 -0.000001 1.000000 0.000000
0.769521 2.000000 -0.532191 -0.000001 1.000000 0.000000
0.269529 2.000000 -0.978815 -0.000001 1.000000 0.000001
-0.038383 2.000000 -1.130379 -0.000001 1.000000 0.000001
-0.979720 2.000000 -1.247903 -0.000001 1.000000 -0.000002
-1.452411 2.000000 -1.085840 -0.000001 1.000000 -0.000002
-1.819293 2.000000 -0.691209 -0.000001 1.000000 -0.000002
-1.819293 2.000000 -0.691209 -0.000000 1.000000 0.000001
-2.000000 2.000000 0.000001 -0.000000 1.000000 0.000001
-1.819293 2.000000 0.691211 -0.000000 1.000000 0.000001
-1.819293 2.000000 0.691211 -0.000000 1.000000 0.000000
-0.038383 2.000000 1.130381 0.000001 1.000000 0.000001
0.269529 2.000000 0.978817 0.000001 1.000000 0.000001
0.541997 2.000000 0.755642 0.000001 1.000000 0.000001
0.541997 2.000000 0.755642 -0.000000 1.000000 0.000000
0.769521 2.000000 -0.532191 -0.000000 1.000000 0.000000
-1.819293 2.000000 -0.691209 -0.000000 1.000000 0.000000
-0.979720 2.000000 1.247905 -0.000000 1.000000 0.000001
0.769521 0.000000 -0.532191 0.700690 0.000000 -0.713466
0.541997 0.000000 -0.755641 0.700690 0.000000 -0.713466
0.541997 2.000000 -0.755640 0.700690 0.000000 -0.713466
0.769521 2.000000 -0.532191 0.700690 0.000000 -0.713466
4 0 1 2 3
3 4 5 6
3 6 7 8
3 9 10 11
3 12 13 14
3 14 15 16
3 16 17 18
3 19 20 21
3 22 23 24
3 25 26 27
3 16 18 22
3 12 14 16
3 28 29 30
3 31 32 28
3 33 34 35
3 36 37 33
3 38 39 36
3 40 41 38
3 42 43 44
3 45 46 47
3 48 49 50
3 51 40 38
3 38 36 33
3 52 31 28
3 6 12 16
3 53 54 55
3 16 56 57
3 33 6 16
3 51 38 33
3 58 59 60
3 61 62 52
3 33 16 57
3 52 63 64
3 65 61 52
3 66 67 33
3 33 68 69
3 52 70 71
3 72 73 52
3 74 75 76
3 33 77 78
3 33 78 79
3 80 52 81
3 82 83 84
3 85 79 82
3 82 84 86
3 87 88 89
4 90 91 92 93
4 94 95 96 97
4 98 99 100 101
4 102 103 104 105
4 106 107 108 109
4 110 111 112 113
4 114 115 116 117
4 118 119 120 121
4 122 123 124 125
4 126 127 128 129
4 130 131 132 133
4 134 135 136 137
4 138 139 140 141
4 142 143 144 145
4 146 147 148 149
4 150 151 152 153
4 154 155 156 157
3 158 159 160
3 161 162 163
3 164 165 166
3 167 168 169
3 170 164 166
3 171 172 173
4 174 175 176 177
4 178 179 180 181
4 182 183 184 185
4 186 187 188 189
4 190 191 192 193
4 194 195 196 197
4 198 199 200 201
4 202 203 204 205
4 206 207 208 209
4 210 211 212 213
4 214 215 216 217
4 218 219 220 221
4 222 223 224 225
3 226 227 228
3 229 230 231
3 232 233 234
3 235 226 228
3 236 237 238
3 239 240 241
4 242 243 244 245
4 246 247 248 249
4 250 251 252 253
4 254 255 256 257
4 258 259 260 261
4 262 263 264 265
4 266 267 268 269
4 270 271 272 273
4 274 275 276 277
4 278 279 280 281
4 282 283 284 285
4 286 287 288 289
4 290 291 292 293
4 294 295 296 297
3 298 299 300
3 300 301 302
3 303 304 305
3 305 306 307
3 298 300 302
3 302 308 298
4 309 310 311 312
4 313 314 315 316
4 317 318 319 320
3 321 322 323
3 324 325 326
3 327 328 329
3 330 331 332
3 333 334 324
3 335 336 337
4 338 339 340 341
4 342 343 344 345
3 346 347 348
3 346 348 349
3 350 346 349
3 350 349 351
3 352 350 351
3 352 351 353
3 354 352 353
3 354 353 355
3 356 357 358
3 359 355 360
3 361 359 360
3 362 363 364
3 365 366 367
3 368 369 370
3 365 367 371
3 372 373 374
3 375 376 377
3 378 379 380
3 381 382 383
3 384 385 386
3 386 387 388
3 389 390 391
3 392 393 394
3 395 396 397
3 397 398 399
3 399 400 401
3 402 403 404
3 404 405 406
3 406 407 408
3 408 409 410
3 411 412 413
3 414 415 416
3 371 417 418
3 384 386 388
3 419 420 421
3 422 423 424
3 425 402 404
3 404 406 408
3 426 427 428
3 429 430 384
3 384 388 431
3 422 424 432
3 404 408 429
3 429 384 431
3 431 404 429
4 433 434 435 436
