ply
format ascii 1.0
comment Created by Blender 2.79 (sub 0) - www.blender.org, source file: 'untitled2.blend'
element vertex 557
property float x
property float y
property float z
property float nx
property float ny
property float nz
element face 254
property list uchar uint vertex_indices
end_header
0.500000 4.000000 0.500000 0.000000 -1.000000 0.000000
0.250000 4.000000 0.500000 0.000000 -1.000000 0.000000
0.225000 4.000000 0.450000 0.000000 -1.000000 0.000000
0.450000 4.000000 0.450000 0.000000 -1.000000 0.000000
0.000000 1.000000 -0.875000 0.000000 1.000000 0.000000
-0.437500 1.000000 -0.875000 0.000000 1.000000 0.000000
-0.393750 1.000000 -0.787500 0.000000 1.000000 0.000000
0.000000 1.000000 -0.787500 0.000000 1.000000 0.000000
0.375000 5.000000 -0.187500 -0.000000 1.000000 0.000000
0.375000 5.000000 -0.375000 -0.000000 1.000000 0.000000
0.337500 5.000000 -0.337500 -0.000000 1.000000 0.000000
0.337500 5.000000 -0.168750 -0.000000 1.000000 0.000000
0.437500 1.000000 -0.875000 0.000000 1.000000 0.000000
0.393750 1.000000 -0.787500 0.000000 1.000000 0.000000
-1.000000 -0.000000 -0.500000 0.000000 -1.000000 0.000001
-1.000000 -0.000000 -1.000000 0.000000 -1.000000 0.000001
-0.500000 -0.000000 -1.000000 0.000000 -1.000000 0.000001
0.000000 -0.000000 -1.000000 0.000000 0.000000 0.000000
0.500000 -0.000000 -1.000000 0.000000 0.000000 0.000000
1.000000 -0.000000 -1.000000 0.000000 0.000000 0.000000
0.000000 -0.000000 -1.000000 0.000000 -1.000000 0.000001
-1.000000 0.000000 1.000000 1.000000 0.000000 0.000000
-1.000000 0.000000 0.500000 1.000000 0.000000 0.000000
-1.000000 -0.000000 -0.000000 1.000000 0.000000 0.000000
-1.000000 -0.000000 -0.000000 -0.000000 -1.000000 0.000000
-1.000000 -0.000000 -0.500000 -0.000000 -1.000000 0.000000
0.000000 -0.000000 -1.000000 -0.000000 -1.000000 0.000000
1.000000 -0.000000 -1.000000 0.000000 -1.000000 0.000001
1.000000 -0.000000 -0.500000 0.000000 -1.000000 0.000001
1.000000 -0.000000 -0.500000 1.000000 0.000000 0.000000
1.000000 -0.000000 -0.000000 1.000000 0.000000 0.000000
1.000000 0.000000 0.500000 1.000000 0.000000 0.000000
1.000000 0.000000 0.500000 0.000000 -1.000000 0.000001
1.000000 0.000000 1.000000 0.000000 -1.000000 0.000001
0.500000 0.000000 1.000000 0.000000 -1.000000 0.000001
0.000000 0.000000 1.000000 0.000000 0.000000 0.000000
-0.500000 0.000000 1.000000 0.000000 0.000000 0.000000
-1.000000 0.000000 1.000000 0.000000 0.000000 0.000000
0.000000 0.000000 1.000000 0.000000 -1.000000 0.000001
1.000000 -0.000000 -0.500000 0.000000 -1.000000 0.000000
1.000000 0.000000 0.500000 0.000000 -1.000000 0.000000
-1.000000 0.000000 1.000000 -0.000000 -1.000000 0.000000
-1.000000 0.000000 1.000000 0.000000 -1.000000 0.000001
-0.250000 6.000000 -0.250000 0.000000 -1.000000 -0.000000
-0.125000 6.000000 -0.250000 0.000000 -1.000000 -0.000000
-0.112500 6.000000 -0.225000 0.000000 -1.000000 -0.000000
-0.225000 6.000000 -0.225000 0.000000 -1.000000 -0.000000
0.375000 5.000000 -0.000000 -0.000000 1.000000 0.000000
0.337500 5.000000 -0.000000 -0.000000 1.000000 0.000000
0.250000 6.000000 -0.125000 0.000000 -1.000000 0.000000
0.250000 6.000000 -0.000000 0.000000 -1.000000 0.000000
0.225000 6.000000 -0.000000 0.000000 -1.000000 0.000000
0.225000 6.000000 -0.112500 0.000000 -1.000000 0.000000
0.875000 1.000000 -0.875000 0.000000 1.000000 0.000000
0.787500 1.000000 -0.787500 0.000000 1.000000 0.000000
-0.750000 2.000000 -0.750000 0.000000 -1.000000 -0.000000
-0.375000 2.000000 -0.750000 0.000000 -1.000000 -0.000000
-0.337500 2.000000 -0.675000 0.000000 -1.000000 -0.000000
-0.675000 2.000000 -0.675000 0.000000 -1.000000 -0.000000
0.250000 6.000000 0.250000 0.992278 0.124035 0.000000
0.250000 6.000000 0.125000 0.992278 0.124035 0.000000
0.125000 7.000000 0.062500 0.992278 0.124035 0.000000
0.125000 7.000000 0.125000 0.992278 0.124035 0.000000
0.375000 5.000000 0.187500 -0.000000 1.000000 0.000000
0.337500 5.000000 0.168750 -0.000000 1.000000 0.000000
0.375000 5.000000 -0.375000 0.992278 0.124035 0.000000
0.375000 5.000000 -0.187500 0.992278 0.124035 0.000000
0.500000 4.000000 -0.250000 0.992278 0.124035 0.000000
0.500000 4.000000 -0.500000 0.992278 0.124035 0.000000
0.625000 3.000000 -0.625000 0.992278 0.124035 -0.000000
0.625000 3.000000 -0.312500 0.992278 0.124035 -0.000000
0.750000 2.000000 -0.375000 0.992278 0.124035 -0.000000
0.750000 2.000000 -0.750000 0.992278 0.124035 -0.000000
-0.500000 4.000000 -0.500000 0.000000 -1.000000 -0.000000
-0.250000 4.000000 -0.500000 0.000000 -1.000000 -0.000000
-0.225000 4.000000 -0.450000 0.000000 -1.000000 -0.000000
-0.450000 4.000000 -0.450000 0.000000 -1.000000 -0.000000
-0.375000 5.000000 0.375000 0.000000 1.000000 -0.000000
-0.187500 5.000000 0.375000 0.000000 1.000000 -0.000000
-0.168750 5.000000 0.337500 0.000000 1.000000 -0.000000
-0.337500 5.000000 0.337500 0.000000 1.000000 -0.000000
0.625000 3.000000 -0.000000 0.992278 0.124035 0.000000
0.625000 3.000000 0.312500 0.992278 0.124035 0.000000
0.750000 2.000000 0.375000 0.992278 0.124035 0.000000
0.750000 2.000000 -0.000000 0.992278 0.124035 0.000000
0.250000 6.000000 -0.000000 0.992278 0.124035 0.000000
0.250000 6.000000 -0.125000 0.992278 0.124035 0.000000
0.125000 7.000000 -0.062500 0.992278 0.124035 0.000000
0.125000 7.000000 -0.000000 0.992278 0.124035 0.000000
0.500000 4.000000 -0.250000 0.000000 -1.000000 0.000000
0.500000 4.000000 -0.000000 0.000000 -1.000000 0.000000
0.450000 4.000000 -0.000000 0.000000 -1.000000 0.000000
0.450000 4.000000 -0.225000 0.000000 -1.000000 0.000000
0.000000 5.000000 0.375000 0.000000 1.000000 -0.000000
0.000000 5.000000 0.337500 0.000000 1.000000 -0.000000
-0.250000 6.000000 0.125000 -0.000000 -1.000000 0.000000
-0.250000 6.000000 -0.000000 -0.000000 -1.000000 0.000000
-0.225000 6.000000 -0.000000 -0.000000 -1.000000 0.000000
-0.225000 6.000000 0.112500 -0.000000 -1.000000 0.000000
0.187500 5.000000 0.375000 0.000000 1.000000 -0.000000
0.375000 5.000000 0.375000 0.000000 1.000000 -0.000000
0.337500 5.000000 0.337500 0.000000 1.000000 -0.000000
0.168750 5.000000 0.337500 0.000000 1.000000 -0.000000
0.750000 2.000000 -0.375000 0.000000 -1.000000 0.000000
0.750000 2.000000 -0.000000 0.000000 -1.000000 0.000000
0.675000 2.000000 -0.000000 0.000000 -1.000000 0.000000
0.675000 2.000000 -0.337500 0.000000 -1.000000 0.000000
-0.250000 6.000000 0.250000 0.000000 0.124035 0.992278
-0.125000 6.000000 0.250000 0.000000 0.124035 0.992278
-0.062500 7.000000 0.125000 0.000000 0.124035 0.992278
-0.125000 7.000000 0.125000 0.000000 0.124035 0.992278
0.125000 7.000000 -0.125000 0.000000 1.000000 0.000000
0.062500 7.000000 -0.125000 0.000000 1.000000 0.000000
0.056250 7.000000 -0.112500 0.000000 1.000000 0.000000
0.112500 7.000000 -0.112500 0.000000 1.000000 0.000000
0.000000 5.000000 0.375000 0.000000 0.124035 0.992278
-0.187500 5.000000 0.375000 0.000000 0.124035 0.992278
-0.250000 4.000000 0.500000 0.000000 0.124035 0.992278
0.000000 4.000000 0.500000 0.000000 0.124035 0.992278
0.000000 3.000000 0.625000 0.000000 0.124035 0.992278
-0.312500 3.000000 0.625000 0.000000 0.124035 0.992278
-0.375000 2.000000 0.750000 0.000000 0.124035 0.992278
0.000000 2.000000 0.750000 0.000000 0.124035 0.992278
0.375000 2.000000 0.750000 0.000000 0.124035 0.992278
0.312500 3.000000 0.625000 0.000000 0.124035 0.992278
0.750000 2.000000 0.750000 0.000000 0.124035 0.992278
0.625000 3.000000 0.625000 0.000000 0.124035 0.992278
0.125000 6.000000 0.250000 0.000000 0.124035 0.992278
0.250000 6.000000 0.250000 0.000000 0.124035 0.992278
0.125000 7.000000 0.125000 0.000000 0.124035 0.992278
0.062500 7.000000 0.125000 0.000000 0.124035 0.992278
0.000000 7.000000 0.125000 0.000000 0.124035 0.992278
0.000000 6.000000 0.250000 0.000000 0.124035 0.992278
0.187500 5.000000 0.375000 0.000000 0.124035 0.992278
0.250000 4.000000 0.500000 0.000000 0.124035 0.992278
-0.500000 4.000000 0.250000 -0.000000 -1.000000 0.000000
-0.500000 4.000000 -0.000000 -0.000000 -1.000000 0.000000
-0.450000 4.000000 -0.000000 -0.000000 -1.000000 0.000000
-0.450000 4.000000 0.225000 -0.000000 -1.000000 0.000000
-0.125000 7.000000 -0.062500 0.000000 1.000000 0.000000
-0.125000 7.000000 -0.000000 0.000000 1.000000 0.000000
-0.112500 7.000000 -0.000000 0.000000 1.000000 0.000000
-0.112500 7.000000 -0.056250 0.000000 1.000000 0.000000
-0.375000 5.000000 -0.375000 0.000000 1.000000 0.000000
-0.375000 5.000000 -0.187500 0.000000 1.000000 0.000000
-0.337500 5.000000 -0.168750 0.000000 1.000000 0.000000
-0.337500 5.000000 -0.337500 0.000000 1.000000 0.000000
0.125000 7.000000 0.125000 -0.000000 1.000000 0.000000
0.125000 7.000000 0.062500 -0.000000 1.000000 0.000000
0.112500 7.000000 0.056250 -0.000000 1.000000 0.000000
0.112500 7.000000 0.112500 -0.000000 1.000000 0.000000
-0.375000 5.000000 0.187500 0.000000 1.000000 0.000000
-0.337500 5.000000 0.168750 0.000000 1.000000 0.000000
-0.250000 6.000000 -0.250000 -0.992278 0.124035 0.000000
-0.250000 6.000000 -0.125000 -0.992278 0.124035 0.000000
-0.125000 7.000000 -0.062500 -0.992278 0.124035 0.000000
-0.125000 7.000000 -0.125000 -0.992278 0.124035 0.000000
0.750000 2.000000 0.375000 0.000000 -1.000000 0.000000
0.750000 2.000000 0.750000 0.000000 -1.000000 0.000000
0.675000 2.000000 0.675000 0.000000 -1.000000 0.000000
0.675000 2.000000 0.337500 0.000000 -1.000000 0.000000
-0.375000 5.000000 0.375000 -0.992278 0.124035 0.000000
-0.375000 5.000000 0.187500 -0.992278 0.124035 0.000000
-0.500000 4.000000 0.250000 -0.992278 0.124035 0.000000
-0.500000 4.000000 0.500000 -0.992278 0.124035 0.000000
-0.625000 3.000000 0.625000 -0.992278 0.124035 0.000000
-0.625000 3.000000 0.312500 -0.992278 0.124035 0.000000
-0.750000 2.000000 0.375000 -0.992278 0.124035 0.000000
-0.750000 2.000000 0.750000 -0.992278 0.124035 0.000000
-0.750000 2.000000 0.375000 -0.000000 -1.000000 0.000000
-0.750000 2.000000 -0.000000 -0.000000 -1.000000 0.000000
-0.675000 2.000000 -0.000000 -0.000000 -1.000000 0.000000
-0.675000 2.000000 0.337500 -0.000000 -1.000000 0.000000
-0.125000 7.000000 0.062500 0.000000 1.000000 0.000000
-0.125000 7.000000 0.125000 0.000000 1.000000 0.000000
-0.112500 7.000000 0.112500 0.000000 1.000000 0.000000
-0.112500 7.000000 0.056250 0.000000 1.000000 0.000000
-0.625000 3.000000 -0.000000 -0.992278 0.124035 0.000000
-0.625000 3.000000 -0.312500 -0.992278 0.124035 0.000000
-0.750000 2.000000 -0.375000 -0.992278 0.124035 0.000000
-0.750000 2.000000 -0.000000 -0.992278 0.124035 0.000000
-0.250000 6.000000 -0.000000 -0.992278 0.124035 0.000000
-0.250000 6.000000 0.125000 -0.992278 0.124035 0.000000
-0.125000 7.000000 0.062500 -0.992278 0.124035 0.000000
-0.125000 7.000000 -0.000000 -0.992278 0.124035 0.000000
-0.375000 5.000000 -0.000000 0.000000 1.000000 0.000000
-0.337500 5.000000 -0.000000 0.000000 1.000000 0.000000
0.125000 7.000000 -0.000000 -0.000000 1.000000 0.000000
0.112500 7.000000 -0.000000 -0.000000 1.000000 0.000000
0.500000 4.000000 0.250000 0.000000 -1.000000 0.000000
0.450000 4.000000 0.225000 0.000000 -1.000000 0.000000
0.000000 7.000000 0.125000 0.000000 1.000000 -0.000000
0.062500 7.000000 0.125000 0.000000 1.000000 -0.000000
0.056250 7.000000 0.112500 0.000000 1.000000 -0.000000
0.000000 7.000000 0.112500 0.000000 1.000000 -0.000000
0.250000 6.000000 -0.250000 0.000000 0.124035 -0.992278
0.125000 6.000000 -0.250000 0.000000 0.124035 -0.992278
0.062500 7.000000 -0.125000 0.000000 0.124035 -0.992278
0.125000 7.000000 -0.125000 0.000000 0.124035 -0.992278
0.187500 5.000000 -0.375000 0.000000 1.000000 0.000000
0.168750 5.000000 -0.337500 0.000000 1.000000 0.000000
0.000000 5.000000 -0.375000 0.000000 0.124035 -0.992278
0.187500 5.000000 -0.375000 0.000000 0.124035 -0.992278
0.250000 4.000000 -0.500000 0.000000 0.124035 -0.992278
0.000000 4.000000 -0.500000 0.000000 0.124035 -0.992278
0.000000 3.000000 -0.625000 0.000000 0.124035 -0.992278
0.312500 3.000000 -0.625000 0.000000 0.124035 -0.992278
0.375000 2.000000 -0.750000 0.000000 0.124035 -0.992278
0.000000 2.000000 -0.750000 0.000000 0.124035 -0.992278
-0.375000 2.000000 -0.750000 0.000000 0.124035 -0.992278
-0.312500 3.000000 -0.625000 0.000000 0.124035 -0.992278
-0.750000 2.000000 -0.750000 0.000000 0.124035 -0.992278
-0.625000 3.000000 -0.625000 0.000000 0.124035 -0.992278
-0.750000 2.000000 -0.375000 -0.000000 -1.000000 0.000000
-0.675000 2.000000 -0.337500 -0.000000 -1.000000 0.000000
-0.125000 6.000000 -0.250000 0.000000 0.124035 -0.992278
-0.250000 6.000000 -0.250000 0.000000 0.124035 -0.992278
-0.125000 7.000000 -0.125000 0.000000 0.124035 -0.992278
-0.062500 7.000000 -0.125000 0.000000 0.124035 -0.992278
0.000000 7.000000 -0.125000 0.000000 0.124035 -0.992278
0.000000 6.000000 -0.250000 0.000000 0.124035 -0.992278
-0.187500 5.000000 -0.375000 0.000000 0.124035 -0.992278
-0.250000 4.000000 -0.500000 0.000000 0.124035 -0.992278
-0.062500 7.000000 0.125000 0.000000 1.000000 -0.000000
-0.056250 7.000000 0.112500 0.000000 1.000000 -0.000000
-0.500000 4.000000 -0.500000 0.000000 0.124035 -0.992278
-0.375000 5.000000 -0.375000 0.000000 0.124035 -0.992278
0.000000 5.000000 -0.375000 0.000000 1.000000 0.000000
0.000000 5.000000 -0.337500 0.000000 1.000000 0.000000
0.500000 4.000000 -0.500000 0.000000 0.124035 -0.992278
0.375000 5.000000 -0.375000 0.000000 0.124035 -0.992278
-0.500000 4.000000 -0.000000 -0.992278 0.124035 0.000000
-0.375000 5.000000 -0.000000 -0.992278 0.124035 0.000000
-0.375000 5.000000 -0.187500 -0.992278 0.124035 0.000000
-0.500000 4.000000 -0.250000 -0.992278 0.124035 0.000000
0.250000 6.000000 0.125000 0.000000 -1.000000 0.000000
0.250000 6.000000 0.250000 0.000000 -1.000000 0.000000
0.225000 6.000000 0.225000 0.000000 -1.000000 0.000000
0.225000 6.000000 0.112500 0.000000 -1.000000 0.000000
-0.500000 4.000000 -0.500000 -0.992278 0.124035 0.000000
-0.375000 5.000000 -0.375000 -0.992278 0.124035 0.000000
-0.062500 7.000000 -0.125000 0.000000 1.000000 0.000000
-0.125000 7.000000 -0.125000 0.000000 1.000000 0.000000
-0.112500 7.000000 -0.112500 0.000000 1.000000 0.000000
-0.056250 7.000000 -0.112500 0.000000 1.000000 0.000000
0.500000 4.000000 0.500000 0.000000 0.124035 0.992278
0.375000 5.000000 0.375000 0.000000 0.124035 0.992278
-0.187500 5.000000 -0.375000 0.000000 1.000000 0.000000
-0.168750 5.000000 -0.337500 0.000000 1.000000 0.000000
-0.500000 4.000000 0.500000 0.000000 0.124035 0.992278
-0.375000 5.000000 0.375000 0.000000 0.124035 0.992278
0.500000 4.000000 -0.000000 0.992278 0.124035 0.000000
0.375000 5.000000 -0.000000 0.992278 0.124035 0.000000
0.375000 5.000000 0.187500 0.992278 0.124035 0.000000
0.500000 4.000000 0.250000 0.992278 0.124035 0.000000
-0.500000 4.000000 -0.250000 -0.000000 -1.000000 0.000000
-0.450000 4.000000 -0.225000 -0.000000 -1.000000 0.000000
0.500000 4.000000 0.500000 0.992278 0.124035 0.000000
0.375000 5.000000 0.375000 0.992278 0.124035 0.000000
0.000000 7.000000 -0.125000 0.000000 1.000000 0.000000
0.000000 7.000000 -0.112500 0.000000 1.000000 0.000000
0.750000 2.000000 -0.750000 0.000000 0.124035 -0.992278
0.625000 3.000000 -0.625000 0.000000 0.124035 -0.992278
-0.250000 6.000000 -0.125000 -0.000000 -1.000000 0.000000
-0.225000 6.000000 -0.112500 -0.000000 -1.000000 0.000000
0.125000 7.000000 -0.062500 -0.000000 1.000000 0.000000
0.112500 7.000000 -0.056250 -0.000000 1.000000 0.000000
-0.750000 2.000000 -0.750000 -0.992278 0.124035 -0.000000
-0.625000 3.000000 -0.625000 -0.992278 0.124035 -0.000000
-0.750000 2.000000 0.750000 0.000000 0.124035 0.992278
-0.625000 3.000000 0.625000 0.000000 0.124035 0.992278
0.625000 3.000000 0.625000 -0.000000 1.000000 0.000000
0.625000 3.000000 0.312500 -0.000000 1.000000 0.000000
0.562500 3.000000 0.281250 -0.000000 1.000000 0.000000
0.562500 3.000000 0.562500 -0.000000 1.000000 0.000000
0.750000 2.000000 0.750000 0.992278 0.124035 0.000000
0.625000 3.000000 0.625000 0.992278 0.124035 0.000000
0.500000 -0.000000 -1.000000 0.000000 0.124035 -0.992278
0.437500 1.000000 -0.875000 0.000000 0.124035 -0.992278
0.875000 1.000000 -0.875000 0.000000 0.124035 -0.992278
1.000000 -0.000000 -1.000000 0.000000 0.124035 -0.992278
0.000000 -0.000000 -1.000000 0.000000 0.124035 -0.992278
0.000000 1.000000 -0.875000 0.000000 0.124035 -0.992278
-0.500000 -0.000000 -1.000000 0.000000 0.124035 -0.992278
-0.437500 1.000000 -0.875000 0.000000 0.124035 -0.992278
-1.000000 -0.000000 -0.500000 -0.992278 0.124035 -0.000000
-0.875000 1.000000 -0.437500 -0.992278 0.124035 -0.000000
-0.875000 1.000000 -0.875000 -0.992278 0.124035 -0.000000
-1.000000 -0.000000 -1.000000 -0.992278 0.124035 -0.000000
-1.000000 -0.000000 -0.000000 -0.992278 0.124035 0.000000
-0.875000 1.000000 -0.000000 -0.992278 0.124035 0.000000
-1.000000 0.000000 0.500000 -0.992278 0.124035 0.000000
-0.875000 1.000000 0.437500 -0.992278 0.124035 0.000000
-0.875000 1.000000 0.875000 0.000000 0.124035 0.992278
-1.000000 0.000000 1.000000 0.000000 0.124035 0.992278
-0.500000 0.000000 1.000000 0.000000 0.124035 0.992278
-0.437500 1.000000 0.875000 0.000000 0.124035 0.992278
0.000000 0.000000 1.000000 0.000000 0.124035 0.992278
0.000000 1.000000 0.875000 0.000000 0.124035 0.992278
0.500000 0.000000 1.000000 0.000000 0.124035 0.992278
0.437500 1.000000 0.875000 0.000000 0.124035 0.992278
1.000000 0.000000 0.500000 0.992278 0.124035 -0.000000
0.875000 1.000000 0.437500 0.992278 0.124035 -0.000000
0.875000 1.000000 0.875000 0.992278 0.124035 -0.000000
1.000000 0.000000 1.000000 0.992278 0.124035 -0.000000
1.000000 -0.000000 -0.000000 0.992278 0.124035 0.000000
0.875000 1.000000 -0.000000 0.992278 0.124035 0.000000
1.000000 -0.000000 -0.500000 0.992278 0.124035 0.000000
0.875000 1.000000 -0.437500 0.992278 0.124035 0.000000
1.000000 0.000000 1.000000 0.000000 0.124035 0.992278
0.875000 1.000000 0.875000 0.000000 0.124035 0.992278
1.000000 -0.000000 -1.000000 0.992278 0.124035 -0.000000
0.875000 1.000000 -0.875000 0.992278 0.124035 -0.000000
-1.000000 -0.000000 -1.000000 0.000000 0.124035 -0.992278
-0.875000 1.000000 -0.875000 0.000000 0.124035 -0.992278
-1.000000 0.000000 1.000000 -0.992278 0.124035 -0.000000
-0.875000 1.000000 0.875000 -0.992278 0.124035 -0.000000
0.625000 3.000000 -0.312500 -0.000000 1.000000 0.000000
0.625000 3.000000 -0.625000 -0.000000 1.000000 0.000000
0.562500 3.000000 -0.562500 -0.000000 1.000000 0.000000
0.562500 3.000000 -0.281250 -0.000000 1.000000 0.000000
0.625000 3.000000 -0.000000 -0.000000 1.000000 0.000000
0.562500 3.000000 -0.000000 -0.000000 1.000000 0.000000
0.125000 7.000000 -0.125000 0.992278 0.124035 0.000000
0.250000 6.000000 -0.250000 0.992278 0.124035 0.000000
0.250000 6.000000 -0.250000 0.000000 -1.000000 0.000000
0.225000 6.000000 -0.225000 0.000000 -1.000000 0.000000
0.750000 2.000000 -0.750000 0.000000 -1.000000 0.000000
0.675000 2.000000 -0.675000 0.000000 -1.000000 0.000000
-0.125000 7.000000 0.125000 -0.992278 0.124035 0.000000
-0.250000 6.000000 0.250000 -0.992278 0.124035 0.000000
-0.625000 3.000000 0.625000 0.000000 1.000000 -0.000000
-0.312500 3.000000 0.625000 0.000000 1.000000 -0.000000
-0.281250 3.000000 0.562500 0.000000 1.000000 -0.000000
-0.562500 3.000000 0.562500 0.000000 1.000000 -0.000000
0.500000 4.000000 -0.500000 0.000000 -1.000000 0.000000
0.450000 4.000000 -0.450000 0.000000 -1.000000 0.000000
-0.787500 1.000000 0.787500 -0.993731 0.111795 0.000000
-0.675000 2.000000 0.675000 -0.993731 0.111795 0.000000
-0.675000 2.000000 0.337500 -0.993731 0.111795 0.000000
-0.787500 1.000000 0.393750 -0.993731 0.111795 0.000000
-0.787500 1.000000 -0.787500 0.000000 0.111795 -0.993731
-0.675000 2.000000 -0.675000 0.000000 0.111795 -0.993731
-0.337500 2.000000 -0.675000 0.000000 0.111795 -0.993731
-0.393750 1.000000 -0.787500 0.000000 0.111795 -0.993731
0.787500 1.000000 -0.787500 0.993731 0.111795 -0.000000
0.675000 2.000000 -0.675000 0.993731 0.111795 -0.000000
0.675000 2.000000 -0.337500 0.993731 0.111795 -0.000000
0.787500 1.000000 -0.393750 0.993731 0.111795 -0.000000
0.787500 1.000000 0.787500 0.000000 0.111795 0.993731
0.675000 2.000000 0.675000 0.000000 0.111795 0.993731
0.337500 2.000000 0.675000 0.000000 0.111795 0.993731
0.393750 1.000000 0.787500 0.000000 0.111795 0.993731
0.675000 2.000000 -0.000000 0.993731 0.111795 0.000000
0.787500 1.000000 -0.000000 0.993731 0.111795 0.000000
0.675000 2.000000 0.337500 0.993731 0.111795 0.000000
0.787500 1.000000 0.393750 0.993731 0.111795 0.000000
0.675000 2.000000 0.675000 0.993731 0.111795 0.000000
0.787500 1.000000 0.787500 0.993731 0.111795 0.000000
0.562500 3.000000 0.562500 0.993731 0.111795 0.000000
0.562500 3.000000 0.281250 0.993731 0.111795 0.000000
0.450000 4.000000 0.225000 0.993731 0.111795 0.000000
0.450000 4.000000 0.450000 0.993731 0.111795 0.000000
0.337500 5.000000 0.337500 0.993731 0.111795 0.000000
0.337500 5.000000 0.168750 0.993731 0.111795 0.000000
0.225000 6.000000 0.112500 0.993731 0.111795 0.000000
0.225000 6.000000 0.225000 0.993731 0.111795 0.000000
0.000000 8.000000 -0.000000 0.993731 0.111795 -0.000000
0.112500 7.000000 -0.056250 0.993731 0.111795 -0.000000
0.112500 7.000000 -0.112500 0.993731 0.111795 -0.000000
0.337500 5.000000 -0.168750 0.993731 0.111795 0.000000
0.225000 6.000000 -0.112500 0.993731 0.111795 0.000000
0.225000 6.000000 -0.000000 0.993731 0.111795 0.000000
0.337500 5.000000 -0.000000 0.993731 0.111795 0.000000
0.000000 2.000000 0.675000 0.000000 0.111795 0.993731
0.000000 1.000000 0.787500 0.000000 0.111795 0.993731
-0.337500 2.000000 0.675000 0.000000 0.111795 0.993731
-0.393750 1.000000 0.787500 0.000000 0.111795 0.993731
-0.675000 2.000000 0.675000 0.000000 0.111795 0.993731
-0.787500 1.000000 0.787500 0.000000 0.111795 0.993731
-0.562500 3.000000 0.562500 0.000000 0.111795 0.993731
-0.281250 3.000000 0.562500 0.000000 0.111795 0.993731
-0.225000 4.000000 0.450000 0.000000 0.111795 0.993731
-0.450000 4.000000 0.450000 0.000000 0.111795 0.993731
-0.337500 5.000000 0.337500 0.000000 0.111795 0.993731
-0.168750 5.000000 0.337500 0.000000 0.111795 0.993731
-0.112500 6.000000 0.225000 0.000000 0.111795 0.993731
-0.225000 6.000000 0.225000 0.000000 0.111795 0.993731
0.000000 8.000000 -0.000000 0.000000 0.111795 0.993731
-0.056250 7.000000 0.112500 0.000000 0.111795 0.993731
0.000000 7.000000 0.112500 0.000000 0.111795 0.993731
0.337500 5.000000 0.337500 0.000000 0.111795 0.993731
0.225000 6.000000 0.225000 0.000000 0.111795 0.993731
0.112500 6.000000 0.225000 0.000000 0.111795 0.993731
0.168750 5.000000 0.337500 0.000000 0.111795 0.993731
-0.675000 2.000000 -0.000000 -0.993731 0.111795 0.000000
-0.787500 1.000000 -0.000000 -0.993731 0.111795 0.000000
-0.675000 2.000000 -0.337500 -0.993731 0.111795 0.000000
-0.787500 1.000000 -0.393750 -0.993731 0.111795 0.000000
-0.675000 2.000000 -0.675000 -0.993731 0.111795 -0.000000
-0.787500 1.000000 -0.787500 -0.993731 0.111795 -0.000000
-0.562500 3.000000 -0.562500 -0.993731 0.111795 0.000000
-0.562500 3.000000 -0.281250 -0.993731 0.111795 0.000000
-0.450000 4.000000 -0.225000 -0.993731 0.111795 0.000000
-0.450000 4.000000 -0.450000 -0.993731 0.111795 0.000000
-0.337500 5.000000 -0.337500 -0.993731 0.111795 0.000000
-0.337500 5.000000 -0.168750 -0.993731 0.111795 0.000000
-0.225000 6.000000 -0.112500 -0.993731 0.111795 0.000000
-0.225000 6.000000 -0.225000 -0.993731 0.111795 0.000000
0.000000 8.000000 -0.000000 -0.993731 0.111795 0.000000
-0.112500 7.000000 0.056250 -0.993731 0.111795 0.000000
-0.112500 7.000000 0.112500 -0.993731 0.111795 0.000000
-0.337500 5.000000 0.168750 -0.993731 0.111795 0.000000
-0.225000 6.000000 0.112500 -0.993731 0.111795 0.000000
-0.225000 6.000000 -0.000000 -0.993731 0.111795 0.000000
-0.337500 5.000000 -0.000000 -0.993731 0.111795 0.000000
0.000000 2.000000 -0.675000 0.000000 0.111795 -0.993731
0.000000 1.000000 -0.787500 0.000000 0.111795 -0.993731
0.337500 2.000000 -0.675000 0.000000 0.111795 -0.993731
0.393750 1.000000 -0.787500 0.000000 0.111795 -0.993731
0.675000 2.000000 -0.675000 0.000000 0.111795 -0.993731
0.787500 1.000000 -0.787500 0.000000 0.111795 -0.993731
0.562500 3.000000 -0.562500 0.000000 0.111795 -0.993731
0.281250 3.000000 -0.562500 0.000000 0.111795 -0.993731
0.225000 4.000000 -0.450000 0.000000 0.111795 -0.993731
0.450000 4.000000 -0.450000 0.000000 0.111795 -0.993731
0.337500 5.000000 -0.337500 0.000000 0.111795 -0.993731
0.168750 5.000000 -0.337500 0.000000 0.111795 -0.993731
0.112500 6.000000 -0.225000 0.000000 0.111795 -0.993731
0.225000 6.000000 -0.225000 0.000000 0.111795 -0.993731
0.000000 8.000000 -0.000000 0.000000 0.111795 -0.993731
0.056250 7.000000 -0.112500 0.000000 0.111795 -0.993731
0.000000 7.000000 -0.112500 0.000000 0.111795 -0.993731
-0.337500 5.000000 -0.337500 0.000000 0.111795 -0.993731
-0.225000 6.000000 -0.225000 0.000000 0.111795 -0.993731
-0.112500 6.000000 -0.225000 0.000000 0.111795 -0.993731
-0.168750 5.000000 -0.337500 0.000000 0.111795 -0.993731
0.000000 6.000000 -0.225000 0.000000 0.111795 -0.993731
0.000000 5.000000 -0.337500 0.000000 0.111795 -0.993731
-0.225000 6.000000 0.225000 -0.993731 0.111795 0.000000
-0.337500 5.000000 0.337500 -0.993731 0.111795 0.000000
0.000000 6.000000 0.225000 0.000000 0.111795 0.993731
0.000000 5.000000 0.337500 0.000000 0.111795 0.993731
0.225000 6.000000 -0.225000 0.993731 0.111795 0.000000
0.337500 5.000000 -0.337500 0.993731 0.111795 0.000000
-0.225000 4.000000 -0.450000 0.000000 0.111795 -0.993731
-0.281250 3.000000 -0.562500 0.000000 0.111795 -0.993731
-0.562500 3.000000 -0.562500 0.000000 0.111795 -0.993731
-0.450000 4.000000 -0.450000 0.000000 0.111795 -0.993731
0.000000 4.000000 -0.450000 0.000000 0.111795 -0.993731
0.000000 3.000000 -0.562500 0.000000 0.111795 -0.993731
-0.450000 4.000000 -0.000000 -0.993731 0.111795 0.000000
-0.562500 3.000000 -0.000000 -0.993731 0.111795 0.000000
-0.562500 3.000000 0.281250 -0.993731 0.111795 0.000000
-0.450000 4.000000 0.225000 -0.993731 0.111795 0.000000
-0.450000 4.000000 0.450000 -0.993731 0.111795 0.000000
-0.562500 3.000000 0.562500 -0.993731 0.111795 0.000000
0.225000 4.000000 0.450000 0.000000 0.111795 0.993731
0.281250 3.000000 0.562500 0.000000 0.111795 0.993731
0.562500 3.000000 0.562500 0.000000 0.111795 0.993731
0.450000 4.000000 0.450000 0.000000 0.111795 0.993731
0.000000 4.000000 0.450000 0.000000 0.111795 0.993731
0.000000 3.000000 0.562500 0.000000 0.111795 0.993731
0.450000 4.000000 -0.000000 0.993731 0.111795 0.000000
0.562500 3.000000 -0.000000 0.993731 0.111795 0.000000
0.562500 3.000000 -0.281250 0.993731 0.111795 0.000000
0.450000 4.000000 -0.225000 0.993731 0.111795 0.000000
0.450000 4.000000 -0.450000 0.993731 0.111795 0.000000
0.562500 3.000000 -0.562500 0.993731 0.111795 0.000000
0.112500 7.000000 -0.000000 0.993731 0.111795 -0.000000
-0.056250 7.000000 -0.112500 0.000000 0.111795 -0.993731
0.056250 7.000000 0.112500 0.000000 0.111795 0.993731
0.112500 7.000000 0.112500 0.000000 0.111795 0.993731
-0.112500 7.000000 -0.112500 -0.993731 0.111795 0.000000
-0.112500 7.000000 -0.056250 -0.993731 0.111795 0.000000
-0.112500 7.000000 -0.000000 -0.993731 0.111795 0.000000
-0.112500 7.000000 -0.112500 0.000000 0.111795 -0.993731
-0.112500 7.000000 0.112500 0.000000 0.111795 0.993731
0.112500 7.000000 0.056250 0.993731 0.111795 -0.000000
0.112500 7.000000 0.112500 0.993731 0.111795 -0.000000
0.112500 7.000000 -0.112500 0.000000 0.111795 -0.993731
0.000000 6.000000 -0.250000 0.000000 -1.000000 -0.000000
0.125000 6.000000 -0.250000 0.000000 -1.000000 -0.000000
0.112500 6.000000 -0.225000 0.000000 -1.000000 -0.000000
0.000000 6.000000 -0.225000 0.000000 -1.000000 -0.000000
-0.875000 1.000000 -0.875000 0.000000 1.000000 -0.000000
-0.875000 1.000000 -0.437500 0.000000 1.000000 -0.000000
-0.787500 1.000000 -0.393750 0.000000 1.000000 -0.000000
-0.787500 1.000000 -0.787500 0.000000 1.000000 -0.000000
0.375000 2.000000 0.750000 0.000000 -1.000000 0.000000
0.337500 2.000000 0.675000 0.000000 -1.000000 0.000000
-0.875000 1.000000 -0.000000 0.000000 1.000000 0.000000
-0.787500 1.000000 -0.000000 0.000000 1.000000 0.000000
0.125000 6.000000 0.250000 0.000000 -1.000000 0.000000
0.112500 6.000000 0.225000 0.000000 -1.000000 0.000000
0.000000 4.000000 -0.500000 0.000000 -1.000000 -0.000000
0.250000 4.000000 -0.500000 0.000000 -1.000000 -0.000000
0.225000 4.000000 -0.450000 0.000000 -1.000000 -0.000000
0.000000 4.000000 -0.450000 0.000000 -1.000000 -0.000000
-0.875000 1.000000 0.437500 0.000000 1.000000 0.000000
-0.787500 1.000000 0.393750 0.000000 1.000000 0.000000
-0.875000 1.000000 0.875000 0.000000 1.000000 -0.000000
-0.437500 1.000000 0.875000 0.000000 1.000000 -0.000000
-0.393750 1.000000 0.787500 0.000000 1.000000 -0.000000
-0.787500 1.000000 0.787500 0.000000 1.000000 -0.000000
0.000000 6.000000 0.250000 0.000000 -1.000000 0.000000
-0.125000 6.000000 0.250000 0.000000 -1.000000 0.000000
-0.112500 6.000000 0.225000 0.000000 -1.000000 0.000000
0.000000 6.000000 0.225000 0.000000 -1.000000 0.000000
0.000000 2.000000 -0.750000 0.000000 -1.000000 -0.000000
0.375000 2.000000 -0.750000 0.000000 -1.000000 -0.000000
0.337500 2.000000 -0.675000 0.000000 -1.000000 -0.000000
0.000000 2.000000 -0.675000 0.000000 -1.000000 -0.000000
0.000000 1.000000 0.875000 0.000000 1.000000 -0.000000
0.000000 1.000000 0.787500 0.000000 1.000000 -0.000000
0.437500 1.000000 0.875000 0.000000 1.000000 -0.000000
0.393750 1.000000 0.787500 0.000000 1.000000 -0.000000
0.000000 4.000000 0.500000 0.000000 -1.000000 0.000000
-0.250000 4.000000 0.500000 0.000000 -1.000000 0.000000
-0.225000 4.000000 0.450000 0.000000 -1.000000 0.000000
0.000000 4.000000 0.450000 0.000000 -1.000000 0.000000
0.875000 1.000000 0.875000 -0.000000 1.000000 0.000000
0.875000 1.000000 0.437500 -0.000000 1.000000 0.000000
0.787500 1.000000 0.393750 -0.000000 1.000000 0.000000
0.787500 1.000000 0.787500 -0.000000 1.000000 0.000000
0.875000 1.000000 -0.000000 -0.000000 1.000000 0.000000
0.787500 1.000000 -0.000000 -0.000000 1.000000 0.000000
0.000000 2.000000 0.750000 0.000000 -1.000000 0.000000
-0.375000 2.000000 0.750000 0.000000 -1.000000 0.000000
-0.337500 2.000000 0.675000 0.000000 -1.000000 0.000000
0.000000 2.000000 0.675000 0.000000 -1.000000 0.000000
0.875000 1.000000 -0.437500 -0.000000 1.000000 0.000000
0.787500 1.000000 -0.393750 -0.000000 1.000000 0.000000
-0.750000 2.000000 0.750000 0.000000 -1.000000 0.000000
-0.675000 2.000000 0.675000 0.000000 -1.000000 0.000000
-0.500000 4.000000 0.500000 0.000000 -1.000000 0.000000
-0.450000 4.000000 0.450000 0.000000 -1.000000 0.000000
-0.250000 6.000000 0.250000 0.000000 -1.000000 0.000000
-0.225000 6.000000 0.225000 0.000000 -1.000000 0.000000
-0.312500 3.000000 -0.625000 0.000000 1.000000 0.000000
-0.625000 3.000000 -0.625000 0.000000 1.000000 0.000000
-0.562500 3.000000 -0.562500 0.000000 1.000000 0.000000
-0.281250 3.000000 -0.562500 0.000000 1.000000 0.000000
0.000000 3.000000 -0.625000 0.000000 1.000000 0.000000
0.000000 3.000000 -0.562500 0.000000 1.000000 0.000000
0.312500 3.000000 -0.625000 0.000000 1.000000 0.000000
0.281250 3.000000 -0.562500 0.000000 1.000000 0.000000
-0.625000 3.000000 -0.000000 0.000000 1.000000 0.000000
-0.625000 3.000000 0.312500 0.000000 1.000000 0.000000
-0.562500 3.000000 0.281250 0.000000 1.000000 0.000000
-0.562500 3.000000 -0.000000 0.000000 1.000000 0.000000
-0.625000 3.000000 -0.312500 0.000000 1.000000 0.000000
-0.562500 3.000000 -0.281250 0.000000 1.000000 0.000000
0.312500 3.000000 0.625000 0.000000 1.000000 -0.000000
0.281250 3.000000 0.562500 0.000000 1.000000 -0.000000
0.000000 3.000000 0.625000 0.000000 1.000000 -0.000000
0.000000 3.000000 0.562500 0.000000 1.000000 -0.000000
4 0 1 2 3
4 4 5 6 7
4 8 9 10 11
4 12 4 7 13
3 14 15 16
3 17 18 19
3 14 16 20
3 21 22 23
3 24 25 26
3 20 27 28
3 29 30 31
3 32 33 34
3 35 36 37
3 32 34 38
3 26 39 40
3 41 24 26
3 32 38 42
3 26 40 41
4 43 44 45 46
4 47 8 11 48
4 49 50 51 52
4 53 12 13 54
4 55 56 57 58
4 59 60 61 62
4 63 47 48 64
4 65 66 67 68
4 69 70 71 72
4 73 74 75 76
4 77 78 79 80
4 81 82 83 84
4 81 84 71 70
4 85 86 87 88
4 85 88 61 60
4 89 90 91 92
4 78 93 94 79
4 95 96 97 98
4 99 100 101 102
4 103 104 105 106
4 107 108 109 110
4 111 112 113 114
4 115 116 117 118
4 119 120 121 122
4 119 122 123 124
4 124 123 125 126
4 93 99 102 94
4 127 128 129 130
4 127 130 131 132
4 133 115 118 134
4 135 136 137 138
4 139 140 141 142
4 143 144 145 146
4 147 148 149 150
4 151 77 80 152
4 153 154 155 156
4 157 158 159 160
4 161 162 163 164
4 165 166 167 168
4 169 170 171 172
4 173 174 175 176
4 177 178 179 180
4 177 180 167 166
4 181 182 183 184
4 181 184 155 154
4 185 151 152 186
4 148 187 188 149
4 144 185 186 145
4 189 0 3 190
4 191 192 193 194
4 195 196 197 198
4 9 199 200 10
4 201 202 203 204
4 205 206 207 208
4 205 208 209 210
4 210 209 211 212
4 213 55 58 214
4 215 216 217 218
4 215 218 219 220
4 221 201 204 222
4 174 223 224 175
4 225 226 221 222
4 199 227 228 200
4 229 203 202 230
4 231 232 233 234
4 163 162 232 231
4 235 236 237 238
4 239 234 233 240
4 241 242 243 244
4 245 246 133 134
4 247 143 146 248
4 249 117 116 250
4 251 252 253 254
4 67 66 252 251
4 255 73 76 256
4 257 254 253 258
4 112 259 260 113
4 227 247 248 228
4 140 173 176 141
4 261 207 206 262
4 50 235 238 51
4 263 43 46 264
4 265 111 114 266
4 267 179 178 268
4 223 191 194 224
4 90 189 190 91
4 242 139 142 243
4 269 121 120 270
4 271 272 273 274
4 96 263 264 97
4 192 147 150 193
4 275 83 82 276
4 277 278 279 280
4 281 282 278 277
4 283 284 282 281
4 285 286 287 288
4 289 290 286 285
4 291 292 290 289
4 293 294 295 296
4 297 298 296 295
4 299 300 298 297
4 301 302 303 304
4 305 306 302 301
4 307 308 306 305
4 309 310 300 299
4 311 312 308 307
4 313 314 284 283
4 315 316 292 291
4 104 157 160 105
4 317 318 319 320
4 259 241 244 260
4 272 321 322 273
4 131 109 108 132
4 323 87 86 324
4 136 255 256 137
4 219 197 196 220
4 187 265 266 188
4 325 49 52 326
4 321 317 320 322
4 327 103 106 328
4 329 183 182 330
4 331 332 333 334
4 170 213 214 171
4 335 89 92 336
4 337 338 339 340
4 341 342 343 344
4 345 346 347 348
4 349 350 351 352
4 348 347 353 354
4 354 353 355 356
4 356 355 357 358
4 359 360 361 362
4 363 364 365 366
3 367 368 369
4 370 371 372 373
4 373 372 365 364
4 352 351 374 375
4 375 374 376 377
4 377 376 378 379
4 380 381 382 383
4 384 385 386 387
3 388 389 390
4 391 392 393 394
4 340 339 395 396
4 396 395 397 398
4 398 397 399 400
4 401 402 403 404
4 405 406 407 408
3 409 410 411
4 412 413 414 415
4 415 414 407 406
4 344 343 416 417
4 417 416 418 419
4 419 418 420 421
4 422 423 424 425
4 426 427 428 429
3 430 431 432
4 433 434 435 436
4 435 437 438 436
4 437 428 427 438
4 439 413 412 440
4 393 441 442 394
4 441 386 385 442
4 443 371 370 444
4 445 446 447 448
4 449 450 446 445
4 449 424 423 450
4 451 452 453 454
4 451 403 402 452
4 455 454 453 456
4 457 458 459 460
4 461 462 458 457
4 461 382 381 462
4 463 464 465 466
4 463 361 360 464
4 467 466 465 468
3 469 368 367
3 432 470 430
3 471 472 388
3 473 474 409
3 475 410 409
3 470 476 430
3 477 389 388
3 390 471 388
3 478 469 367
3 479 478 367
3 474 475 409
3 480 431 430
4 100 63 64 101
4 481 482 483 484
4 485 486 487 488
4 158 489 490 159
4 486 491 492 487
4 236 493 494 237
4 495 496 497 498
4 491 499 500 492
4 501 502 503 504
4 505 506 507 508
4 509 510 511 512
4 502 513 514 503
4 513 515 516 514
4 517 518 519 520
4 521 522 523 524
4 56 509 512 57
4 522 525 526 523
4 527 528 529 530
4 525 531 532 526
4 74 495 498 75
4 515 521 524 516
4 531 53 54 532
4 528 533 534 529
4 44 481 484 45
4 5 485 488 6
4 499 501 504 500
4 518 535 536 519
4 482 325 326 483
4 506 537 538 507
4 496 335 336 497
4 539 540 541 542
4 493 505 508 494
4 543 539 542 544
4 510 327 328 511
4 545 543 544 546
4 1 517 520 2
4 318 545 546 319
4 547 548 549 550
4 489 527 530 490
4 551 547 550 552
4 548 331 334 549
4 535 135 138 536
4 540 551 552 541
4 533 169 172 534
4 553 271 274 554
4 537 95 98 538
4 555 553 554 556
4 332 555 556 333
