ply
format ascii 1.0
comment Created by Blender 2.79 (sub 0) - www.blender.org, source file: 'untitled2.blend'
element vertex 396
property float x
property float y
property float z
property float nx
property float ny
property float nz
element face 104
property list uchar uint vertex_indices
end_header
0.035528 0.500000 0.999369 0.515966 -0.000000 0.856609
0.001537 -0.000000 0.999999 0.515966 -0.000000 0.856609
0.866793 -0.000000 0.498668 0.515966 -0.000000 0.856609
0.883243 0.500000 0.468917 0.515966 -0.000000 0.856609
0.883243 0.500000 0.468917 0.999828 -0.000000 -0.018535
0.866793 -0.000000 0.498668 0.999828 -0.000000 -0.018535
0.865256 0.000000 -0.501331 0.999828 -0.000000 -0.018535
0.847715 0.500000 -0.530452 0.999828 -0.000000 -0.018535
0.847715 0.500000 -0.530452 0.483862 -0.000000 -0.875144
0.865256 0.000000 -0.501331 0.483862 -0.000000 -0.875144
-0.001537 0.000000 -0.999999 0.483862 -0.000000 -0.875144
-0.035528 0.500000 -0.999369 0.483862 -0.000000 -0.875144
-0.035528 0.500000 -0.999369 -0.515966 -0.000000 -0.856609
-0.001537 0.000000 -0.999999 -0.515966 -0.000000 -0.856609
-0.866793 0.000000 -0.498668 -0.515966 -0.000000 -0.856609
-0.883243 0.500000 -0.468916 -0.515966 -0.000000 -0.856609
0.865256 0.000000 -0.501331 -0.000000 -1.000000 -0.000000
0.866793 -0.000000 0.498668 -0.000000 -1.000000 -0.000000
0.001537 -0.000000 0.999999 -0.000000 -1.000000 -0.000000
-0.865256 -0.000000 0.501330 -0.000000 -1.000000 -0.000000
-0.866793 0.000000 -0.498668 -0.000000 -1.000000 -0.000000
-0.001537 0.000000 -0.999999 -0.000000 -1.000000 -0.000000
-0.883243 0.500000 -0.468916 -0.999828 -0.000000 0.018535
-0.866793 0.000000 -0.498668 -0.999828 -0.000000 0.018535
-0.865256 -0.000000 0.501330 -0.999828 -0.000000 0.018535
-0.847715 0.500000 0.530452 -0.999828 -0.000000 0.018535
0.001537 -0.000000 0.999999 -0.483862 -0.000000 0.875144
0.035528 0.500000 0.999369 -0.483862 -0.000000 0.875144
-0.847715 0.500000 0.530452 -0.483862 -0.000000 0.875144
-0.865256 -0.000000 0.501330 -0.483862 -0.000000 0.875144
-0.035528 0.500000 -0.999369 -0.561820 0.000000 -0.827259
-0.883243 0.500000 -0.468916 -0.561820 0.000000 -0.827259
-0.915856 1.000000 -0.401507 -0.561820 0.000000 -0.827259
-0.110212 1.000000 -0.993908 -0.561820 0.000000 -0.827259
-0.110212 1.000000 -0.993908 -0.636438 0.000000 -0.771328
-0.915856 1.000000 -0.401507 -0.636438 0.000000 -0.771328
-0.954895 1.500000 -0.296944 -0.636438 0.000000 -0.771328
-0.220286 1.500000 -0.975435 -0.636438 0.000000 -0.771328
0.883243 0.500000 0.468917 0.997338 0.000000 -0.072921
0.847715 0.500000 -0.530452 0.997338 0.000000 -0.072921
0.805644 1.000000 -0.592401 0.997338 0.000000 -0.072921
0.915856 1.000000 0.401507 0.997338 0.000000 -0.072921
-0.883243 0.500000 -0.468916 -0.997338 0.000000 0.072921
-0.847715 0.500000 0.530452 -0.997338 0.000000 0.072921
-0.805643 1.000000 0.592401 -0.997338 0.000000 0.072921
-0.915856 1.000000 -0.401507 -0.997338 0.000000 0.072921
0.035528 0.500000 0.999369 0.561820 -0.000000 0.827259
0.883243 0.500000 0.468917 0.561820 -0.000000 0.827259
0.915856 1.000000 0.401507 0.561820 -0.000000 0.827259
0.110212 1.000000 0.993908 0.561820 -0.000000 0.827259
0.847715 0.500000 -0.530452 0.435517 0.000000 -0.900180
-0.035528 0.500000 -0.999369 0.435517 0.000000 -0.900180
-0.110212 1.000000 -0.993908 0.435517 0.000000 -0.900180
0.805644 1.000000 -0.592401 0.435517 0.000000 -0.900180
-0.847715 0.500000 0.530452 -0.435517 -0.000000 0.900180
0.035528 0.500000 0.999369 -0.435517 -0.000000 0.900180
0.110212 1.000000 0.993908 -0.435517 -0.000000 0.900180
-0.805643 1.000000 0.592401 -0.435517 -0.000000 0.900180
0.734609 1.500000 -0.678491 0.227282 -0.000000 -0.973829
-0.220286 1.500000 -0.975435 0.227282 -0.000000 -0.973829
-0.358367 2.000000 -0.933581 0.227282 -0.000000 -0.973829
0.629322 2.000000 -0.777145 0.227282 -0.000000 -0.973829
0.915856 1.000000 0.401507 0.986208 -0.000000 -0.165507
0.805644 1.000000 -0.592401 0.986208 -0.000000 -0.165507
0.734609 1.500000 -0.678491 0.986208 -0.000000 -0.165507
0.954895 1.500000 0.296944 0.986208 -0.000000 -0.165507
-0.915856 1.000000 -0.401507 -0.986209 0.000000 0.165507
-0.805643 1.000000 0.592401 -0.986209 0.000000 0.165507
-0.734608 1.500000 0.678491 -0.986209 0.000000 0.165507
-0.954895 1.500000 -0.296944 -0.986209 0.000000 0.165507
0.805644 1.000000 -0.592401 0.349771 0.000000 -0.936835
-0.110212 1.000000 -0.993908 0.349771 0.000000 -0.936835
-0.220286 1.500000 -0.975435 0.349771 0.000000 -0.936835
0.734609 1.500000 -0.678491 0.349771 0.000000 -0.936835
0.110212 1.000000 0.993908 0.636438 -0.000000 0.771328
0.915856 1.000000 0.401507 0.636438 -0.000000 0.771328
0.954895 1.500000 0.296944 0.636438 -0.000000 0.771328
0.220287 1.500000 0.975435 0.636438 -0.000000 0.771328
-0.805643 1.000000 0.592401 -0.349771 0.000000 0.936835
0.110212 1.000000 0.993908 -0.349771 0.000000 0.936835
0.220287 1.500000 0.975435 -0.349771 0.000000 0.936835
-0.734608 1.500000 0.678491 -0.349771 0.000000 0.936835
0.987689 2.000000 0.156436 0.903144 -0.000000 -0.429338
0.629322 2.000000 -0.777145 0.903144 -0.000000 -0.429338
0.502249 2.500000 -0.864724 0.903144 -0.000000 -0.429338
0.999997 2.500000 0.002598 0.903144 -0.000000 -0.429338
0.220287 1.500000 0.975435 0.729720 -0.000000 0.683746
0.954895 1.500000 0.296944 0.729720 -0.000000 0.683746
0.987689 2.000000 0.156436 0.729720 -0.000000 0.683746
0.358367 2.000000 0.933581 0.729720 -0.000000 0.683746
-0.734608 1.500000 0.678491 -0.227282 0.000000 0.973829
0.220287 1.500000 0.975435 -0.227282 0.000000 0.973829
0.358367 2.000000 0.933581 -0.227282 0.000000 0.973829
-0.629321 2.000000 0.777145 -0.227282 0.000000 0.973829
-0.220286 1.500000 -0.975435 -0.729720 0.000000 -0.683746
-0.954895 1.500000 -0.296944 -0.729720 0.000000 -0.683746
-0.987688 2.000000 -0.156435 -0.729720 0.000000 -0.683746
-0.358367 2.000000 -0.933581 -0.729720 0.000000 -0.683746
0.954895 1.500000 0.296944 0.957002 -0.000001 -0.290083
0.734609 1.500000 -0.678491 0.957002 -0.000001 -0.290083
0.629322 2.000000 -0.777145 0.957002 -0.000001 -0.290083
0.987689 2.000000 0.156436 0.957002 -0.000001 -0.290083
-0.954895 1.500000 -0.296944 -0.957002 0.000000 0.290083
-0.734608 1.500000 0.678491 -0.957002 0.000000 0.290083
-0.629321 2.000000 0.777145 -0.957002 0.000000 0.290083
-0.987688 2.000000 -0.156435 -0.957002 0.000000 0.290083
0.497749 2.500000 0.867321 0.905004 0.000000 0.425403
0.999997 2.500000 0.002598 0.905004 0.000000 0.425403
0.985419 3.000000 -0.170149 0.905004 0.000000 0.425403
0.640063 3.000000 0.768323 0.905004 0.000000 0.425403
-0.987688 2.000000 -0.156435 -0.903144 0.000001 0.429338
-0.629321 2.000000 0.777145 -0.903144 0.000001 0.429338
-0.502248 2.500000 0.864723 -0.903144 0.000001 0.429338
-0.999996 2.500000 -0.002598 -0.903144 0.000001 0.429338
0.629322 2.000000 -0.777145 0.079754 0.000000 -0.996815
-0.358367 2.000000 -0.933581 0.079754 0.000000 -0.996815
-0.497748 2.500000 -0.867321 0.079754 0.000000 -0.996815
0.502249 2.500000 -0.864724 0.079754 0.000000 -0.996815
0.358367 2.000000 0.933581 0.823389 -0.000000 0.567477
0.987689 2.000000 0.156436 0.823389 -0.000000 0.567477
0.999997 2.500000 0.002598 0.823389 -0.000000 0.567477
0.497749 2.500000 0.867321 0.823389 -0.000000 0.567477
-0.629321 2.000000 0.777145 -0.079755 0.000000 0.996814
0.358367 2.000000 0.933581 -0.079755 0.000000 0.996814
0.497749 2.500000 0.867321 -0.079755 0.000000 0.996814
-0.502248 2.500000 0.864723 -0.079755 0.000000 0.996814
-0.358367 2.000000 -0.933581 -0.823390 0.000000 -0.567477
-0.987688 2.000000 -0.156435 -0.823390 0.000000 -0.567477
-0.999996 2.500000 -0.002598 -0.823390 0.000000 -0.567477
-0.497748 2.500000 -0.867321 -0.823390 0.000000 -0.567477
-0.985418 3.000000 0.170149 -0.703607 0.000001 0.710589
-0.345356 3.000000 0.938472 -0.703607 0.000001 0.710589
-0.160410 3.500000 0.987050 -0.703607 0.000001 0.710589
-0.935015 3.500000 0.354605 -0.703607 0.000001 0.710589
-0.502248 2.500000 0.864723 0.084092 0.000000 0.996458
0.497749 2.500000 0.867321 0.084092 0.000000 0.996458
0.640063 3.000000 0.768323 0.084092 0.000000 0.996458
-0.345356 3.000000 0.938472 0.084092 0.000000 0.996458
-0.497748 2.500000 -0.867321 -0.905004 -0.000000 -0.425403
-0.999996 2.500000 -0.002598 -0.905004 -0.000000 -0.425403
-0.985418 3.000000 0.170149 -0.905004 -0.000000 -0.425403
-0.640062 3.000000 -0.768323 -0.905004 -0.000000 -0.425403
0.999997 2.500000 0.002598 0.820912 -0.000000 -0.571055
0.502249 2.500000 -0.864724 0.820912 -0.000000 -0.571055
0.345357 3.000000 -0.938472 0.820912 -0.000000 -0.571055
0.985419 3.000000 -0.170149 0.820912 -0.000000 -0.571055
-0.999996 2.500000 -0.002598 -0.820912 0.000000 0.571055
-0.502248 2.500000 0.864723 -0.820912 0.000000 0.571055
-0.345356 3.000000 0.938472 -0.820912 0.000000 0.571055
-0.985418 3.000000 0.170149 -0.820912 0.000000 0.571055
0.502249 2.500000 -0.864724 -0.084092 -0.000000 -0.996458
-0.497748 2.500000 -0.867321 -0.084092 -0.000000 -0.996458
-0.640062 3.000000 -0.768323 -0.084092 -0.000000 -0.996458
0.345357 3.000000 -0.938472 -0.084092 -0.000000 -0.996458
-0.160410 3.500000 0.987050 0.447071 0.000000 0.894498
0.774606 3.500000 0.632445 0.447071 0.000000 0.894498
0.885740 4.000000 0.464183 0.447071 0.000000 0.894498
0.040875 4.000000 0.999164 0.447071 0.000000 0.894498
0.345357 3.000000 -0.938472 -0.263584 -0.000001 -0.964636
-0.640062 3.000000 -0.768323 -0.263584 -0.000001 -0.964636
-0.774604 3.500000 -0.632446 -0.263584 -0.000001 -0.964636
0.160412 3.500000 -0.987051 -0.263584 -0.000001 -0.964636
0.640063 3.000000 0.768323 0.967192 -0.000001 0.254047
0.985419 3.000000 -0.170149 0.967192 -0.000001 0.254047
0.935017 3.500000 -0.354606 0.967192 -0.000001 0.254047
0.774606 3.500000 0.632445 0.967192 -0.000001 0.254047
-0.345356 3.000000 0.938472 0.263585 0.000001 0.964636
0.640063 3.000000 0.768323 0.263585 0.000001 0.964636
0.774606 3.500000 0.632445 0.263585 0.000001 0.964636
-0.160410 3.500000 0.987050 0.263585 0.000001 0.964636
-0.640062 3.000000 -0.768323 -0.967192 0.000001 -0.254047
-0.985418 3.000000 0.170149 -0.967192 0.000001 -0.254047
-0.935015 3.500000 0.354605 -0.967192 0.000001 -0.254047
-0.774604 3.500000 -0.632446 -0.967192 0.000001 -0.254047
0.985419 3.000000 -0.170149 0.703607 -0.000001 -0.710589
0.345357 3.000000 -0.938472 0.703607 -0.000001 -0.710589
0.160412 3.500000 -0.987051 0.703607 -0.000001 -0.710589
0.935017 3.500000 -0.354606 0.703607 -0.000001 -0.710589
-0.733785 4.500000 0.664654 -0.218282 -0.017295 0.975732
0.208716 4.500000 0.967803 -0.218282 -0.017295 0.975732
0.383616 5.000000 0.923492 -0.218282 -0.017295 0.975732
-0.607960 5.000000 0.793966 -0.218282 -0.017295 0.975732
-0.774604 3.500000 -0.632446 -0.998194 -0.000001 -0.060074
-0.935015 3.500000 0.354605 -0.998194 -0.000001 -0.060074
-0.844864 4.000000 0.534980 -0.998194 -0.000001 -0.060074
-0.885738 4.000000 -0.464184 -0.998194 -0.000001 -0.060074
0.935017 3.500000 -0.354606 0.551123 -0.000000 -0.834424
0.160412 3.500000 -0.987051 0.551123 -0.000000 -0.834424
-0.040874 4.000000 -0.999165 0.551123 -0.000000 -0.834424
0.844865 4.000000 -0.534981 0.551123 -0.000000 -0.834424
-0.935015 3.500000 0.354605 -0.551123 0.000000 0.834424
-0.160410 3.500000 0.987050 -0.551123 0.000000 0.834424
0.040875 4.000000 0.999164 -0.551123 0.000000 0.834424
-0.844864 4.000000 0.534980 -0.551123 0.000000 0.834424
0.160412 3.500000 -0.987051 -0.447071 -0.000000 -0.894498
-0.774604 3.500000 -0.632446 -0.447071 -0.000000 -0.894498
-0.885738 4.000000 -0.464184 -0.447071 -0.000000 -0.894498
-0.040874 4.000000 -0.999165 -0.447071 -0.000000 -0.894498
0.774606 3.500000 0.632445 0.998194 0.000000 0.060074
0.935017 3.500000 -0.354606 0.998194 0.000000 0.060074
0.844865 4.000000 -0.534981 0.998194 0.000000 0.060074
0.885740 4.000000 0.464183 0.998194 0.000000 0.060074
0.538208 5.500000 0.833912 0.926798 -0.013020 0.375334
0.991294 5.500000 -0.049146 0.926798 -0.013020 0.375334
0.974254 6.000000 -0.225454 0.926798 -0.013020 0.375334
0.682375 6.000000 0.731001 0.926798 -0.013020 0.375334
-0.208715 4.500000 -0.967805 -0.735868 -0.017296 -0.676904
-0.942500 4.500000 -0.303150 -0.735868 -0.017296 -0.676904
-0.991576 5.000000 -0.129526 -0.735868 -0.017296 -0.676904
-0.383615 5.000000 -0.923494 -0.735868 -0.017296 -0.676904
0.942501 4.500000 0.303149 0.954150 -0.017296 -0.298828
0.733786 4.500000 -0.664655 0.954150 -0.017296 -0.298828
0.607961 5.000000 -0.793968 0.954150 -0.017296 -0.298828
0.991577 5.000000 0.129525 0.954150 -0.017296 -0.298828
0.208716 4.500000 0.967803 0.735868 -0.017295 0.676904
0.942501 4.500000 0.303149 0.735868 -0.017295 0.676904
0.991577 5.000000 0.129525 0.735868 -0.017295 0.676904
0.383616 5.000000 0.923492 0.735868 -0.017295 0.676904
-0.942500 4.500000 -0.303150 -0.954150 -0.017296 0.298828
-0.733785 4.500000 0.664654 -0.954150 -0.017296 0.298828
-0.607960 5.000000 0.793966 -0.954150 -0.017296 0.298828
-0.991576 5.000000 -0.129526 -0.954150 -0.017296 0.298828
0.733786 4.500000 -0.664655 0.218282 -0.017296 -0.975732
-0.208715 4.500000 -0.967805 0.218282 -0.017296 -0.975732
-0.383615 5.000000 -0.923494 0.218282 -0.017296 -0.975732
0.607961 5.000000 -0.793968 0.218282 -0.017296 -0.975732
-0.188000 6.500000 0.978380 0.376646 -0.006453 0.926335
0.753302 6.500000 0.652002 0.376646 -0.006453 0.926335
0.820342 7.000000 0.571873 0.376646 -0.006453 0.926335
-0.085086 7.000000 0.996373 0.376646 -0.006453 0.926335
-0.991294 5.500000 0.049145 -0.788448 -0.013021 0.614964
-0.453085 5.500000 0.883057 -0.788448 -0.013021 0.614964
-0.291879 6.000000 0.956454 -0.788448 -0.013021 0.614964
-0.974254 6.000000 0.225452 -0.788448 -0.013021 0.614964
0.453086 5.500000 -0.883059 -0.138350 -0.013022 -0.990298
-0.538208 5.500000 -0.833914 -0.138350 -0.013022 -0.990298
-0.682375 6.000000 -0.731004 -0.138350 -0.013022 -0.990298
0.291879 6.000000 -0.956456 -0.138350 -0.013022 -0.990298
-0.453085 5.500000 0.883057 0.138350 -0.013021 0.990298
0.538208 5.500000 0.833912 0.138350 -0.013021 0.990298
0.682375 6.000000 0.731001 0.138350 -0.013021 0.990298
-0.291879 6.000000 0.956454 0.138350 -0.013021 0.990298
-0.538208 5.500000 -0.833914 -0.926798 -0.013021 -0.375334
-0.991294 5.500000 0.049145 -0.926798 -0.013021 -0.375334
-0.974254 6.000000 0.225452 -0.926798 -0.013021 -0.375334
-0.682375 6.000000 -0.731004 -0.926798 -0.013021 -0.375334
0.991294 5.500000 -0.049146 0.788448 -0.013021 -0.614963
0.453086 5.500000 -0.883059 0.788448 -0.013021 -0.614963
0.291879 6.000000 -0.956456 0.788448 -0.013021 -0.614963
0.974254 6.000000 -0.225454 0.788448 -0.013021 -0.614963
0.845906 7.500000 0.532332 0.999818 -0.000923 0.019039
0.883967 7.500000 -0.466410 0.999818 -0.000923 0.019039
0.866025 7.999999 -0.500001 0.999818 -0.000923 0.019039
0.866025 7.999999 0.499999 0.999818 -0.000923 0.019039
-0.753302 6.500000 -0.652004 -0.990552 -0.006453 -0.136982
-0.941302 6.500000 0.326377 -0.990552 -0.006453 -0.136982
-0.905428 7.000000 0.424499 -0.990552 -0.006453 -0.136982
-0.820342 7.000000 -0.571875 -0.990552 -0.006453 -0.136982
0.941303 6.500000 -0.326378 0.613907 -0.006453 -0.789352
0.188000 6.500000 -0.978382 0.613907 -0.006453 -0.789352
0.085086 7.000000 -0.996375 0.613907 -0.006453 -0.789352
0.905428 7.000000 -0.424501 0.613907 -0.006453 -0.789352
0.753302 6.500000 0.652002 0.990552 -0.006453 0.136982
0.941303 6.500000 -0.326378 0.990552 -0.006453 0.136982
0.905428 7.000000 -0.424501 0.990552 -0.006453 0.136982
0.820342 7.000000 0.571873 0.990552 -0.006453 0.136982
-0.941302 6.500000 0.326377 -0.613906 -0.006453 0.789353
-0.188000 6.500000 0.978380 -0.613906 -0.006453 0.789353
-0.085086 7.000000 0.996373 -0.613906 -0.006453 0.789353
-0.905428 7.000000 0.424499 -0.613906 -0.006453 0.789353
0.188000 6.500000 -0.978382 -0.376646 -0.006453 -0.926335
-0.753302 6.500000 -0.652004 -0.376646 -0.006453 -0.926335
-0.820342 7.000000 -0.571875 -0.376646 -0.006453 -0.926335
0.085086 7.000000 -0.996375 -0.376646 -0.006453 -0.926335
0.866025 7.999999 0.499999 0.000000 1.000000 0.000000
0.866025 7.999999 -0.500001 0.000000 1.000000 0.000000
-0.000000 7.999999 -1.000001 0.000000 1.000000 0.000000
-0.866026 7.999999 -0.500001 0.000000 1.000000 0.000000
-0.866025 7.999999 0.499999 0.000000 1.000000 0.000000
0.000000 7.999999 0.999999 0.000000 1.000000 0.000000
-0.883967 7.500000 0.466408 -0.516397 -0.000923 0.856349
-0.038061 7.500000 0.998741 -0.516397 -0.000923 0.856349
0.000000 7.999999 0.999999 -0.516397 -0.000923 0.856349
-0.866025 7.999999 0.499999 -0.516397 -0.000923 0.856349
0.038061 7.500000 -0.998743 -0.483421 -0.000923 -0.875387
-0.845906 7.500000 -0.532334 -0.483421 -0.000923 -0.875387
-0.866026 7.999999 -0.500001 -0.483421 -0.000923 -0.875387
-0.000000 7.999999 -1.000001 -0.483421 -0.000923 -0.875387
-0.038061 7.500000 0.998741 0.483421 -0.000923 0.875388
0.845906 7.500000 0.532332 0.483421 -0.000923 0.875388
0.866025 7.999999 0.499999 0.483421 -0.000923 0.875388
0.000000 7.999999 0.999999 0.483421 -0.000923 0.875388
-0.845906 7.500000 -0.532334 -0.999818 -0.000923 -0.019039
-0.883967 7.500000 0.466408 -0.999818 -0.000923 -0.019039
-0.866025 7.999999 0.499999 -0.999818 -0.000923 -0.019039
-0.866026 7.999999 -0.500001 -0.999818 -0.000923 -0.019039
0.883967 7.500000 -0.466410 0.516397 -0.000923 -0.856349
0.038061 7.500000 -0.998743 0.516397 -0.000923 -0.856349
-0.000000 7.999999 -1.000001 0.516397 -0.000923 -0.856349
0.866025 7.999999 -0.500001 0.516397 -0.000923 -0.856349
0.844865 4.000000 -0.534981 0.386948 0.017288 -0.921939
-0.040874 4.000000 -0.999165 0.386948 0.017288 -0.921939
-0.208715 4.500000 -0.967805 0.386948 0.017288 -0.921939
0.733786 4.500000 -0.664655 0.386948 0.017288 -0.921939
-0.885738 4.000000 -0.464184 -0.991897 0.017288 0.125862
-0.844864 4.000000 0.534980 -0.991897 0.017288 0.125862
-0.733785 4.500000 0.664654 -0.991897 0.017288 0.125862
-0.942500 4.500000 -0.303150 -0.991897 0.017288 0.125862
0.040875 4.000000 0.999164 0.604948 0.017288 0.796077
0.885740 4.000000 0.464183 0.604948 0.017288 0.796077
0.942501 4.500000 0.303149 0.604948 0.017288 0.796077
0.208716 4.500000 0.967803 0.604948 0.017288 0.796077
0.885740 4.000000 0.464183 0.991897 0.017288 -0.125862
0.844865 4.000000 -0.534981 0.991897 0.017288 -0.125862
0.733786 4.500000 -0.664655 0.991897 0.017288 -0.125862
0.942501 4.500000 0.303149 0.991897 0.017288 -0.125862
-0.040874 4.000000 -0.999165 -0.604949 0.017288 -0.796077
-0.885738 4.000000 -0.464184 -0.604949 0.017288 -0.796077
-0.942500 4.500000 -0.303150 -0.604949 0.017288 -0.796077
-0.208715 4.500000 -0.967805 -0.604949 0.017288 -0.796077
-0.844864 4.000000 0.534980 -0.386949 0.017288 0.921939
0.040875 4.000000 0.999164 -0.386949 0.017288 0.921939
0.208716 4.500000 0.967803 -0.386949 0.017288 0.921939
-0.733785 4.500000 0.664654 -0.386949 0.017288 0.921939
0.991577 5.000000 0.129525 0.885492 0.013022 -0.464473
0.607961 5.000000 -0.793968 0.885492 0.013022 -0.464473
0.453086 5.500000 -0.883059 0.885492 0.013022 -0.464473
0.991294 5.500000 -0.049146 0.885492 0.013022 -0.464473
-0.383615 5.000000 -0.923494 -0.844991 0.013022 -0.534622
-0.991576 5.000000 -0.129526 -0.844991 0.013022 -0.534622
-0.991294 5.500000 0.049145 -0.844991 0.013022 -0.534622
-0.538208 5.500000 -0.833914 -0.844991 0.013022 -0.534622
-0.607960 5.000000 0.793966 -0.040501 0.013022 0.999095
0.383616 5.000000 0.923492 -0.040501 0.013022 0.999095
0.538208 5.500000 0.833912 -0.040501 0.013022 0.999095
-0.453085 5.500000 0.883057 -0.040501 0.013022 0.999095
0.607961 5.000000 -0.793968 0.040501 0.013022 -0.999095
-0.383615 5.000000 -0.923494 0.040501 0.013022 -0.999095
-0.538208 5.500000 -0.833914 0.040501 0.013022 -0.999095
0.453086 5.500000 -0.883059 0.040501 0.013022 -0.999095
-0.991576 5.000000 -0.129526 -0.885492 0.013022 0.464473
-0.607960 5.000000 0.793966 -0.885492 0.013022 0.464473
-0.453085 5.500000 0.883057 -0.885492 0.013022 0.464473
-0.991294 5.500000 0.049145 -0.885492 0.013022 0.464473
0.383616 5.000000 0.923492 0.844991 0.013022 0.534622
0.991577 5.000000 0.129525 0.844991 0.013022 0.534622
0.991294 5.500000 -0.049146 0.844991 0.013022 0.534622
0.538208 5.500000 0.833912 0.844991 0.013022 0.534622
0.291879 6.000000 -0.956456 -0.276815 0.006453 -0.960902
-0.682375 6.000000 -0.731004 -0.276815 0.006453 -0.960902
-0.753302 6.500000 -0.652004 -0.276815 0.006453 -0.960902
0.188000 6.500000 -0.978382 -0.276815 0.006453 -0.960902
-0.974254 6.000000 0.225452 -0.693758 0.006453 0.720179
-0.291879 6.000000 0.956454 -0.693758 0.006453 0.720179
-0.188000 6.500000 0.978380 -0.693758 0.006453 0.720179
-0.941302 6.500000 0.326377 -0.693758 0.006453 0.720179
0.682375 6.000000 0.731001 0.970573 0.006453 0.240722
0.974254 6.000000 -0.225454 0.970573 0.006453 0.240722
0.941303 6.500000 -0.326378 0.970573 0.006453 0.240722
0.753302 6.500000 0.652002 0.970573 0.006453 0.240722
0.974254 6.000000 -0.225454 0.693758 0.006453 -0.720179
0.291879 6.000000 -0.956456 0.693758 0.006453 -0.720179
0.188000 6.500000 -0.978382 0.693758 0.006453 -0.720179
0.941303 6.500000 -0.326378 0.693758 0.006453 -0.720179
-0.682375 6.000000 -0.731004 -0.970573 0.006453 -0.240722
-0.974254 6.000000 0.225452 -0.970573 0.006453 -0.240722
-0.941302 6.500000 0.326377 -0.970573 0.006453 -0.240722
-0.753302 6.500000 -0.652004 -0.970573 0.006453 -0.240722
-0.291879 6.000000 0.956454 0.276815 0.006453 0.960901
0.682375 6.000000 0.731001 0.276815 0.006453 0.960901
0.753302 6.500000 0.652002 0.276815 0.006453 0.960901
-0.188000 6.500000 0.978380 0.276815 0.006453 0.960901
0.905428 7.000000 -0.424501 0.552403 0.000924 -0.833576
0.085086 7.000000 -0.996375 0.552403 0.000924 -0.833576
0.038061 7.500000 -0.998743 0.552403 0.000924 -0.833576
0.883967 7.500000 -0.466410 0.552403 0.000924 -0.833576
-0.820342 7.000000 -0.571875 -0.998100 0.000923 -0.061607
-0.905428 7.000000 0.424499 -0.998100 0.000923 -0.061607
-0.883967 7.500000 0.466408 -0.998100 0.000923 -0.061607
-0.845906 7.500000 -0.532334 -0.998100 0.000923 -0.061607
-0.085086 7.000000 0.996373 0.445697 0.000924 0.895184
0.820342 7.000000 0.571873 0.445697 0.000924 0.895184
0.845906 7.500000 0.532332 0.445697 0.000924 0.895184
-0.038061 7.500000 0.998741 0.445697 0.000924 0.895184
0.085086 7.000000 -0.996375 -0.445697 0.000923 -0.895183
-0.820342 7.000000 -0.571875 -0.445697 0.000923 -0.895183
-0.845906 7.500000 -0.532334 -0.445697 0.000923 -0.895183
0.038061 7.500000 -0.998743 -0.445697 0.000923 -0.895183
-0.905428 7.000000 0.424499 -0.552403 0.000923 0.833576
-0.085086 7.000000 0.996373 -0.552403 0.000923 0.833576
-0.038061 7.500000 0.998741 -0.552403 0.000923 0.833576
-0.883967 7.500000 0.466408 -0.552403 0.000923 0.833576
0.820342 7.000000 0.571873 0.998100 0.000923 0.061607
0.905428 7.000000 -0.424501 0.998100 0.000923 0.061607
0.883967 7.500000 -0.466410 0.998100 0.000923 0.061607
0.845906 7.500000 0.532332 0.998100 0.000923 0.061607
4 0 1 2 3
4 4 5 6 7
4 8 9 10 11
4 12 13 14 15
3 16 17 18
3 18 19 20
3 20 21 16
3 18 20 16
4 22 23 24 25
4 26 27 28 29
4 30 31 32 33
4 34 35 36 37
4 38 39 40 41
4 42 43 44 45
4 46 47 48 49
4 50 51 52 53
4 54 55 56 57
4 58 59 60 61
4 62 63 64 65
4 66 67 68 69
4 70 71 72 73
4 74 75 76 77
4 78 79 80 81
4 82 83 84 85
4 86 87 88 89
4 90 91 92 93
4 94 95 96 97
4 98 99 100 101
4 102 103 104 105
4 106 107 108 109
4 110 111 112 113
4 114 115 116 117
4 118 119 120 121
4 122 123 124 125
4 126 127 128 129
4 130 131 132 133
4 134 135 136 137
4 138 139 140 141
4 142 143 144 145
4 146 147 148 149
4 150 151 152 153
4 154 155 156 157
4 158 159 160 161
4 162 163 164 165
4 166 167 168 169
4 170 171 172 173
4 174 175 176 177
4 178 179 180 181
4 182 183 184 185
4 186 187 188 189
4 190 191 192 193
4 194 195 196 197
4 198 199 200 201
4 202 203 204 205
4 206 207 208 209
4 210 211 212 213
4 214 215 216 217
4 218 219 220 221
4 222 223 224 225
4 226 227 228 229
4 230 231 232 233
4 234 235 236 237
4 238 239 240 241
4 242 243 244 245
4 246 247 248 249
4 250 251 252 253
4 254 255 256 257
4 258 259 260 261
4 262 263 264 265
4 266 267 268 269
4 270 271 272 273
3 274 275 276
3 276 277 278
3 278 279 274
3 276 278 274
4 280 281 282 283
4 284 285 286 287
4 288 289 290 291
4 292 293 294 295
4 296 297 298 299
4 300 301 302 303
4 304 305 306 307
4 308 309 310 311
4 312 313 314 315
4 316 317 318 319
4 320 321 322 323
4 324 325 326 327
4 328 329 330 331
4 332 333 334 335
4 336 337 338 339
4 340 341 342 343
4 344 345 346 347
4 348 349 350 351
4 352 353 354 355
4 356 357 358 359
4 360 361 362 363
4 364 365 366 367
4 368 369 370 371
4 372 373 374 375
4 376 377 378 379
4 380 381 382 383
4 384 385 386 387
4 388 389 390 391
4 392 393 394 395
