ply
format ascii 1.0
comment Created by Blender 2.79 (sub 0) - www.blender.org, source file: 'untitled2.blend'
element vertex 566
property float x
property float y
property float z
property float nx
property float ny
property float nz
element face 184
property list uchar uint vertex_indices
end_header
-0.750000 0.000000 0.125000 -0.000000 0.000000 -1.000000
-0.750000 0.250000 0.125000 -0.000000 0.000000 -1.000000
-0.500000 0.250000 0.125000 -0.000000 0.000000 -1.000000
-0.500000 0.000000 0.125000 -0.000000 0.000000 -1.000000
-0.500000 0.000000 0.375000 1.000000 0.000000 -0.000000
-0.500000 0.000000 0.125000 1.000000 0.000000 -0.000000
-0.500000 0.250000 0.125000 1.000000 0.000000 -0.000000
-0.500000 0.375000 0.250000 1.000000 0.000000 -0.000000
-0.500000 0.250000 0.375000 1.000000 0.000000 -0.000000
-0.500000 0.000000 0.375000 0.000000 0.000000 1.000000
-0.500000 0.250000 0.375000 0.000000 0.000000 1.000000
-0.750000 0.250000 0.375000 0.000000 0.000000 1.000000
-0.750000 0.000000 0.375000 0.000000 0.000000 1.000000
-0.750000 0.000000 0.125000 -1.000000 -0.000000 -0.000000
-0.750000 0.000000 0.375000 -1.000000 -0.000000 -0.000000
-0.750000 0.250000 0.375000 -1.000000 -0.000000 -0.000000
-0.750000 0.375000 0.250000 -1.000000 0.000000 0.000000
-0.750000 0.250000 0.125000 -1.000000 0.000000 0.000000
-0.750000 0.000000 0.375000 0.000000 -1.000000 -0.000000
-0.750000 0.000000 0.125000 0.000000 -1.000000 -0.000000
-0.500000 0.000000 0.125000 0.000000 -1.000000 -0.000000
-0.500000 0.000000 0.375000 0.000000 -1.000000 -0.000000
-0.750000 0.250000 0.375000 -0.000000 -0.707107 -0.707107
-0.500000 0.250000 0.375000 -0.000000 -0.707107 -0.707107
-0.475000 0.225000 0.400000 -0.000000 -0.707107 -0.707107
-0.775000 0.225000 0.400000 -0.000000 -0.707107 -0.707107
-0.775000 0.225000 0.400000 0.000000 0.000000 1.000000
-0.475000 0.225000 0.400000 0.000000 0.000000 1.000000
-0.475000 0.237500 0.400000 0.000000 0.000000 1.000000
-0.775000 0.237500 0.400000 0.000000 0.000000 1.000000
-0.500000 0.375000 0.250000 0.000000 -0.707107 0.707107
-0.500000 0.250000 0.125000 0.000000 -0.707107 0.707107
-0.475000 0.225000 0.100000 0.000000 -0.707107 0.707107
-0.475000 0.375000 0.250000 0.000000 -0.707107 0.707107
-0.475000 0.375000 0.250000 1.000000 0.000000 -0.000000
-0.475000 0.225000 0.100000 1.000000 0.000000 -0.000000
-0.475000 0.237500 0.100000 1.000000 0.000000 -0.000000
-0.475000 0.387500 0.250000 1.000000 0.000000 -0.000000
-0.750000 0.375000 0.250000 0.000000 -0.707107 -0.707107
-0.775000 0.375000 0.250000 0.000000 -0.707107 -0.707107
-0.750000 0.250000 0.125000 0.000000 -0.707107 0.707107
-0.775000 0.225000 0.100000 0.000000 -0.707107 0.707107
-0.750000 0.375000 0.250000 0.000000 -0.707107 0.707107
-0.775000 0.375000 0.250000 0.000000 -0.707107 0.707107
-0.500000 0.375000 0.250000 0.000000 -0.707107 -0.707107
-0.475000 0.375000 0.250000 0.000000 -0.707107 -0.707107
-0.475000 0.237500 0.400000 0.000000 0.707107 0.707107
-0.475000 0.387500 0.250000 0.000000 0.707107 0.707107
-0.775000 0.387500 0.250000 0.000000 0.707107 0.707107
-0.775000 0.237500 0.400000 0.000000 0.707107 0.707107
-0.775000 0.387500 0.250000 -0.000000 0.707107 -0.707107
-0.475000 0.387500 0.250000 -0.000000 0.707107 -0.707107
-0.475000 0.237500 0.100000 -0.000000 0.707107 -0.707107
-0.775000 0.237500 0.100000 -0.000000 0.707107 -0.707107
-0.475000 0.225000 0.100000 -0.000000 0.000000 -1.000000
-0.775000 0.225000 0.100000 -0.000000 0.000000 -1.000000
-0.775000 0.237500 0.100000 -0.000000 0.000000 -1.000000
-0.475000 0.237500 0.100000 -0.000000 0.000000 -1.000000
-0.775000 0.375000 0.250000 -1.000000 -0.000000 -0.000000
-0.775000 0.225000 0.400000 -1.000000 -0.000000 -0.000000
-0.775000 0.237500 0.400000 -1.000000 -0.000000 -0.000000
-0.775000 0.387500 0.250000 -1.000000 -0.000000 -0.000000
-0.775000 0.225000 0.100000 -1.000000 -0.000000 0.000000
-0.775000 0.237500 0.100000 -1.000000 -0.000000 0.000000
-0.475000 0.225000 0.400000 1.000000 0.000000 0.000000
-0.475000 0.237500 0.400000 1.000000 0.000000 0.000000
-0.375000 0.000000 0.750000 -1.000000 0.000000 0.000000
-0.375000 0.250000 0.750000 -1.000000 0.000000 0.000000
-0.375000 0.250000 0.500000 -1.000000 0.000000 0.000000
-0.375000 -0.000000 0.500000 -1.000000 0.000000 0.000000
-0.125000 -0.000000 0.500000 0.000000 0.000000 -1.000000
-0.375000 -0.000000 0.500000 0.000000 0.000000 -1.000000
-0.375000 0.250000 0.500000 0.000000 0.000000 -1.000000
-0.250000 0.375000 0.500000 -0.000000 0.000000 -1.000000
-0.125000 0.250000 0.500000 -0.000000 0.000000 -1.000000
-0.125000 -0.000000 0.500000 1.000000 0.000000 0.000000
-0.125000 0.250000 0.500000 1.000000 0.000000 0.000000
-0.125000 0.250000 0.750000 1.000000 0.000000 0.000000
-0.125000 0.000000 0.750000 1.000000 0.000000 0.000000
-0.375000 0.000000 0.750000 0.000000 0.000000 1.000000
-0.125000 0.000000 0.750000 0.000000 0.000000 1.000000
-0.125000 0.250000 0.750000 0.000000 0.000000 1.000000
-0.250000 0.375000 0.750000 -0.000000 0.000000 1.000000
-0.375000 0.250000 0.750000 -0.000000 0.000000 1.000000
-0.125000 0.000000 0.750000 -0.000000 -1.000000 0.000000
-0.375000 0.000000 0.750000 -0.000000 -1.000000 0.000000
-0.375000 -0.000000 0.500000 -0.000000 -1.000000 0.000000
-0.125000 -0.000000 0.500000 -0.000000 -1.000000 0.000000
-0.125000 0.250000 0.750000 -0.707108 -0.707106 -0.000000
-0.125000 0.250000 0.500000 -0.707108 -0.707106 -0.000000
-0.100000 0.225000 0.475000 -0.707108 -0.707106 -0.000000
-0.100000 0.225000 0.775000 -0.707108 -0.707106 -0.000000
-0.100000 0.225000 0.775000 1.000000 0.000000 0.000000
-0.100000 0.225000 0.475000 1.000000 0.000000 0.000000
-0.100000 0.237500 0.475000 1.000000 0.000000 0.000000
-0.100000 0.237500 0.775000 1.000000 0.000000 0.000000
-0.250000 0.375000 0.500000 0.707107 -0.707107 0.000001
-0.375000 0.250000 0.500000 0.707107 -0.707107 0.000001
-0.400000 0.225000 0.475000 0.707107 -0.707107 0.000001
-0.250000 0.375000 0.475000 0.707107 -0.707107 0.000001
-0.250000 0.375000 0.475000 -0.000000 0.000000 -1.000000
-0.400000 0.225000 0.475000 -0.000000 0.000000 -1.000000
-0.400000 0.237500 0.475000 -0.000000 0.000000 -1.000000
-0.250000 0.387500 0.475000 -0.000000 0.000000 -1.000000
-0.250000 0.375000 0.750000 -0.707107 -0.707107 -0.000000
-0.125000 0.250000 0.750000 -0.707107 -0.707107 -0.000000
-0.100000 0.225000 0.775000 -0.707107 -0.707107 -0.000000
-0.250000 0.375000 0.775000 -0.707107 -0.707107 -0.000000
-0.375000 0.250000 0.500000 0.707107 -0.707106 -0.000000
-0.375000 0.250000 0.750000 0.707107 -0.707106 -0.000000
-0.400000 0.225000 0.775000 0.707107 -0.707106 -0.000000
-0.400000 0.225000 0.475000 0.707107 -0.707106 -0.000000
-0.375000 0.250000 0.750000 0.707107 -0.707107 -0.000001
-0.250000 0.375000 0.750000 0.707107 -0.707107 -0.000001
-0.250000 0.375000 0.775000 0.707107 -0.707107 -0.000001
-0.400000 0.225000 0.775000 0.707107 -0.707107 -0.000001
-0.125000 0.250000 0.500000 -0.707107 -0.707107 0.000001
-0.250000 0.375000 0.500000 -0.707107 -0.707107 0.000001
-0.250000 0.375000 0.475000 -0.707107 -0.707107 0.000001
-0.100000 0.225000 0.475000 -0.707107 -0.707107 0.000001
-0.100000 0.237500 0.475000 0.707107 0.707107 0.000000
-0.250000 0.387500 0.475000 0.707107 0.707107 0.000000
-0.250000 0.387500 0.775000 0.707107 0.707107 0.000000
-0.100000 0.237500 0.775000 0.707107 0.707107 0.000000
-0.250000 0.387500 0.775000 -0.707107 0.707107 0.000000
-0.250000 0.387500 0.475000 -0.707107 0.707107 0.000000
-0.400000 0.237500 0.475000 -0.707107 0.707107 0.000000
-0.400000 0.237500 0.775000 -0.707107 0.707107 0.000000
-0.400000 0.225000 0.475000 -1.000000 -0.000000 0.000000
-0.400000 0.225000 0.775000 -1.000000 -0.000000 0.000000
-0.400000 0.237500 0.775000 -1.000000 -0.000000 0.000000
-0.400000 0.237500 0.475000 -1.000000 -0.000000 0.000000
-0.250000 0.375000 0.775000 0.000000 0.000000 1.000000
-0.100000 0.225000 0.775000 0.000000 0.000000 1.000000
-0.100000 0.237500 0.775000 0.000000 0.000000 1.000000
-0.250000 0.387500 0.775000 0.000000 0.000000 1.000000
-0.400000 0.225000 0.775000 0.000000 0.000000 1.000000
-0.400000 0.237500 0.775000 0.000000 0.000000 1.000000
-0.100000 0.225000 0.475000 0.000000 0.000000 -1.000000
-0.100000 0.237500 0.475000 0.000000 0.000000 -1.000000
-0.375000 0.000000 -0.500000 -1.000000 -0.000000 0.000000
-0.375000 0.250000 -0.500000 -1.000000 -0.000000 0.000000
-0.375000 0.250000 -0.750000 -1.000000 -0.000000 0.000000
-0.375000 -0.000000 -0.750000 -1.000000 -0.000000 0.000000
-0.125000 -0.000000 -0.750000 0.000000 0.000000 -1.000000
-0.375000 -0.000000 -0.750000 0.000000 0.000000 -1.000000
-0.375000 0.250000 -0.750000 0.000000 0.000000 -1.000000
-0.250000 0.375000 -0.750000 -0.000000 0.000000 -1.000000
-0.125000 0.250000 -0.750000 -0.000000 0.000000 -1.000000
-0.125000 -0.000000 -0.750000 1.000000 -0.000000 0.000000
-0.125000 0.250000 -0.750000 1.000000 -0.000000 0.000000
-0.125000 0.250000 -0.500000 1.000000 -0.000000 0.000000
-0.125000 0.000000 -0.500000 1.000000 -0.000000 0.000000
-0.375000 0.000000 -0.500000 0.000000 0.000000 1.000000
-0.125000 0.000000 -0.500000 0.000000 0.000000 1.000000
-0.125000 0.250000 -0.500000 0.000000 0.000000 1.000000
-0.250000 0.375000 -0.500000 0.000000 -0.000000 1.000000
-0.375000 0.250000 -0.500000 0.000000 -0.000000 1.000000
-0.125000 0.000000 -0.500000 -0.000000 -1.000000 0.000000
-0.375000 0.000000 -0.500000 -0.000000 -1.000000 0.000000
-0.375000 -0.000000 -0.750000 -0.000000 -1.000000 0.000000
-0.125000 -0.000000 -0.750000 -0.000000 -1.000000 0.000000
-0.125000 0.250000 -0.500000 -0.707108 -0.707106 -0.000000
-0.125000 0.250000 -0.750000 -0.707108 -0.707106 -0.000000
-0.100000 0.225000 -0.775000 -0.707108 -0.707106 -0.000000
-0.100000 0.225000 -0.475000 -0.707108 -0.707106 -0.000000
-0.100000 0.225000 -0.475000 1.000000 0.000000 0.000000
-0.100000 0.225000 -0.775000 1.000000 0.000000 0.000000
-0.100000 0.237500 -0.775000 1.000000 0.000000 0.000000
-0.100000 0.237500 -0.475000 1.000000 0.000000 0.000000
-0.250000 0.375000 -0.750000 0.707107 -0.707107 0.000001
-0.375000 0.250000 -0.750000 0.707107 -0.707107 0.000001
-0.400000 0.225000 -0.775000 0.707107 -0.707107 0.000001
-0.250000 0.375000 -0.775000 0.707107 -0.707107 0.000001
-0.250000 0.375000 -0.775000 -0.000000 0.000000 -1.000000
-0.400000 0.225000 -0.775000 -0.000000 0.000000 -1.000000
-0.400000 0.237500 -0.775000 -0.000000 0.000000 -1.000000
-0.250000 0.387500 -0.775000 -0.000000 0.000000 -1.000000
-0.250000 0.375000 -0.500000 -0.707107 -0.707107 -0.000001
-0.125000 0.250000 -0.500000 -0.707107 -0.707107 -0.000001
-0.100000 0.225000 -0.475000 -0.707107 -0.707107 -0.000001
-0.250000 0.375000 -0.475000 -0.707107 -0.707107 -0.000001
-0.375000 0.250000 -0.750000 0.707108 -0.707106 0.000000
-0.375000 0.250000 -0.500000 0.707108 -0.707106 0.000000
-0.400000 0.225000 -0.475000 0.707108 -0.707106 0.000000
-0.400000 0.225000 -0.775000 0.707108 -0.707106 0.000000
-0.375000 0.250000 -0.500000 0.707107 -0.707107 -0.000001
-0.250000 0.375000 -0.500000 0.707107 -0.707107 -0.000001
-0.250000 0.375000 -0.475000 0.707107 -0.707107 -0.000001
-0.400000 0.225000 -0.475000 0.707107 -0.707107 -0.000001
-0.125000 0.250000 -0.750000 -0.707107 -0.707107 0.000001
-0.250000 0.375000 -0.750000 -0.707107 -0.707107 0.000001
-0.250000 0.375000 -0.775000 -0.707107 -0.707107 0.000001
-0.100000 0.225000 -0.775000 -0.707107 -0.707107 0.000001
-0.100000 0.237500 -0.775000 0.707107 0.707107 0.000000
-0.250000 0.387500 -0.775000 0.707107 0.707107 0.000000
-0.250000 0.387500 -0.475000 0.707107 0.707107 0.000000
-0.100000 0.237500 -0.475000 0.707107 0.707107 0.000000
-0.250000 0.387500 -0.475000 -0.707107 0.707107 0.000000
-0.250000 0.387500 -0.775000 -0.707107 0.707107 0.000000
-0.400000 0.237500 -0.775000 -0.707107 0.707107 0.000000
-0.400000 0.237500 -0.475000 -0.707107 0.707107 0.000000
-0.400000 0.225000 -0.775000 -1.000000 -0.000000 0.000000
-0.400000 0.225000 -0.475000 -1.000000 -0.000000 0.000000
-0.400000 0.237500 -0.475000 -1.000000 -0.000000 0.000000
-0.400000 0.237500 -0.775000 -1.000000 -0.000000 0.000000
-0.250000 0.375000 -0.475000 0.000000 0.000000 1.000000
-0.100000 0.225000 -0.475000 0.000000 0.000000 1.000000
-0.100000 0.237500 -0.475000 0.000000 0.000000 1.000000
-0.250000 0.387500 -0.475000 0.000000 0.000000 1.000000
-0.400000 0.225000 -0.475000 -0.000000 0.000000 1.000000
-0.400000 0.237500 -0.475000 -0.000000 0.000000 1.000000
-0.100000 0.225000 -0.775000 -0.000000 -0.000000 -1.000000
-0.100000 0.237500 -0.775000 -0.000000 -0.000000 -1.000000
0.125000 0.000000 -0.500000 -1.000000 -0.000000 0.000000
0.125000 0.250000 -0.500000 -1.000000 -0.000000 0.000000
0.125000 0.250000 -0.750000 -1.000000 -0.000000 0.000000
0.125000 -0.000000 -0.750000 -1.000000 -0.000000 0.000000
0.375000 -0.000000 -0.750000 0.000000 0.000000 -1.000000
0.125000 -0.000000 -0.750000 0.000000 0.000000 -1.000000
0.125000 0.250000 -0.750000 0.000000 0.000000 -1.000000
0.250000 0.375000 -0.750000 -0.000000 0.000000 -1.000000
0.375000 0.250000 -0.750000 -0.000000 0.000000 -1.000000
0.375000 -0.000000 -0.750000 1.000000 0.000000 0.000000
0.375000 0.250000 -0.750000 1.000000 0.000000 0.000000
0.375000 0.250000 -0.500000 1.000000 0.000000 0.000000
0.375000 0.000000 -0.500000 1.000000 0.000000 0.000000
0.125000 0.000000 -0.500000 0.000000 0.000000 1.000000
0.375000 0.000000 -0.500000 0.000000 0.000000 1.000000
0.375000 0.250000 -0.500000 0.000000 0.000000 1.000000
0.250000 0.375000 -0.500000 -0.000000 0.000000 1.000000
0.125000 0.250000 -0.500000 -0.000000 0.000000 1.000000
0.375000 0.000000 -0.500000 -0.000000 -1.000000 0.000000
0.125000 0.000000 -0.500000 -0.000000 -1.000000 0.000000
0.125000 -0.000000 -0.750000 -0.000000 -1.000000 0.000000
0.375000 -0.000000 -0.750000 -0.000000 -1.000000 0.000000
0.375000 0.250000 -0.500000 -0.707107 -0.707107 -0.000000
0.375000 0.250000 -0.750000 -0.707107 -0.707107 -0.000000
0.400000 0.225000 -0.775000 -0.707107 -0.707107 -0.000000
0.400000 0.225000 -0.475000 -0.707107 -0.707107 -0.000000
0.400000 0.225000 -0.475000 1.000000 0.000000 0.000000
0.400000 0.225000 -0.775000 1.000000 0.000000 0.000000
0.400000 0.237500 -0.775000 1.000000 0.000000 0.000000
0.400000 0.237500 -0.475000 1.000000 0.000000 0.000000
0.250000 0.375000 -0.750000 0.707107 -0.707107 0.000001
0.125000 0.250000 -0.750000 0.707107 -0.707107 0.000001
0.100000 0.225000 -0.775000 0.707107 -0.707107 0.000001
0.250000 0.375000 -0.775000 0.707107 -0.707107 0.000001
0.250000 0.375000 -0.775000 0.000000 -0.000000 -1.000000
0.100000 0.225000 -0.775000 0.000000 -0.000000 -1.000000
0.100000 0.237500 -0.775000 0.000000 -0.000000 -1.000000
0.250000 0.387500 -0.775000 0.000000 -0.000000 -1.000000
0.250000 0.375000 -0.500000 -0.707107 -0.707107 0.000001
0.375000 0.250000 -0.500000 -0.707107 -0.707107 0.000001
0.400000 0.225000 -0.475000 -0.707107 -0.707107 0.000001
0.250000 0.375000 -0.475000 -0.707107 -0.707107 0.000001
0.125000 0.250000 -0.750000 0.707107 -0.707106 0.000000
0.125000 0.250000 -0.500000 0.707107 -0.707106 0.000000
0.100000 0.225000 -0.475000 0.707107 -0.707106 0.000000
0.100000 0.225000 -0.775000 0.707107 -0.707106 0.000000
0.125000 0.250000 -0.500000 0.707107 -0.707107 0.000000
0.250000 0.375000 -0.500000 0.707107 -0.707107 0.000000
0.250000 0.375000 -0.475000 0.707107 -0.707107 0.000000
0.100000 0.225000 -0.475000 0.707107 -0.707107 0.000000
0.250000 0.375000 -0.750000 -0.707107 -0.707107 0.000000
0.250000 0.375000 -0.775000 -0.707107 -0.707107 0.000000
0.400000 0.237500 -0.775000 0.707107 0.707107 0.000000
0.250000 0.387500 -0.775000 0.707107 0.707107 0.000000
0.250000 0.387500 -0.475000 0.707107 0.707107 0.000000
0.400000 0.237500 -0.475000 0.707107 0.707107 0.000000
0.250000 0.387500 -0.475000 -0.707107 0.707107 -0.000000
0.250000 0.387500 -0.775000 -0.707107 0.707107 -0.000000
0.100000 0.237500 -0.775000 -0.707107 0.707107 -0.000000
0.100000 0.237500 -0.475000 -0.707107 0.707107 -0.000000
0.100000 0.225000 -0.775000 -1.000000 0.000000 -0.000000
0.100000 0.225000 -0.475000 -1.000000 0.000000 -0.000000
0.100000 0.237500 -0.475000 -1.000000 0.000000 -0.000000
0.100000 0.237500 -0.775000 -1.000000 0.000000 -0.000000
0.250000 0.375000 -0.475000 0.000000 0.000000 1.000000
0.400000 0.225000 -0.475000 0.000000 0.000000 1.000000
0.400000 0.237500 -0.475000 0.000000 0.000000 1.000000
0.250000 0.387500 -0.475000 0.000000 0.000000 1.000000
0.100000 0.225000 -0.475000 0.000000 0.000000 1.000000
0.100000 0.237500 -0.475000 0.000000 0.000000 1.000000
0.400000 0.225000 -0.775000 -0.000000 0.000000 -1.000000
0.400000 0.237500 -0.775000 -0.000000 0.000000 -1.000000
0.125000 0.000000 0.750000 -1.000000 -0.000000 0.000000
0.125000 0.250000 0.750000 -1.000000 -0.000000 0.000000
0.125000 0.250000 0.500000 -1.000000 -0.000000 0.000000
0.125000 -0.000000 0.500000 -1.000000 -0.000000 0.000000
0.375000 -0.000000 0.500000 -0.000000 -0.000000 -1.000000
0.125000 -0.000000 0.500000 -0.000000 -0.000000 -1.000000
0.125000 0.250000 0.500000 -0.000000 -0.000000 -1.000000
0.250000 0.375000 0.500000 -0.000000 -0.000000 -1.000000
0.375000 0.250000 0.500000 -0.000000 -0.000000 -1.000000
0.375000 -0.000000 0.500000 1.000000 -0.000000 0.000000
0.375000 0.250000 0.500000 1.000000 -0.000000 0.000000
0.375000 0.250000 0.750000 1.000000 -0.000000 0.000000
0.375000 0.000000 0.750000 1.000000 -0.000000 0.000000
0.125000 0.000000 0.750000 0.000000 0.000000 1.000000
0.375000 0.000000 0.750000 0.000000 0.000000 1.000000
0.375000 0.250000 0.750000 0.000000 0.000000 1.000000
0.250000 0.375000 0.750000 -0.000000 0.000000 1.000000
0.125000 0.250000 0.750000 -0.000000 0.000000 1.000000
0.375000 0.000000 0.750000 -0.000000 -1.000000 0.000000
0.125000 0.000000 0.750000 -0.000000 -1.000000 0.000000
0.125000 -0.000000 0.500000 -0.000000 -1.000000 0.000000
0.375000 -0.000000 0.500000 -0.000000 -1.000000 0.000000
0.375000 0.250000 0.750000 -0.707108 -0.707106 0.000000
0.375000 0.250000 0.500000 -0.707108 -0.707106 0.000000
0.400000 0.225000 0.475000 -0.707108 -0.707106 0.000000
0.400000 0.225000 0.775000 -0.707108 -0.707106 0.000000
0.400000 0.225000 0.775000 1.000000 0.000000 -0.000000
0.400000 0.225000 0.475000 1.000000 0.000000 -0.000000
0.400000 0.237500 0.475000 1.000000 0.000000 -0.000000
0.400000 0.237500 0.775000 1.000000 0.000000 -0.000000
0.250000 0.375000 0.500000 0.707107 -0.707107 0.000001
0.125000 0.250000 0.500000 0.707107 -0.707107 0.000001
0.100000 0.225000 0.475000 0.707107 -0.707107 0.000001
0.250000 0.375000 0.475000 0.707107 -0.707107 0.000001
0.250000 0.375000 0.475000 -0.000000 0.000000 -1.000000
0.100000 0.225000 0.475000 -0.000000 0.000000 -1.000000
0.100000 0.237500 0.475000 -0.000000 0.000000 -1.000000
0.250000 0.387500 0.475000 -0.000000 0.000000 -1.000000
0.250000 0.375000 0.750000 -0.707107 -0.707107 -0.000001
0.375000 0.250000 0.750000 -0.707107 -0.707107 -0.000001
0.400000 0.225000 0.775000 -0.707107 -0.707107 -0.000001
0.250000 0.375000 0.775000 -0.707107 -0.707107 -0.000001
0.125000 0.250000 0.500000 0.707107 -0.707106 0.000000
0.125000 0.250000 0.750000 0.707107 -0.707106 0.000000
0.100000 0.225000 0.775000 0.707107 -0.707106 0.000000
0.100000 0.225000 0.475000 0.707107 -0.707106 0.000000
0.125000 0.250000 0.750000 0.707107 -0.707107 0.000000
0.250000 0.375000 0.750000 0.707107 -0.707107 0.000000
0.250000 0.375000 0.775000 0.707107 -0.707107 0.000000
0.100000 0.225000 0.775000 0.707107 -0.707107 0.000000
0.375000 0.250000 0.500000 -0.707107 -0.707107 0.000002
0.250000 0.375000 0.500000 -0.707107 -0.707107 0.000002
0.250000 0.375000 0.475000 -0.707107 -0.707107 0.000002
0.400000 0.225000 0.475000 -0.707107 -0.707107 0.000002
0.400000 0.237500 0.475000 0.707107 0.707107 -0.000000
0.250000 0.387500 0.475000 0.707107 0.707107 -0.000000
0.250000 0.387500 0.775000 0.707107 0.707107 -0.000000
0.400000 0.237500 0.775000 0.707107 0.707107 -0.000000
0.250000 0.387500 0.775000 -0.707107 0.707107 -0.000000
0.250000 0.387500 0.475000 -0.707107 0.707107 -0.000000
0.100000 0.237500 0.475000 -0.707107 0.707107 -0.000000
0.100000 0.237500 0.775000 -0.707107 0.707107 -0.000000
0.100000 0.225000 0.475000 -1.000000 0.000000 -0.000000
0.100000 0.225000 0.775000 -1.000000 0.000000 -0.000000
0.100000 0.237500 0.775000 -1.000000 0.000000 -0.000000
0.100000 0.237500 0.475000 -1.000000 0.000000 -0.000000
0.250000 0.375000 0.775000 0.000000 0.000000 1.000000
0.400000 0.225000 0.775000 0.000000 0.000000 1.000000
0.400000 0.237500 0.775000 0.000000 0.000000 1.000000
0.250000 0.387500 0.775000 0.000000 0.000000 1.000000
0.100000 0.225000 0.775000 -0.000000 0.000000 1.000000
0.100000 0.237500 0.775000 -0.000000 0.000000 1.000000
0.400000 0.225000 0.475000 0.000000 0.000000 -1.000000
0.400000 0.237500 0.475000 0.000000 0.000000 -1.000000
-0.750000 0.000000 -0.375000 -0.000000 -0.000000 -1.000000
-0.750000 0.250000 -0.375000 -0.000000 -0.000000 -1.000000
-0.500000 0.250000 -0.375000 -0.000000 -0.000000 -1.000000
-0.500000 0.000000 -0.375000 -0.000000 -0.000000 -1.000000
-0.500000 0.000000 -0.125000 1.000000 0.000000 -0.000000
-0.500000 0.000000 -0.375000 1.000000 0.000000 -0.000000
-0.500000 0.250000 -0.375000 1.000000 0.000000 -0.000000
-0.500000 0.375000 -0.250000 1.000000 0.000000 -0.000000
-0.500000 0.250000 -0.125000 1.000000 0.000000 -0.000000
-0.500000 0.000000 -0.125000 0.000000 0.000000 1.000000
-0.500000 0.250000 -0.125000 0.000000 0.000000 1.000000
-0.750000 0.250000 -0.125000 0.000000 0.000000 1.000000
-0.750000 0.000000 -0.125000 0.000000 0.000000 1.000000
-0.750000 0.000000 -0.375000 -1.000000 -0.000000 -0.000000
-0.750000 0.000000 -0.125000 -1.000000 -0.000000 -0.000000
-0.750000 0.250000 -0.125000 -1.000000 -0.000000 -0.000000
-0.750000 0.375000 -0.250000 -1.000000 -0.000000 0.000000
-0.750000 0.250000 -0.375000 -1.000000 -0.000000 0.000000
-0.750000 0.000000 -0.125000 0.000000 -1.000000 0.000000
-0.750000 0.000000 -0.375000 0.000000 -1.000000 0.000000
-0.500000 0.000000 -0.375000 0.000000 -1.000000 0.000000
-0.500000 0.000000 -0.125000 0.000000 -1.000000 0.000000
-0.750000 0.250000 -0.125000 -0.000000 -0.707106 -0.707107
-0.500000 0.250000 -0.125000 -0.000000 -0.707106 -0.707107
-0.475000 0.225000 -0.100000 -0.000000 -0.707106 -0.707107
-0.775000 0.225000 -0.100000 -0.000000 -0.707106 -0.707107
-0.775000 0.225000 -0.100000 0.000000 0.000000 1.000000
-0.475000 0.225000 -0.100000 0.000000 0.000000 1.000000
-0.475000 0.237500 -0.100000 0.000000 0.000000 1.000000
-0.775000 0.237500 -0.100000 0.000000 0.000000 1.000000
-0.500000 0.375000 -0.250000 0.000000 -0.707107 0.707107
-0.500000 0.250000 -0.375000 0.000000 -0.707107 0.707107
-0.475000 0.225000 -0.400000 0.000000 -0.707107 0.707107
-0.475000 0.375000 -0.250000 0.000000 -0.707107 0.707107
-0.475000 0.375000 -0.250000 1.000000 0.000000 -0.000000
-0.475000 0.225000 -0.400000 1.000000 0.000000 -0.000000
-0.475000 0.237500 -0.400000 1.000000 0.000000 -0.000000
-0.475000 0.387500 -0.250000 1.000000 0.000000 -0.000000
-0.750000 0.375000 -0.250000 0.000001 -0.707107 -0.707107
-0.750000 0.250000 -0.125000 0.000001 -0.707107 -0.707107
-0.775000 0.225000 -0.100000 0.000001 -0.707107 -0.707107
-0.775000 0.375000 -0.250000 0.000001 -0.707107 -0.707107
-0.750000 0.250000 -0.375000 0.000000 -0.707107 0.707107
-0.775000 0.225000 -0.400000 0.000000 -0.707107 0.707107
-0.750000 0.375000 -0.250000 0.000000 -0.707107 0.707107
-0.775000 0.375000 -0.250000 0.000000 -0.707107 0.707107
-0.500000 0.250000 -0.125000 -0.000000 -0.707107 -0.707107
-0.500000 0.375000 -0.250000 -0.000000 -0.707107 -0.707107
-0.475000 0.375000 -0.250000 -0.000000 -0.707107 -0.707107
-0.475000 0.225000 -0.100000 -0.000000 -0.707107 -0.707107
-0.475000 0.237500 -0.100000 0.000000 0.707107 0.707107
-0.475000 0.387500 -0.250000 0.000000 0.707107 0.707107
-0.775000 0.387500 -0.250000 0.000000 0.707107 0.707107
-0.775000 0.237500 -0.100000 0.000000 0.707107 0.707107
-0.775000 0.387500 -0.250000 -0.000000 0.707107 -0.707107
-0.475000 0.387500 -0.250000 -0.000000 0.707107 -0.707107
-0.475000 0.237500 -0.400000 -0.000000 0.707107 -0.707107
-0.775000 0.237500 -0.400000 -0.000000 0.707107 -0.707107
-0.475000 0.225000 -0.400000 -0.000000 0.000000 -1.000000
-0.775000 0.225000 -0.400000 -0.000000 0.000000 -1.000000
-0.775000 0.237500 -0.400000 -0.000000 0.000000 -1.000000
-0.475000 0.237500 -0.400000 -0.000000 0.000000 -1.000000
-0.775000 0.375000 -0.250000 -1.000000 0.000000 0.000000
-0.775000 0.225000 -0.100000 -1.000000 0.000000 0.000000
-0.775000 0.237500 -0.100000 -1.000000 0.000000 0.000000
-0.775000 0.387500 -0.250000 -1.000000 0.000000 0.000000
-0.775000 0.225000 -0.400000 -1.000000 -0.000000 0.000000
-0.775000 0.237500 -0.400000 -1.000000 -0.000000 0.000000
-0.475000 0.225000 -0.100000 1.000000 0.000000 0.000000
-0.475000 0.237500 -0.100000 1.000000 0.000000 0.000000
0.750000 0.000000 0.375000 0.000000 0.000000 1.000000
0.750000 0.250000 0.375000 0.000000 0.000000 1.000000
0.500000 0.250000 0.375000 0.000000 0.000000 1.000000
0.500000 -0.000000 0.375000 0.000000 0.000000 1.000000
0.500000 -0.000000 0.125000 -1.000000 -0.000000 -0.000000
0.500000 -0.000000 0.375000 -1.000000 -0.000000 -0.000000
0.500000 0.250000 0.375000 -1.000000 -0.000000 -0.000000
0.500000 0.375000 0.250000 -1.000000 0.000000 0.000000
0.500000 0.250000 0.125000 -1.000000 0.000000 0.000000
0.500000 -0.000000 0.125000 0.000000 0.000000 -1.000000
0.500000 0.250000 0.125000 0.000000 0.000000 -1.000000
0.750000 0.250000 0.125000 0.000000 0.000000 -1.000000
0.750000 0.000000 0.125000 0.000000 0.000000 -1.000000
0.750000 0.000000 0.375000 1.000000 0.000000 -0.000000
0.750000 0.000000 0.125000 1.000000 0.000000 -0.000000
0.750000 0.250000 0.125000 1.000000 0.000000 -0.000000
0.750000 0.375000 0.250000 1.000000 0.000000 0.000000
0.750000 0.250000 0.375000 1.000000 0.000000 0.000000
0.750000 0.000000 0.125000 0.000000 -1.000000 0.000000
0.750000 0.000000 0.375000 0.000000 -1.000000 0.000000
0.500000 -0.000000 0.375000 0.000000 -1.000000 0.000000
0.500000 -0.000000 0.125000 0.000000 -1.000000 0.000000
0.750000 0.250000 0.125000 -0.000000 -0.707107 0.707107
0.500000 0.250000 0.125000 -0.000000 -0.707107 0.707107
0.475000 0.225000 0.100000 -0.000000 -0.707107 0.707107
0.775000 0.225000 0.100000 -0.000000 -0.707107 0.707107
0.775000 0.225000 0.100000 0.000000 0.000000 -1.000000
0.475000 0.225000 0.100000 0.000000 0.000000 -1.000000
0.475000 0.237500 0.100000 0.000000 0.000000 -1.000000
0.775000 0.237500 0.100000 0.000000 0.000000 -1.000000
0.500000 0.375000 0.250000 0.000000 -0.707107 -0.707107
0.500000 0.250000 0.375000 0.000000 -0.707107 -0.707107
0.475000 0.225000 0.400000 0.000000 -0.707107 -0.707107
0.475000 0.375000 0.250000 0.000000 -0.707107 -0.707107
0.475000 0.375000 0.250000 -1.000000 0.000000 0.000000
0.475000 0.225000 0.400000 -1.000000 0.000000 0.000000
0.475000 0.237500 0.400000 -1.000000 0.000000 0.000000
0.475000 0.387500 0.250000 -1.000000 0.000000 0.000000
0.750000 0.375000 0.250000 -0.000000 -0.707107 0.707107
0.775000 0.375000 0.250000 -0.000000 -0.707107 0.707107
0.750000 0.250000 0.375000 0.000000 -0.707107 -0.707107
0.775000 0.225000 0.400000 0.000000 -0.707107 -0.707107
0.750000 0.250000 0.375000 0.000001 -0.707107 -0.707107
0.750000 0.375000 0.250000 0.000001 -0.707107 -0.707107
0.775000 0.375000 0.250000 0.000001 -0.707107 -0.707107
0.775000 0.225000 0.400000 0.000001 -0.707107 -0.707107
0.500000 0.375000 0.250000 0.000000 -0.707107 0.707107
0.475000 0.375000 0.250000 0.000000 -0.707107 0.707107
0.475000 0.237500 0.100000 0.000000 0.707107 -0.707107
0.475000 0.387500 0.250000 0.000000 0.707107 -0.707107
0.775000 0.387500 0.250000 0.000000 0.707107 -0.707107
0.775000 0.237500 0.100000 0.000000 0.707107 -0.707107
0.775000 0.387500 0.250000 -0.000000 0.707107 0.707107
0.475000 0.387500 0.250000 -0.000000 0.707107 0.707107
0.475000 0.237500 0.400000 -0.000000 0.707107 0.707107
0.775000 0.237500 0.400000 -0.000000 0.707107 0.707107
0.475000 0.225000 0.400000 -0.000000 0.000000 1.000000
0.775000 0.225000 0.400000 -0.000000 0.000000 1.000000
0.775000 0.237500 0.400000 -0.000000 0.000000 1.000000
0.475000 0.237500 0.400000 -0.000000 0.000000 1.000000
0.775000 0.375000 0.250000 1.000000 0.000000 -0.000000
0.775000 0.225000 0.100000 1.000000 0.000000 -0.000000
0.775000 0.237500 0.100000 1.000000 0.000000 -0.000000
0.775000 0.387500 0.250000 1.000000 0.000000 -0.000000
0.775000 0.225000 0.400000 1.000000 0.000000 0.000000
0.775000 0.237500 0.400000 1.000000 0.000000 0.000000
0.475000 0.225000 0.100000 -1.000000 -0.000000 0.000000
0.475000 0.237500 0.100000 -1.000000 -0.000000 0.000000
0.750000 0.000000 -0.125000 -0.000000 -0.000000 1.000000
0.750000 0.250000 -0.125000 -0.000000 -0.000000 1.000000
0.500000 0.250000 -0.125000 -0.000000 -0.000000 1.000000
0.500000 -0.000000 -0.125000 -0.000000 -0.000000 1.000000
0.500000 -0.000000 -0.375000 -1.000000 -0.000000 0.000000
0.500000 -0.000000 -0.125000 -1.000000 -0.000000 0.000000
0.500000 0.250000 -0.125000 -1.000000 -0.000000 0.000000
0.500000 0.375000 -0.250000 -1.000000 0.000000 0.000000
0.500000 0.250000 -0.375000 -1.000000 0.000000 0.000000
0.500000 -0.000000 -0.375000 0.000000 0.000000 -1.000000
0.500000 0.250000 -0.375000 0.000000 0.000000 -1.000000
0.750000 0.250000 -0.375000 0.000000 0.000000 -1.000000
0.750000 0.000000 -0.375000 0.000000 0.000000 -1.000000
0.750000 0.000000 -0.125000 1.000000 0.000000 -0.000000
0.750000 0.000000 -0.375000 1.000000 0.000000 -0.000000
0.750000 0.250000 -0.375000 1.000000 0.000000 -0.000000
0.750000 0.375000 -0.250000 1.000000 0.000000 -0.000000
0.750000 0.250000 -0.125000 1.000000 0.000000 -0.000000
0.750000 0.000000 -0.375000 0.000000 -1.000000 -0.000000
0.750000 0.000000 -0.125000 0.000000 -1.000000 -0.000000
0.500000 -0.000000 -0.125000 0.000000 -1.000000 -0.000000
0.500000 -0.000000 -0.375000 0.000000 -1.000000 -0.000000
0.750000 0.250000 -0.375000 0.000000 -0.707107 0.707107
0.500000 0.250000 -0.375000 0.000000 -0.707107 0.707107
0.475000 0.225000 -0.400000 0.000000 -0.707107 0.707107
0.775000 0.225000 -0.400000 0.000000 -0.707107 0.707107
0.775000 0.225000 -0.400000 -0.000000 0.000000 -1.000000
0.475000 0.225000 -0.400000 -0.000000 0.000000 -1.000000
0.475000 0.237500 -0.400000 -0.000000 0.000000 -1.000000
0.775000 0.237500 -0.400000 -0.000000 0.000000 -1.000000
0.500000 0.375000 -0.250000 0.000000 -0.707107 -0.707107
0.500000 0.250000 -0.125000 0.000000 -0.707107 -0.707107
0.475000 0.225000 -0.100000 0.000000 -0.707107 -0.707107
0.475000 0.375000 -0.250000 0.000000 -0.707107 -0.707107
0.475000 0.375000 -0.250000 -1.000000 -0.000000 -0.000000
0.475000 0.225000 -0.100000 -1.000000 -0.000000 -0.000000
0.475000 0.237500 -0.100000 -1.000000 -0.000000 -0.000000
0.475000 0.387500 -0.250000 -1.000000 -0.000000 -0.000000
0.750000 0.375000 -0.250000 0.000000 -0.707107 0.707107
0.775000 0.375000 -0.250000 0.000000 -0.707107 0.707107
0.750000 0.250000 -0.125000 0.000000 -0.707107 -0.707107
0.775000 0.225000 -0.100000 0.000000 -0.707107 -0.707107
0.750000 0.375000 -0.250000 0.000000 -0.707107 -0.707107
0.775000 0.375000 -0.250000 0.000000 -0.707107 -0.707107
0.500000 0.250000 -0.375000 0.000001 -0.707107 0.707107
0.500000 0.375000 -0.250000 0.000001 -0.707107 0.707107
0.475000 0.375000 -0.250000 0.000001 -0.707107 0.707107
0.475000 0.225000 -0.400000 0.000001 -0.707107 0.707107
0.475000 0.237500 -0.400000 0.000000 0.707107 -0.707107
0.475000 0.387500 -0.250000 0.000000 0.707107 -0.707107
0.775000 0.387500 -0.250000 0.000000 0.707107 -0.707107
0.775000 0.237500 -0.400000 0.000000 0.707107 -0.707107
0.775000 0.387500 -0.250000 -0.000000 0.707107 0.707107
0.475000 0.387500 -0.250000 -0.000000 0.707107 0.707107
0.475000 0.237500 -0.100000 -0.000000 0.707107 0.707107
0.775000 0.237500 -0.100000 -0.000000 0.707107 0.707107
0.475000 0.225000 -0.100000 -0.000000 0.000000 1.000000
0.775000 0.225000 -0.100000 -0.000000 0.000000 1.000000
0.775000 0.237500 -0.100000 -0.000000 0.000000 1.000000
0.475000 0.237500 -0.100000 -0.000000 0.000000 1.000000
0.775000 0.375000 -0.250000 1.000000 0.000000 -0.000000
0.775000 0.225000 -0.400000 1.000000 0.000000 -0.000000
0.775000 0.237500 -0.400000 1.000000 0.000000 -0.000000
0.775000 0.387500 -0.250000 1.000000 0.000000 -0.000000
0.775000 0.225000 -0.100000 1.000000 0.000000 -0.000000
0.775000 0.237500 -0.100000 1.000000 0.000000 -0.000000
0.475000 0.225000 -0.400000 -1.000000 -0.000000 0.000000
0.475000 0.237500 -0.400000 -1.000000 -0.000000 0.000000
4 0 1 2 3
3 4 5 6
3 6 7 8
3 6 8 4
4 9 10 11 12
3 13 14 15
3 15 16 17
3 15 17 13
4 18 19 20 21
4 22 23 24 25
4 26 27 28 29
4 30 31 32 33
4 34 35 36 37
4 38 22 25 39
4 31 40 41 32
4 40 42 43 41
4 23 44 45 24
4 46 47 48 49
4 50 51 52 53
4 54 55 56 57
4 58 59 60 61
4 62 58 61 63
4 64 34 37 65
4 66 67 68 69
3 70 71 72
3 72 73 74
3 72 74 70
4 75 76 77 78
3 79 80 81
3 81 82 83
3 81 83 79
4 84 85 86 87
4 88 89 90 91
4 92 93 94 95
4 96 97 98 99
4 100 101 102 103
4 104 105 106 107
4 108 109 110 111
4 112 113 114 115
4 116 117 118 119
4 120 121 122 123
4 124 125 126 127
4 128 129 130 131
4 132 133 134 135
4 136 132 135 137
4 138 100 103 139
4 140 141 142 143
3 144 145 146
3 146 147 148
3 146 148 144
4 149 150 151 152
3 153 154 155
3 155 156 157
3 155 157 153
4 158 159 160 161
4 162 163 164 165
4 166 167 168 169
4 170 171 172 173
4 174 175 176 177
4 178 179 180 181
4 182 183 184 185
4 186 187 188 189
4 190 191 192 193
4 194 195 196 197
4 198 199 200 201
4 202 203 204 205
4 206 207 208 209
4 210 206 209 211
4 212 174 177 213
4 214 215 216 217
3 218 219 220
3 220 221 222
3 220 222 218
4 223 224 225 226
3 227 228 229
3 229 230 231
3 229 231 227
4 232 233 234 235
4 236 237 238 239
4 240 241 242 243
4 244 245 246 247
4 248 249 250 251
4 252 253 254 255
4 256 257 258 259
4 260 261 262 263
4 237 264 265 238
4 266 267 268 269
4 270 271 272 273
4 274 275 276 277
4 278 279 280 281
4 282 278 281 283
4 284 248 251 285
4 286 287 288 289
3 290 291 292
3 292 293 294
3 292 294 290
4 295 296 297 298
3 299 300 301
3 301 302 303
3 301 303 299
4 304 305 306 307
4 308 309 310 311
4 312 313 314 315
4 316 317 318 319
4 320 321 322 323
4 324 325 326 327
4 328 329 330 331
4 332 333 334 335
4 336 337 338 339
4 340 341 342 343
4 344 345 346 347
4 348 349 350 351
4 352 353 354 355
4 356 352 355 357
4 358 320 323 359
4 360 361 362 363
3 364 365 366
3 366 367 368
3 366 368 364
4 369 370 371 372
3 373 374 375
3 375 376 377
3 375 377 373
4 378 379 380 381
4 382 383 384 385
4 386 387 388 389
4 390 391 392 393
4 394 395 396 397
4 398 399 400 401
4 391 402 403 392
4 402 404 405 403
4 406 407 408 409
4 410 411 412 413
4 414 415 416 417
4 418 419 420 421
4 422 423 424 425
4 426 422 425 427
4 428 394 397 429
4 430 431 432 433
3 434 435 436
3 436 437 438
3 436 438 434
4 439 440 441 442
3 443 444 445
3 445 446 447
3 445 447 443
4 448 449 450 451
4 452 453 454 455
4 456 457 458 459
4 460 461 462 463
4 464 465 466 467
4 468 452 455 469
4 461 470 471 462
4 472 473 474 475
4 453 476 477 454
4 478 479 480 481
4 482 483 484 485
4 486 487 488 489
4 490 491 492 493
4 494 490 493 495
4 496 464 467 497
4 498 499 500 501
3 502 503 504
3 504 505 506
3 504 506 502
4 507 508 509 510
3 511 512 513
3 513 514 515
3 513 515 511
4 516 517 518 519
4 520 521 522 523
4 524 525 526 527
4 528 529 530 531
4 532 533 534 535
4 536 520 523 537
4 529 538 539 530
4 538 540 541 539
4 542 543 544 545
4 546 547 548 549
4 550 551 552 553
4 554 555 556 557
4 558 559 560 561
4 562 558 561 563
4 564 532 535 565
