ply
format ascii 1.0
comment Created by Blender 2.79 (sub 0) - www.blender.org, source file: 'untitled.blend'
element vertex 552
property float x
property float y
property float z
property float nx
property float ny
property float nz
element face 254
property list uchar uint vertex_indices
end_header
2.000000 -2.000000 4.000000 0.000000 -0.000000 -1.000000
1.000000 -2.000000 4.000000 0.000000 -0.000000 -1.000000
0.900000 -1.800000 4.000000 0.000000 -0.000000 -1.000000
1.800000 -1.800000 4.000000 0.000000 -0.000000 -1.000000
0.000000 3.500000 1.000000 0.000000 -0.000000 1.000000
-1.750000 3.500000 1.000000 0.000000 -0.000000 1.000000
-1.575000 3.150000 1.000000 0.000000 -0.000000 1.000000
0.000000 3.150000 1.000000 0.000000 -0.000000 1.000000
1.500000 0.750000 5.000000 -0.000000 0.000000 1.000000
1.500000 1.500000 5.000000 -0.000000 0.000000 1.000000
1.350000 1.350000 5.000000 -0.000000 0.000000 1.000000
1.350000 0.675000 5.000000 -0.000000 0.000000 1.000000
1.750000 3.500000 1.000000 0.000000 -0.000000 1.000000
1.575000 3.150000 1.000000 0.000000 -0.000000 1.000000
-4.000000 2.000000 0.000000 -0.000000 -0.000000 -1.000000
-4.000000 4.000000 0.000000 -0.000000 -0.000000 -1.000000
-2.000000 4.000000 0.000000 -0.000000 -0.000000 -1.000000
0.000000 4.000000 0.000000 0.000000 0.000000 0.000000
2.000000 4.000000 0.000000 0.000000 0.000000 0.000000
4.000000 4.000000 0.000000 0.000000 0.000000 0.000000
0.000000 4.000000 0.000000 -0.000000 0.000000 -1.000000
-4.000000 -4.000000 0.000000 0.000000 0.000000 0.000000
-4.000000 -2.000000 0.000000 0.000000 0.000000 0.000000
-4.000000 0.000000 0.000000 0.000000 0.000000 0.000000
-4.000000 0.000000 0.000000 0.000000 -0.000000 -1.000000
4.000000 4.000000 0.000000 0.000000 0.000000 -1.000000
4.000000 2.000000 0.000000 0.000000 0.000000 -1.000000
4.000000 0.000000 0.000000 0.000000 0.000000 0.000000
4.000000 -2.000000 0.000000 0.000000 0.000000 0.000000
4.000000 -4.000000 0.000000 0.000000 0.000000 0.000000
4.000000 0.000000 0.000000 0.000000 0.000000 -1.000000
-4.000000 -4.000000 0.000000 0.000000 -0.000000 -1.000000
2.000000 -4.000000 0.000000 0.000000 0.000000 0.000000
0.000000 -4.000000 0.000000 0.000000 0.000000 0.000000
-2.000000 -4.000000 0.000000 0.000000 0.000000 0.000000
-2.000000 -4.000000 0.000000 0.000000 -0.000000 -1.000000
4.000000 -4.000000 0.000000 0.000000 0.000000 -1.000000
2.000000 -4.000000 0.000000 0.000000 -0.000000 -1.000000
-1.000000 1.000000 6.000000 0.000000 0.000000 -1.000000
-0.500000 1.000000 6.000000 0.000000 0.000000 -1.000000
-0.450000 0.900000 6.000000 0.000000 0.000000 -1.000000
-0.900000 0.900000 6.000000 0.000000 0.000000 -1.000000
1.500000 0.000000 5.000000 -0.000000 0.000000 1.000000
1.350000 0.000000 5.000000 -0.000000 0.000000 1.000000
1.000000 0.500000 6.000000 0.000000 0.000000 -1.000000
1.000000 0.000000 6.000000 0.000000 0.000000 -1.000000
0.900000 0.000000 6.000000 0.000000 0.000000 -1.000000
0.900000 0.450000 6.000000 0.000000 0.000000 -1.000000
3.500000 3.500000 1.000000 0.000000 -0.000000 1.000000
3.150000 3.150000 1.000000 0.000000 -0.000000 1.000000
-3.000000 3.000000 2.000000 0.000000 0.000000 -1.000000
-1.500000 3.000000 2.000000 0.000000 0.000000 -1.000000
-1.350000 2.700000 2.000000 0.000000 0.000000 -1.000000
-2.700000 2.700000 2.000000 0.000000 0.000000 -1.000000
1.000000 -1.000000 6.000000 0.894427 0.000000 0.447214
1.000000 -0.500000 6.000000 0.894427 0.000000 0.447214
0.500000 -0.250000 7.000000 0.894427 0.000000 0.447214
0.500000 -0.500000 7.000000 0.894427 0.000000 0.447214
1.500000 -0.750000 5.000000 -0.000000 0.000000 1.000000
1.350000 -0.675000 5.000000 -0.000000 0.000000 1.000000
1.500000 1.500000 5.000000 0.894427 0.000000 0.447214
1.500000 0.750000 5.000000 0.894427 0.000000 0.447214
2.000000 1.000000 4.000000 0.894427 0.000000 0.447214
2.000000 2.000000 4.000000 0.894427 0.000000 0.447214
2.500000 2.500000 3.000000 0.894427 0.000000 0.447214
2.500000 1.250000 3.000000 0.894427 0.000000 0.447214
3.000000 1.500000 2.000000 0.894427 0.000000 0.447214
3.000000 3.000000 2.000000 0.894427 0.000000 0.447214
-2.000000 2.000000 4.000000 0.000000 0.000000 -1.000000
-1.000000 2.000000 4.000000 0.000000 0.000000 -1.000000
-0.900000 1.800000 4.000000 0.000000 0.000000 -1.000000
-1.800000 1.800000 4.000000 0.000000 0.000000 -1.000000
-1.500000 -1.500000 5.000000 0.000000 0.000000 1.000000
-0.750000 -1.500000 5.000000 0.000000 0.000000 1.000000
-0.675000 -1.350000 5.000000 0.000000 0.000000 1.000000
-1.350000 -1.350000 5.000000 0.000000 0.000000 1.000000
2.500000 0.000000 3.000000 0.894427 0.000000 0.447214
2.500000 -1.250000 3.000000 0.894427 0.000000 0.447214
3.000000 -1.500000 2.000000 0.894427 0.000000 0.447214
3.000000 0.000000 2.000000 0.894427 0.000000 0.447214
1.000000 0.000000 6.000000 0.894427 0.000000 0.447214
1.000000 0.500000 6.000000 0.894427 0.000000 0.447214
0.500000 0.250000 7.000000 0.894427 0.000000 0.447214
0.500000 0.000000 7.000000 0.894427 0.000000 0.447214
2.000000 1.000000 4.000000 0.000000 0.000000 -1.000000
2.000000 0.000000 4.000000 0.000000 0.000000 -1.000000
1.800000 0.000000 4.000000 0.000000 0.000000 -1.000000
1.800000 0.900000 4.000000 0.000000 0.000000 -1.000000
0.000000 -1.500000 5.000000 0.000000 0.000000 1.000000
0.000000 -1.350000 5.000000 0.000000 0.000000 1.000000
-1.000000 -0.500000 6.000000 -0.000000 0.000000 -1.000000
-1.000000 0.000000 6.000000 -0.000000 0.000000 -1.000000
-0.900000 0.000000 6.000000 -0.000000 0.000000 -1.000000
-0.900000 -0.450000 6.000000 -0.000000 0.000000 -1.000000
0.750000 -1.500000 5.000000 0.000000 0.000000 1.000000
1.500000 -1.500000 5.000000 0.000000 0.000000 1.000000
1.350000 -1.350000 5.000000 0.000000 0.000000 1.000000
0.675000 -1.350000 5.000000 0.000000 0.000000 1.000000
3.000000 1.500000 2.000000 0.000000 0.000000 -1.000000
3.000000 0.000000 2.000000 0.000000 0.000000 -1.000000
2.700000 0.000000 2.000000 0.000000 0.000000 -1.000000
2.700000 1.350000 2.000000 0.000000 0.000000 -1.000000
-1.000000 -1.000000 6.000000 0.000000 -0.894427 0.447214
-0.500000 -1.000000 6.000000 0.000000 -0.894427 0.447214
-0.250000 -0.500000 7.000000 0.000000 -0.894427 0.447214
-0.500000 -0.500000 7.000000 0.000000 -0.894427 0.447214
0.500000 0.500000 7.000000 0.000000 -0.000000 1.000000
0.250000 0.500000 7.000000 0.000000 -0.000000 1.000000
0.225000 0.450000 7.000000 0.000000 -0.000000 1.000000
0.450000 0.450000 7.000000 0.000000 -0.000000 1.000000
0.000000 -1.500000 5.000000 0.000000 -0.894427 0.447214
-0.750000 -1.500000 5.000000 0.000000 -0.894427 0.447214
-1.000000 -2.000000 4.000000 0.000000 -0.894427 0.447214
0.000000 -2.000000 4.000000 0.000000 -0.894427 0.447214
0.000000 -2.500000 3.000000 0.000000 -0.894427 0.447214
-1.250000 -2.500000 3.000000 0.000000 -0.894427 0.447214
-1.500000 -3.000000 2.000000 0.000000 -0.894427 0.447214
0.000000 -3.000000 2.000000 0.000000 -0.894427 0.447214
1.500000 -3.000000 2.000000 0.000000 -0.894427 0.447214
1.250000 -2.500000 3.000000 0.000000 -0.894427 0.447214
3.000000 -3.000000 2.000000 0.000000 -0.894427 0.447214
2.500000 -2.500000 3.000000 0.000000 -0.894427 0.447214
0.500000 -1.000000 6.000000 0.000000 -0.894427 0.447214
1.000000 -1.000000 6.000000 0.000000 -0.894427 0.447214
0.500000 -0.500000 7.000000 0.000000 -0.894427 0.447214
0.250000 -0.500000 7.000000 0.000000 -0.894427 0.447214
0.000000 -0.500000 7.000000 0.000000 -0.894427 0.447214
0.000000 -1.000000 6.000000 0.000000 -0.894427 0.447214
0.750000 -1.500000 5.000000 0.000000 -0.894427 0.447214
1.000000 -2.000000 4.000000 0.000000 -0.894427 0.447214
-2.000000 -1.000000 4.000000 -0.000000 0.000000 -1.000000
-2.000000 0.000000 4.000000 -0.000000 0.000000 -1.000000
-1.800000 0.000000 4.000000 -0.000000 0.000000 -1.000000
-1.800000 -0.900000 4.000000 -0.000000 0.000000 -1.000000
-0.500000 0.250000 7.000000 0.000000 0.000000 1.000000
-0.500000 0.000000 7.000000 0.000000 0.000000 1.000000
-0.450000 0.000000 7.000000 0.000000 0.000000 1.000000
-0.450000 0.225000 7.000000 0.000000 0.000000 1.000000
-1.500000 1.500000 5.000000 0.000000 0.000000 1.000000
-1.500000 0.750000 5.000000 0.000000 0.000000 1.000000
-1.350000 0.675000 5.000000 0.000000 0.000000 1.000000
-1.350000 1.350000 5.000000 0.000000 0.000000 1.000000
0.500000 -0.500000 7.000000 -0.000000 0.000000 1.000000
0.500000 -0.250000 7.000000 -0.000000 0.000000 1.000000
0.450000 -0.225000 7.000000 -0.000000 0.000000 1.000000
0.450000 -0.450000 7.000000 -0.000000 0.000000 1.000000
-1.500000 -0.750000 5.000000 0.000000 0.000000 1.000000
-1.350000 -0.675000 5.000000 0.000000 0.000000 1.000000
-1.000000 1.000000 6.000000 -0.894427 0.000000 0.447214
-1.000000 0.500000 6.000000 -0.894427 0.000000 0.447214
-0.500000 0.250000 7.000000 -0.894427 0.000000 0.447214
-0.500000 0.500000 7.000000 -0.894427 0.000000 0.447214
3.000000 -1.500000 2.000000 0.000000 0.000000 -1.000000
3.000000 -3.000000 2.000000 0.000000 0.000000 -1.000000
2.700000 -2.700000 2.000000 0.000000 0.000000 -1.000000
2.700000 -1.350000 2.000000 0.000000 0.000000 -1.000000
-1.500000 -1.500000 5.000000 -0.894427 0.000000 0.447214
-1.500000 -0.750000 5.000000 -0.894427 0.000000 0.447214
-2.000000 -1.000000 4.000000 -0.894427 0.000000 0.447214
-2.000000 -2.000000 4.000000 -0.894427 0.000000 0.447214
-2.500000 -2.500000 3.000000 -0.894427 0.000000 0.447214
-2.500000 -1.250000 3.000000 -0.894427 0.000000 0.447214
-3.000000 -1.500000 2.000000 -0.894427 0.000000 0.447214
-3.000000 -3.000000 2.000000 -0.894427 0.000000 0.447214
-3.000000 -1.500000 2.000000 -0.000000 0.000000 -1.000000
-3.000000 0.000000 2.000000 -0.000000 0.000000 -1.000000
-2.700000 0.000000 2.000000 -0.000000 0.000000 -1.000000
-2.700000 -1.350000 2.000000 -0.000000 0.000000 -1.000000
-0.500000 -0.250000 7.000000 0.000000 0.000000 1.000000
-0.500000 -0.500000 7.000000 0.000000 0.000000 1.000000
-0.450000 -0.450000 7.000000 0.000000 0.000000 1.000000
-0.450000 -0.225000 7.000000 0.000000 0.000000 1.000000
-2.500000 0.000000 3.000000 -0.894427 0.000000 0.447214
-2.500000 1.250000 3.000000 -0.894427 0.000000 0.447214
-3.000000 1.500000 2.000000 -0.894427 0.000000 0.447214
-3.000000 0.000000 2.000000 -0.894427 0.000000 0.447214
-1.000000 0.000000 6.000000 -0.894427 0.000000 0.447214
-1.000000 -0.500000 6.000000 -0.894427 0.000000 0.447214
-0.500000 -0.250000 7.000000 -0.894427 0.000000 0.447214
-0.500000 0.000000 7.000000 -0.894427 0.000000 0.447214
-1.500000 0.000000 5.000000 0.000000 0.000000 1.000000
-1.350000 0.000000 5.000000 0.000000 0.000000 1.000000
0.500000 0.000000 7.000000 -0.000000 0.000000 1.000000
0.450000 0.000000 7.000000 -0.000000 0.000000 1.000000
2.000000 -1.000000 4.000000 0.000000 0.000000 -1.000000
1.800000 -0.900000 4.000000 0.000000 0.000000 -1.000000
0.000000 -0.500000 7.000000 0.000000 0.000000 1.000000
0.250000 -0.500000 7.000000 0.000000 0.000000 1.000000
0.225000 -0.450000 7.000000 0.000000 0.000000 1.000000
0.000000 -0.450000 7.000000 0.000000 0.000000 1.000000
1.000000 1.000000 6.000000 0.000000 0.894427 0.447214
0.500000 1.000000 6.000000 0.000000 0.894427 0.447214
0.250000 0.500000 7.000000 0.000000 0.894427 0.447214
0.500000 0.500000 7.000000 0.000000 0.894427 0.447214
0.750000 1.500000 5.000000 0.000000 -0.000000 1.000000
0.675000 1.350000 5.000000 0.000000 -0.000000 1.000000
0.000000 1.500000 5.000000 0.000000 0.894427 0.447214
0.750000 1.500000 5.000000 0.000000 0.894427 0.447214
1.000000 2.000000 4.000000 0.000000 0.894427 0.447214
0.000000 2.000000 4.000000 0.000000 0.894427 0.447214
0.000000 2.500000 3.000000 0.000000 0.894427 0.447214
1.250000 2.500000 3.000000 0.000000 0.894427 0.447214
1.500000 3.000000 2.000000 0.000000 0.894427 0.447214
0.000000 3.000000 2.000000 0.000000 0.894427 0.447214
-1.500000 3.000000 2.000000 0.000000 0.894427 0.447214
-1.250000 2.500000 3.000000 0.000000 0.894427 0.447214
-3.000000 3.000000 2.000000 0.000000 0.894427 0.447214
-2.500000 2.500000 3.000000 0.000000 0.894427 0.447214
-3.000000 1.500000 2.000000 -0.000000 0.000000 -1.000000
-2.700000 1.350000 2.000000 -0.000000 0.000000 -1.000000
-0.500000 1.000000 6.000000 0.000000 0.894427 0.447214
-1.000000 1.000000 6.000000 0.000000 0.894427 0.447214
-0.500000 0.500000 7.000000 0.000000 0.894427 0.447214
-0.250000 0.500000 7.000000 0.000000 0.894427 0.447214
0.000000 0.500000 7.000000 0.000000 0.894427 0.447214
0.000000 1.000000 6.000000 0.000000 0.894427 0.447214
-0.750000 1.500000 5.000000 0.000000 0.894427 0.447214
-1.000000 2.000000 4.000000 0.000000 0.894427 0.447214
-0.250000 -0.500000 7.000000 0.000000 0.000000 1.000000
-0.225000 -0.450000 7.000000 0.000000 0.000000 1.000000
-2.000000 2.000000 4.000000 0.000000 0.894427 0.447214
-1.500000 1.500000 5.000000 0.000000 0.894427 0.447214
0.000000 1.500000 5.000000 0.000000 -0.000000 1.000000
0.000000 1.350000 5.000000 0.000000 -0.000000 1.000000
2.000000 2.000000 4.000000 0.000000 0.894427 0.447214
1.500000 1.500000 5.000000 0.000000 0.894427 0.447214
-2.000000 0.000000 4.000000 -0.894427 0.000000 0.447214
-1.500000 0.000000 5.000000 -0.894427 0.000000 0.447214
-1.500000 0.750000 5.000000 -0.894427 0.000000 0.447214
-2.000000 1.000000 4.000000 -0.894427 0.000000 0.447214
1.000000 -0.500000 6.000000 0.000000 0.000000 -1.000000
1.000000 -1.000000 6.000000 0.000000 0.000000 -1.000000
0.900000 -0.900000 6.000000 0.000000 0.000000 -1.000000
0.900000 -0.450000 6.000000 0.000000 0.000000 -1.000000
-2.000000 2.000000 4.000000 -0.894427 0.000000 0.447214
-1.500000 1.500000 5.000000 -0.894427 0.000000 0.447214
-0.250000 0.500000 7.000000 0.000000 -0.000000 1.000000
-0.500000 0.500000 7.000000 0.000000 -0.000000 1.000000
-0.450000 0.450000 7.000000 0.000000 -0.000000 1.000000
-0.225000 0.450000 7.000000 0.000000 -0.000000 1.000000
2.000000 -2.000000 4.000000 0.000000 -0.894427 0.447214
1.500000 -1.500000 5.000000 0.000000 -0.894427 0.447214
-0.750000 1.500000 5.000000 0.000000 -0.000000 1.000000
-0.675000 1.350000 5.000000 0.000000 -0.000000 1.000000
-2.000000 -2.000000 4.000000 0.000000 -0.894427 0.447214
-1.500000 -1.500000 5.000000 0.000000 -0.894427 0.447214
2.000000 0.000000 4.000000 0.894427 0.000000 0.447214
1.500000 0.000000 5.000000 0.894427 0.000000 0.447214
1.500000 -0.750000 5.000000 0.894427 0.000000 0.447214
2.000000 -1.000000 4.000000 0.894427 0.000000 0.447214
-2.000000 1.000000 4.000000 -0.000000 0.000000 -1.000000
-1.800000 0.900000 4.000000 -0.000000 0.000000 -1.000000
2.000000 -2.000000 4.000000 0.894427 0.000000 0.447214
1.500000 -1.500000 5.000000 0.894427 0.000000 0.447214
0.000000 0.500000 7.000000 0.000000 -0.000000 1.000000
0.000000 0.450000 7.000000 0.000000 -0.000000 1.000000
3.000000 3.000000 2.000000 0.000000 0.894427 0.447214
2.500000 2.500000 3.000000 0.000000 0.894427 0.447214
-1.000000 0.500000 6.000000 -0.000000 0.000000 -1.000000
-0.900000 0.450000 6.000000 -0.000000 0.000000 -1.000000
0.500000 0.250000 7.000000 -0.000000 0.000000 1.000000
0.450000 0.225000 7.000000 -0.000000 0.000000 1.000000
-3.000000 3.000000 2.000000 -0.894427 0.000000 0.447214
-2.500000 2.500000 3.000000 -0.894427 0.000000 0.447214
-3.000000 -3.000000 2.000000 0.000000 -0.894427 0.447214
-2.500000 -2.500000 3.000000 0.000000 -0.894427 0.447214
2.500000 -2.500000 3.000000 -0.000000 0.000000 1.000000
2.500000 -1.250000 3.000000 -0.000000 0.000000 1.000000
2.250000 -1.125000 3.000000 -0.000000 0.000000 1.000000
2.250000 -2.250000 3.000000 -0.000000 0.000000 1.000000
3.000000 -3.000000 2.000000 0.894427 0.000000 0.447214
2.500000 -2.500000 3.000000 0.894427 0.000000 0.447214
2.000000 4.000000 0.000000 0.000000 0.894427 0.447214
1.750000 3.500000 1.000000 0.000000 0.894427 0.447214
3.500000 3.500000 1.000000 0.000000 0.894427 0.447214
4.000000 4.000000 0.000000 0.000000 0.894427 0.447214
0.000000 4.000000 0.000000 0.000000 0.894427 0.447214
0.000000 3.500000 1.000000 0.000000 0.894427 0.447214
-2.000000 4.000000 0.000000 0.000000 0.894427 0.447214
-1.750000 3.500000 1.000000 0.000000 0.894427 0.447214
-4.000000 2.000000 0.000000 -0.894427 0.000000 0.447214
-3.500000 1.750000 1.000000 -0.894427 0.000000 0.447214
-3.500000 3.500000 1.000000 -0.894427 0.000000 0.447214
-4.000000 4.000000 0.000000 -0.894427 0.000000 0.447214
-4.000000 0.000000 0.000000 -0.894427 0.000000 0.447214
-3.500000 0.000000 1.000000 -0.894427 0.000000 0.447214
-4.000000 -2.000000 0.000000 -0.894427 0.000000 0.447214
-3.500000 -1.750000 1.000000 -0.894427 0.000000 0.447214
-3.500000 -3.500000 1.000000 0.000000 -0.894427 0.447214
-4.000000 -4.000000 0.000000 0.000000 -0.894427 0.447214
-2.000000 -4.000000 0.000000 0.000000 -0.894427 0.447214
-1.750000 -3.500000 1.000000 0.000000 -0.894427 0.447214
0.000000 -4.000000 0.000000 0.000000 -0.894427 0.447214
0.000000 -3.500000 1.000000 0.000000 -0.894427 0.447214
2.000000 -4.000000 0.000000 0.000000 -0.894427 0.447214
1.750000 -3.500000 1.000000 0.000000 -0.894427 0.447214
4.000000 -2.000000 0.000000 0.894427 0.000000 0.447214
3.500000 -1.750000 1.000000 0.894427 0.000000 0.447214
3.500000 -3.500000 1.000000 0.894427 0.000000 0.447214
4.000000 -4.000000 0.000000 0.894427 0.000000 0.447214
4.000000 0.000000 0.000000 0.894427 0.000000 0.447214
3.500000 0.000000 1.000000 0.894427 0.000000 0.447214
4.000000 2.000000 0.000000 0.894427 0.000000 0.447214
3.500000 1.750000 1.000000 0.894427 0.000000 0.447214
4.000000 -4.000000 0.000000 0.000000 -0.894427 0.447214
3.500000 -3.500000 1.000000 0.000000 -0.894427 0.447214
4.000000 4.000000 0.000000 0.894427 0.000000 0.447214
3.500000 3.500000 1.000000 0.894427 0.000000 0.447214
-4.000000 4.000000 0.000000 0.000000 0.894427 0.447214
-3.500000 3.500000 1.000000 0.000000 0.894427 0.447214
-4.000000 -4.000000 0.000000 -0.894427 0.000000 0.447214
-3.500000 -3.500000 1.000000 -0.894427 0.000000 0.447214
2.500000 1.250000 3.000000 -0.000000 0.000000 1.000000
2.500000 2.500000 3.000000 -0.000000 0.000000 1.000000
2.250000 2.250000 3.000000 -0.000000 0.000000 1.000000
2.250000 1.125000 3.000000 -0.000000 0.000000 1.000000
2.500000 0.000000 3.000000 -0.000000 0.000000 1.000000
2.250000 0.000000 3.000000 -0.000000 0.000000 1.000000
0.500000 0.500000 7.000000 0.894427 0.000000 0.447214
1.000000 1.000000 6.000000 0.894427 0.000000 0.447214
1.000000 1.000000 6.000000 0.000000 0.000000 -1.000000
0.900000 0.900000 6.000000 0.000000 0.000000 -1.000000
3.000000 3.000000 2.000000 0.000000 0.000000 -1.000000
2.700000 2.700000 2.000000 0.000000 0.000000 -1.000000
-0.500000 -0.500000 7.000000 -0.894427 0.000000 0.447214
-1.000000 -1.000000 6.000000 -0.894427 0.000000 0.447214
-2.500000 -2.500000 3.000000 0.000000 0.000000 1.000000
-1.250000 -2.500000 3.000000 0.000000 0.000000 1.000000
-1.125000 -2.250000 3.000000 0.000000 0.000000 1.000000
-2.250000 -2.250000 3.000000 0.000000 0.000000 1.000000
2.000000 2.000000 4.000000 0.000000 0.000000 -1.000000
1.800000 1.800000 4.000000 0.000000 0.000000 -1.000000
-3.150000 -3.150000 1.000000 -0.911922 0.000000 0.410365
-2.700000 -2.700000 2.000000 -0.911922 0.000000 0.410365
-2.700000 -1.350000 2.000000 -0.911922 0.000000 0.410365
-3.150000 -1.575000 1.000000 -0.911922 0.000000 0.410365
-3.150000 3.150000 1.000000 0.000000 0.911922 0.410365
-2.700000 2.700000 2.000000 0.000000 0.911922 0.410365
-1.350000 2.700000 2.000000 0.000000 0.911922 0.410365
-1.575000 3.150000 1.000000 0.000000 0.911922 0.410365
3.150000 3.150000 1.000000 0.911922 0.000000 0.410365
2.700000 2.700000 2.000000 0.911922 0.000000 0.410365
2.700000 1.350000 2.000000 0.911922 0.000000 0.410365
3.150000 1.575000 1.000000 0.911922 0.000000 0.410365
3.150000 -3.150000 1.000000 0.000000 -0.911922 0.410365
2.700000 -2.700000 2.000000 0.000000 -0.911922 0.410365
1.350000 -2.700000 2.000000 0.000000 -0.911922 0.410365
1.575000 -3.150000 1.000000 0.000000 -0.911922 0.410365
2.700000 0.000000 2.000000 0.911922 0.000000 0.410365
3.150000 0.000000 1.000000 0.911922 0.000000 0.410365
2.700000 -1.350000 2.000000 0.911922 0.000000 0.410365
3.150000 -1.575000 1.000000 0.911922 0.000000 0.410365
2.700000 -2.700000 2.000000 0.911922 0.000000 0.410365
3.150000 -3.150000 1.000000 0.911922 0.000000 0.410365
2.250000 -2.250000 3.000000 0.911921 0.000000 0.410365
2.250000 -1.125000 3.000000 0.911921 0.000000 0.410365
1.800000 -0.900000 4.000000 0.911921 0.000000 0.410365
1.800000 -1.800000 4.000000 0.911921 0.000000 0.410365
1.350000 -1.350000 5.000000 0.911922 0.000000 0.410365
1.350000 -0.675000 5.000000 0.911922 0.000000 0.410365
0.900000 -0.450000 6.000000 0.911922 0.000000 0.410365
0.900000 -0.900000 6.000000 0.911922 0.000000 0.410365
0.000000 0.000000 8.000000 0.911922 0.000000 0.410365
0.450000 0.225000 7.000000 0.911922 0.000000 0.410365
0.450000 0.450000 7.000000 0.911922 0.000000 0.410365
1.350000 0.675000 5.000000 0.911922 0.000000 0.410365
0.900000 0.450000 6.000000 0.911922 0.000000 0.410365
0.900000 0.000000 6.000000 0.911922 0.000000 0.410365
1.350000 0.000000 5.000000 0.911922 0.000000 0.410365
0.000000 -2.700000 2.000000 0.000000 -0.911922 0.410365
0.000000 -3.150000 1.000000 0.000000 -0.911922 0.410365
-1.350000 -2.700000 2.000000 0.000000 -0.911922 0.410365
-1.575000 -3.150000 1.000000 0.000000 -0.911922 0.410365
-2.700000 -2.700000 2.000000 0.000000 -0.911922 0.410365
-3.150000 -3.150000 1.000000 0.000000 -0.911922 0.410365
-2.250000 -2.250000 3.000000 0.000000 -0.911921 0.410365
-1.125000 -2.250000 3.000000 0.000000 -0.911921 0.410365
-0.900000 -1.800000 4.000000 0.000000 -0.911921 0.410365
-1.800000 -1.800000 4.000000 0.000000 -0.911921 0.410365
-1.350000 -1.350000 5.000000 0.000000 -0.911922 0.410365
-0.675000 -1.350000 5.000000 0.000000 -0.911922 0.410365
-0.450000 -0.900000 6.000000 0.000000 -0.911922 0.410365
-0.900000 -0.900000 6.000000 0.000000 -0.911922 0.410365
0.000000 0.000000 8.000000 0.000000 -0.911922 0.410365
-0.225000 -0.450000 7.000000 0.000000 -0.911922 0.410365
0.000000 -0.450000 7.000000 0.000000 -0.911922 0.410365
1.350000 -1.350000 5.000000 0.000000 -0.911922 0.410365
0.900000 -0.900000 6.000000 0.000000 -0.911922 0.410365
0.450000 -0.900000 6.000000 0.000000 -0.911922 0.410365
0.675000 -1.350000 5.000000 0.000000 -0.911922 0.410365
-2.700000 0.000000 2.000000 -0.911922 0.000000 0.410365
-3.150000 0.000000 1.000000 -0.911922 0.000000 0.410365
-2.700000 1.350000 2.000000 -0.911922 0.000000 0.410365
-3.150000 1.575000 1.000000 -0.911922 0.000000 0.410365
-2.700000 2.700000 2.000000 -0.911922 0.000000 0.410365
-3.150000 3.150000 1.000000 -0.911922 0.000000 0.410365
-2.250000 2.250000 3.000000 -0.911921 0.000000 0.410365
-2.250000 1.125000 3.000000 -0.911921 0.000000 0.410365
-1.800000 0.900000 4.000000 -0.911921 0.000000 0.410365
-1.800000 1.800000 4.000000 -0.911921 0.000000 0.410365
-1.350000 1.350000 5.000000 -0.911922 0.000000 0.410365
-1.350000 0.675000 5.000000 -0.911922 0.000000 0.410365
-0.900000 0.450000 6.000000 -0.911922 0.000000 0.410365
-0.900000 0.900000 6.000000 -0.911922 0.000000 0.410365
0.000000 0.000000 8.000000 -0.911922 0.000000 0.410365
-0.450000 -0.225000 7.000000 -0.911922 0.000000 0.410365
-0.450000 -0.450000 7.000000 -0.911922 0.000000 0.410365
-1.350000 -0.675000 5.000000 -0.911922 0.000000 0.410365
-0.900000 -0.450000 6.000000 -0.911922 0.000000 0.410365
-0.900000 0.000000 6.000000 -0.911922 0.000000 0.410365
-1.350000 0.000000 5.000000 -0.911922 0.000000 0.410365
0.000000 2.700000 2.000000 0.000000 0.911922 0.410365
0.000000 3.150000 1.000000 0.000000 0.911922 0.410365
1.350000 2.700000 2.000000 0.000000 0.911922 0.410365
1.575000 3.150000 1.000000 0.000000 0.911922 0.410365
2.700000 2.700000 2.000000 0.000000 0.911922 0.410365
3.150000 3.150000 1.000000 0.000000 0.911922 0.410365
2.250000 2.250000 3.000000 0.000000 0.911921 0.410365
1.125000 2.250000 3.000000 0.000000 0.911921 0.410365
0.900000 1.800000 4.000000 0.000000 0.911921 0.410365
1.800000 1.800000 4.000000 0.000000 0.911921 0.410365
1.350000 1.350000 5.000000 0.000000 0.911922 0.410365
0.675000 1.350000 5.000000 0.000000 0.911922 0.410365
0.450000 0.900000 6.000000 0.000000 0.911922 0.410365
0.900000 0.900000 6.000000 0.000000 0.911922 0.410365
0.000000 0.000000 8.000000 -0.000000 0.911922 0.410365
0.225000 0.450000 7.000000 -0.000000 0.911922 0.410365
0.000000 0.450000 7.000000 -0.000000 0.911922 0.410365
-1.350000 1.350000 5.000000 0.000000 0.911922 0.410365
-0.900000 0.900000 6.000000 0.000000 0.911922 0.410365
-0.450000 0.900000 6.000000 0.000000 0.911922 0.410365
-0.675000 1.350000 5.000000 0.000000 0.911922 0.410365
0.000000 0.900000 6.000000 0.000000 0.911922 0.410365
0.000000 1.350000 5.000000 0.000000 0.911922 0.410365
-0.900000 -0.900000 6.000000 -0.911922 0.000000 0.410365
-1.350000 -1.350000 5.000000 -0.911922 0.000000 0.410365
0.000000 -0.900000 6.000000 0.000000 -0.911922 0.410365
0.000000 -1.350000 5.000000 0.000000 -0.911922 0.410365
0.900000 0.900000 6.000000 0.911922 0.000000 0.410365
1.350000 1.350000 5.000000 0.911922 0.000000 0.410365
-0.900000 1.800000 4.000000 0.000000 0.911921 0.410365
-1.125000 2.250000 3.000000 0.000000 0.911921 0.410365
-2.250000 2.250000 3.000000 0.000000 0.911921 0.410365
-1.800000 1.800000 4.000000 0.000000 0.911921 0.410365
0.000000 1.800000 4.000000 0.000000 0.911921 0.410365
0.000000 2.250000 3.000000 0.000000 0.911921 0.410365
-1.800000 0.000000 4.000000 -0.911921 0.000000 0.410365
-2.250000 0.000000 3.000000 -0.911921 0.000000 0.410365
-2.250000 -1.125000 3.000000 -0.911921 0.000000 0.410365
-1.800000 -0.900000 4.000000 -0.911921 0.000000 0.410365
-1.800000 -1.800000 4.000000 -0.911921 0.000000 0.410365
-2.250000 -2.250000 3.000000 -0.911921 0.000000 0.410365
0.900000 -1.800000 4.000000 0.000000 -0.911921 0.410365
1.125000 -2.250000 3.000000 0.000000 -0.911921 0.410365
2.250000 -2.250000 3.000000 0.000000 -0.911921 0.410365
1.800000 -1.800000 4.000000 0.000000 -0.911921 0.410365
0.000000 -1.800000 4.000000 0.000000 -0.911921 0.410365
0.000000 -2.250000 3.000000 0.000000 -0.911921 0.410365
1.800000 0.000000 4.000000 0.911921 0.000000 0.410365
2.250000 0.000000 3.000000 0.911921 0.000000 0.410365
2.250000 1.125000 3.000000 0.911921 0.000000 0.410365
1.800000 0.900000 4.000000 0.911921 0.000000 0.410365
1.800000 1.800000 4.000000 0.911921 0.000000 0.410365
2.250000 2.250000 3.000000 0.911921 0.000000 0.410365
0.450000 0.000000 7.000000 0.911922 0.000000 0.410365
-0.225000 0.450000 7.000000 -0.000000 0.911922 0.410365
0.225000 -0.450000 7.000000 0.000000 -0.911922 0.410365
0.450000 -0.450000 7.000000 0.000000 -0.911922 0.410365
-0.450000 0.450000 7.000000 -0.911922 0.000000 0.410365
-0.450000 0.225000 7.000000 -0.911922 0.000000 0.410365
-0.450000 0.000000 7.000000 -0.911922 0.000000 0.410365
-0.450000 0.450000 7.000000 -0.000000 0.911922 0.410365
-0.450000 -0.450000 7.000000 0.000000 -0.911922 0.410365
0.450000 -0.225000 7.000000 0.911922 0.000000 0.410365
0.450000 -0.450000 7.000000 0.911922 0.000000 0.410365
0.450000 0.450000 7.000000 -0.000000 0.911922 0.410365
0.000000 1.000000 6.000000 0.000000 0.000000 -1.000000
0.500000 1.000000 6.000000 0.000000 0.000000 -1.000000
0.450000 0.900000 6.000000 0.000000 0.000000 -1.000000
0.000000 0.900000 6.000000 0.000000 0.000000 -1.000000
-3.500000 3.500000 1.000000 0.000000 0.000000 1.000000
-3.500000 1.750000 1.000000 0.000000 0.000000 1.000000
-3.150000 1.575000 1.000000 0.000000 0.000000 1.000000
-3.150000 3.150000 1.000000 0.000000 0.000000 1.000000
1.500000 -3.000000 2.000000 0.000000 -0.000000 -1.000000
1.350000 -2.700000 2.000000 0.000000 -0.000000 -1.000000
-3.500000 0.000000 1.000000 0.000000 0.000000 1.000000
-3.150000 0.000000 1.000000 0.000000 0.000000 1.000000
0.500000 -1.000000 6.000000 0.000000 -0.000000 -1.000000
0.450000 -0.900000 6.000000 0.000000 -0.000000 -1.000000
0.000000 2.000000 4.000000 0.000000 0.000000 -1.000000
1.000000 2.000000 4.000000 0.000000 0.000000 -1.000000
0.900000 1.800000 4.000000 0.000000 0.000000 -1.000000
0.000000 1.800000 4.000000 0.000000 0.000000 -1.000000
-3.500000 -1.750000 1.000000 0.000000 0.000000 1.000000
-3.150000 -1.575000 1.000000 0.000000 0.000000 1.000000
-3.500000 -3.500000 1.000000 0.000000 0.000000 1.000000
-1.750000 -3.500000 1.000000 0.000000 0.000000 1.000000
-1.575000 -3.150000 1.000000 0.000000 0.000000 1.000000
-3.150000 -3.150000 1.000000 0.000000 0.000000 1.000000
0.000000 -1.000000 6.000000 0.000000 -0.000000 -1.000000
-0.500000 -1.000000 6.000000 0.000000 -0.000000 -1.000000
-0.450000 -0.900000 6.000000 0.000000 -0.000000 -1.000000
0.000000 -0.900000 6.000000 0.000000 -0.000000 -1.000000
0.000000 3.000000 2.000000 0.000000 0.000000 -1.000000
1.500000 3.000000 2.000000 0.000000 0.000000 -1.000000
1.350000 2.700000 2.000000 0.000000 0.000000 -1.000000
0.000000 2.700000 2.000000 0.000000 0.000000 -1.000000
0.000000 -3.500000 1.000000 0.000000 0.000000 1.000000
0.000000 -3.150000 1.000000 0.000000 0.000000 1.000000
1.750000 -3.500000 1.000000 0.000000 0.000000 1.000000
1.575000 -3.150000 1.000000 0.000000 0.000000 1.000000
0.000000 -2.000000 4.000000 0.000000 -0.000000 -1.000000
-1.000000 -2.000000 4.000000 0.000000 -0.000000 -1.000000
-0.900000 -1.800000 4.000000 0.000000 -0.000000 -1.000000
0.000000 -1.800000 4.000000 0.000000 -0.000000 -1.000000
3.500000 -3.500000 1.000000 -0.000000 0.000000 1.000000
3.500000 -1.750000 1.000000 -0.000000 0.000000 1.000000
3.150000 -1.575000 1.000000 -0.000000 0.000000 1.000000
3.150000 -3.150000 1.000000 -0.000000 0.000000 1.000000
3.500000 0.000000 1.000000 -0.000000 0.000000 1.000000
3.150000 0.000000 1.000000 -0.000000 0.000000 1.000000
0.000000 -3.000000 2.000000 0.000000 -0.000000 -1.000000
-1.500000 -3.000000 2.000000 0.000000 -0.000000 -1.000000
-1.350000 -2.700000 2.000000 0.000000 -0.000000 -1.000000
0.000000 -2.700000 2.000000 0.000000 -0.000000 -1.000000
3.500000 1.750000 1.000000 -0.000000 0.000000 1.000000
3.150000 1.575000 1.000000 -0.000000 0.000000 1.000000
-3.000000 -3.000000 2.000000 0.000000 -0.000000 -1.000000
-2.700000 -2.700000 2.000000 0.000000 -0.000000 -1.000000
-2.000000 -2.000000 4.000000 0.000000 -0.000000 -1.000000
-1.800000 -1.800000 4.000000 0.000000 -0.000000 -1.000000
-1.000000 -1.000000 6.000000 0.000000 -0.000000 -1.000000
-0.900000 -0.900000 6.000000 0.000000 -0.000000 -1.000000
-1.250000 2.500000 3.000000 0.000000 -0.000000 1.000000
-2.500000 2.500000 3.000000 0.000000 -0.000000 1.000000
-2.250000 2.250000 3.000000 0.000000 -0.000000 1.000000
-1.125000 2.250000 3.000000 0.000000 -0.000000 1.000000
0.000000 2.500000 3.000000 0.000000 -0.000000 1.000000
0.000000 2.250000 3.000000 0.000000 -0.000000 1.000000
1.250000 2.500000 3.000000 0.000000 -0.000000 1.000000
1.125000 2.250000 3.000000 0.000000 -0.000000 1.000000
-2.500000 0.000000 3.000000 0.000000 0.000000 1.000000
-2.500000 -1.250000 3.000000 0.000000 0.000000 1.000000
-2.250000 -1.125000 3.000000 0.000000 0.000000 1.000000
-2.250000 0.000000 3.000000 0.000000 0.000000 1.000000
-2.500000 1.250000 3.000000 0.000000 0.000000 1.000000
-2.250000 1.125000 3.000000 0.000000 0.000000 1.000000
1.250000 -2.500000 3.000000 0.000000 0.000000 1.000000
1.125000 -2.250000 3.000000 0.000000 0.000000 1.000000
0.000000 -2.500000 3.000000 0.000000 0.000000 1.000000
0.000000 -2.250000 3.000000 0.000000 0.000000 1.000000
4 0 1 2 3
4 4 5 6 7
4 8 9 10 11
4 12 4 7 13
3 14 15 16
3 17 18 19
3 14 16 20
3 21 22 23
3 24 14 20
3 20 25 26
3 27 28 29
3 20 26 30
3 31 24 20
3 32 33 34
3 35 31 20
3 20 30 36
3 37 35 20
3 20 36 37
4 38 39 40 41
4 42 8 11 43
4 44 45 46 47
4 48 12 13 49
4 50 51 52 53
4 54 55 56 57
4 58 42 43 59
4 60 61 62 63
4 64 65 66 67
4 68 69 70 71
4 72 73 74 75
4 76 77 78 79
4 76 79 66 65
4 80 81 82 83
4 80 83 56 55
4 84 85 86 87
4 73 88 89 74
4 90 91 92 93
4 94 95 96 97
4 98 99 100 101
4 102 103 104 105
4 106 107 108 109
4 110 111 112 113
4 114 115 116 117
4 114 117 118 119
4 119 118 120 121
4 88 94 97 89
4 122 123 124 125
4 122 125 126 127
4 128 110 113 129
4 130 131 132 133
4 134 135 136 137
4 138 139 140 141
4 142 143 144 145
4 146 72 75 147
4 148 149 150 151
4 152 153 154 155
4 156 157 158 159
4 160 161 162 163
4 164 165 166 167
4 168 169 170 171
4 172 173 174 175
4 172 175 162 161
4 176 177 178 179
4 176 179 150 149
4 180 146 147 181
4 143 182 183 144
4 139 180 181 140
4 184 0 3 185
4 186 187 188 189
4 190 191 192 193
4 9 194 195 10
4 196 197 198 199
4 200 201 202 203
4 200 203 204 205
4 205 204 206 207
4 208 50 53 209
4 210 211 212 213
4 210 213 214 215
4 216 196 199 217
4 169 218 219 170
4 220 221 216 217
4 194 222 223 195
4 224 198 197 225
4 226 227 228 229
4 158 157 227 226
4 230 231 232 233
4 234 229 228 235
4 236 237 238 239
4 240 241 128 129
4 242 138 141 243
4 244 112 111 245
4 246 247 248 249
4 62 61 247 246
4 250 68 71 251
4 252 249 248 253
4 107 254 255 108
4 222 242 243 223
4 135 168 171 136
4 256 202 201 257
4 45 230 233 46
4 258 38 41 259
4 260 106 109 261
4 262 174 173 263
4 218 186 189 219
4 85 184 185 86
4 237 134 137 238
4 264 116 115 265
4 266 267 268 269
4 91 258 259 92
4 187 142 145 188
4 270 78 77 271
4 272 273 274 275
4 276 277 273 272
4 278 279 277 276
4 280 281 282 283
4 284 285 281 280
4 286 287 285 284
4 288 289 290 291
4 292 293 291 290
4 294 295 293 292
4 296 297 298 299
4 300 301 297 296
4 302 303 301 300
4 304 305 295 294
4 306 307 303 302
4 308 309 279 278
4 310 311 287 286
4 99 152 155 100
4 312 313 314 315
4 254 236 239 255
4 267 316 317 268
4 126 104 103 127
4 318 82 81 319
4 131 250 251 132
4 214 192 191 215
4 182 260 261 183
4 320 44 47 321
4 316 312 315 317
4 322 98 101 323
4 324 178 177 325
4 326 327 328 329
4 165 208 209 166
4 330 84 87 331
4 332 333 334 335
4 336 337 338 339
4 340 341 342 343
4 344 345 346 347
4 343 342 348 349
4 349 348 350 351
4 351 350 352 353
4 354 355 356 357
4 358 359 360 361
3 362 363 364
4 365 366 367 368
4 368 367 360 359
4 347 346 369 370
4 370 369 371 372
4 372 371 373 374
4 375 376 377 378
4 379 380 381 382
3 383 384 385
4 386 387 388 389
4 335 334 390 391
4 391 390 392 393
4 393 392 394 395
4 396 397 398 399
4 400 401 402 403
3 404 405 406
4 407 408 409 410
4 410 409 402 401
4 339 338 411 412
4 412 411 413 414
4 414 413 415 416
4 417 418 419 420
4 421 422 423 424
3 425 426 427
4 428 429 430 431
4 430 432 433 431
4 432 423 422 433
4 434 408 407 435
4 388 436 437 389
4 436 381 380 437
4 438 366 365 439
4 440 441 442 443
4 444 445 441 440
4 444 419 418 445
4 446 447 448 449
4 446 398 397 447
4 450 449 448 451
4 452 453 454 455
4 456 457 453 452
4 456 377 376 457
4 458 459 460 461
4 458 356 355 459
4 462 461 460 463
3 464 363 362
3 427 465 425
3 466 467 383
3 468 469 404
3 470 405 404
3 465 471 425
3 472 384 383
3 385 466 383
3 473 464 362
3 474 473 362
3 469 470 404
3 475 426 425
4 95 58 59 96
4 476 477 478 479
4 480 481 482 483
4 153 484 485 154
4 481 486 487 482
4 231 488 489 232
4 490 491 492 493
4 486 494 495 487
4 496 497 498 499
4 500 501 502 503
4 504 505 506 507
4 497 508 509 498
4 508 510 511 509
4 512 513 514 515
4 516 517 518 519
4 51 504 507 52
4 517 520 521 518
4 522 523 524 525
4 520 526 527 521
4 69 490 493 70
4 510 516 519 511
4 526 48 49 527
4 523 528 529 524
4 39 476 479 40
4 5 480 483 6
4 494 496 499 495
4 513 530 531 514
4 477 320 321 478
4 501 532 533 502
4 491 330 331 492
4 534 535 536 537
4 488 500 503 489
4 538 534 537 539
4 505 322 323 506
4 540 538 539 541
4 1 512 515 2
4 313 540 541 314
4 542 543 544 545
4 484 522 525 485
4 546 542 545 547
4 543 326 329 544
4 530 130 133 531
4 535 546 547 536
4 528 164 167 529
4 548 266 269 549
4 532 90 93 533
4 550 548 549 551
4 327 550 551 328
