ply
format ascii 1.0
comment Created by Blender 2.79 (sub 0) - www.blender.org, source file: 'untitled.blend'
element vertex 66
property float x
property float y
property float z
property float nx
property float ny
property float nz
element face 23
property list uchar uint vertex_indices
end_header
-0.500000 -0.500000 -0.028947 -1.000000 -0.000000 0.000000
-0.500000 -0.500000 0.971053 -1.000000 -0.000000 0.000000
-0.500000 0.500000 0.971053 -1.000000 -0.000000 0.000000
-0.500000 0.500000 -0.028947 -1.000000 -0.000000 0.000000
0.500000 0.500000 -0.028947 -0.000000 1.000000 0.000000
-0.500000 0.500000 -0.028947 -0.000000 1.000000 0.000000
-0.500000 0.500000 0.971053 -0.000000 1.000000 0.000000
0.000000 0.500000 1.471053 0.000000 1.000000 0.000000
0.500000 0.500000 0.971053 0.000000 1.000000 0.000000
0.500000 0.500000 -0.028947 1.000000 -0.000000 0.000000
0.500000 0.500000 0.971053 1.000000 -0.000000 0.000000
0.500000 -0.500000 0.971053 1.000000 -0.000000 0.000000
0.500000 -0.500000 -0.028947 1.000000 -0.000000 0.000000
-0.500000 -0.500000 -0.028947 -0.000000 -1.000000 -0.000000
0.500000 -0.500000 -0.028947 -0.000000 -1.000000 -0.000000
0.500000 -0.500000 0.971053 -0.000000 -1.000000 -0.000000
0.000000 -0.500000 1.471053 0.000000 -1.000000 0.000000
-0.500000 -0.500000 0.971053 0.000000 -1.000000 0.000000
0.500000 -0.500000 -0.028947 0.000000 -0.000000 -1.000000
-0.500000 -0.500000 -0.028947 0.000000 -0.000000 -1.000000
-0.500000 0.500000 -0.028947 0.000000 -0.000000 -1.000000
0.500000 0.500000 -0.028947 0.000000 -0.000000 -1.000000
0.500000 -0.500000 0.971053 -0.707107 0.000000 -0.707107
0.500000 0.500000 0.971053 -0.707107 0.000000 -0.707107
0.600000 0.600000 0.871053 -0.707107 0.000000 -0.707107
0.600000 -0.600000 0.871053 -0.707107 0.000000 -0.707107
0.600000 -0.600000 0.871053 1.000000 0.000000 0.000000
0.600000 0.600000 0.871053 1.000000 0.000000 0.000000
0.600000 0.600000 0.921053 1.000000 0.000000 0.000000
0.600000 -0.600000 0.921053 1.000000 0.000000 0.000000
0.000000 0.500000 1.471053 0.707107 0.000000 -0.707107
-0.500000 0.500000 0.971053 0.707107 0.000000 -0.707107
-0.600000 0.600000 0.871053 0.707107 0.000000 -0.707107
0.000000 0.600000 1.471053 0.707107 0.000000 -0.707107
0.000000 0.600000 1.471053 -0.000000 1.000000 0.000000
-0.600000 0.600000 0.871053 -0.000000 1.000000 0.000000
-0.600000 0.600000 0.921053 -0.000000 1.000000 0.000000
0.000000 0.600000 1.521053 -0.000000 1.000000 0.000000
0.000000 -0.500000 1.471053 -0.707107 0.000000 -0.707107
0.000000 -0.600000 1.471053 -0.707107 0.000000 -0.707107
-0.500000 -0.500000 0.971053 0.707107 0.000000 -0.707107
-0.600000 -0.600000 0.871053 0.707107 0.000000 -0.707107
0.000000 -0.500000 1.471053 0.707107 0.000000 -0.707107
0.000000 -0.600000 1.471053 0.707107 0.000000 -0.707107
0.000000 0.500000 1.471053 -0.707107 0.000000 -0.707107
0.000000 0.600000 1.471053 -0.707107 0.000000 -0.707107
0.600000 0.600000 0.921053 0.707107 0.000000 0.707107
0.000000 0.600000 1.521053 0.707107 0.000000 0.707107
0.000000 -0.600000 1.521053 0.707107 0.000000 0.707107
0.600000 -0.600000 0.921053 0.707107 0.000000 0.707107
0.000000 -0.600000 1.521053 -0.707107 0.000000 0.707107
0.000000 0.600000 1.521053 -0.707107 0.000000 0.707107
-0.600000 0.600000 0.921053 -0.707107 0.000000 0.707107
-0.600000 -0.600000 0.921053 -0.707107 0.000000 0.707107
-0.600000 0.600000 0.871053 -1.000000 0.000000 -0.000000
-0.600000 -0.600000 0.871053 -1.000000 0.000000 -0.000000
-0.600000 -0.600000 0.921053 -1.000000 0.000000 -0.000000
-0.600000 0.600000 0.921053 -1.000000 0.000000 -0.000000
0.000000 -0.600000 1.471053 -0.000000 -1.000000 -0.000000
0.600000 -0.600000 0.871053 -0.000000 -1.000000 -0.000000
0.600000 -0.600000 0.921053 -0.000000 -1.000000 -0.000000
0.000000 -0.600000 1.521053 -0.000000 -1.000000 -0.000000
-0.600000 -0.600000 0.871053 0.000000 -1.000000 -0.000000
-0.600000 -0.600000 0.921053 0.000000 -1.000000 -0.000000
0.600000 0.600000 0.871053 0.000000 1.000000 0.000000
0.600000 0.600000 0.921053 0.000000 1.000000 0.000000
4 0 1 2 3
3 4 5 6
3 6 7 8
3 6 8 4
4 9 10 11 12
3 13 14 15
3 15 16 17
3 15 17 13
4 18 19 20 21
4 22 23 24 25
4 26 27 28 29
4 30 31 32 33
4 34 35 36 37
4 38 22 25 39
4 31 40 41 32
4 40 42 43 41
4 23 44 45 24
4 46 47 48 49
4 50 51 52 53
4 54 55 56 57
4 58 59 60 61
4 62 58 61 63
4 64 34 37 65
