ply
format ascii 1.0
comment Created by Blender 2.79 (sub 0) - www.blender.org, source file: 'untitled.blend'
element vertex 428
property float x
property float y
property float z
property float nx
property float ny
property float nz
element face 174
property list uchar uint vertex_indices
end_header
0.000000 1.000000 1.250000 0.382683 0.923879 0.000000
0.000000 1.000000 2.000000 0.382683 0.923879 0.000000
0.707107 0.707107 2.000000 0.382683 0.923879 0.000000
0.707107 0.707107 1.250000 0.382683 0.923879 0.000000
0.707107 0.707107 1.250000 0.923880 0.382683 0.000000
0.707107 0.707107 2.000000 0.923880 0.382683 0.000000
1.000000 -0.000000 2.000000 0.923880 0.382683 0.000000
1.000000 -0.000000 1.250000 0.923880 0.382683 0.000000
1.000000 -0.000000 1.250000 0.923879 -0.382683 0.000000
1.000000 -0.000000 2.000000 0.923879 -0.382683 0.000000
0.707107 -0.707107 2.000000 0.923879 -0.382683 0.000000
0.707107 -0.707107 1.250000 0.923879 -0.382683 0.000000
0.707107 -0.707107 1.250000 0.382683 -0.923880 0.000000
0.707107 -0.707107 2.000000 0.382683 -0.923880 0.000000
-0.000000 -1.000000 2.000000 0.382683 -0.923880 0.000000
-0.000000 -1.000000 1.250000 0.382683 -0.923880 0.000000
-0.000000 -1.000000 1.250000 -0.382684 -0.923880 0.000000
-0.000000 -1.000000 2.000000 -0.382684 -0.923880 0.000000
-0.707107 -0.707107 2.000000 -0.382684 -0.923880 0.000000
-0.707107 -0.707107 1.250000 -0.382684 -0.923880 0.000000
-0.707107 -0.707107 1.250000 -0.923880 -0.382683 0.000000
-0.707107 -0.707107 2.000000 -0.923880 -0.382683 0.000000
-1.000000 0.000000 2.000000 -0.923880 -0.382683 0.000000
-1.000000 0.000000 1.250000 -0.923880 -0.382683 0.000000
0.707107 -0.707107 2.250000 0.923880 -0.382683 0.000000
1.000000 -0.000000 2.250000 0.923880 -0.382683 0.000000
1.000000 -0.000000 3.000000 0.923880 -0.382683 0.000000
0.707107 -0.707107 3.000000 0.923880 -0.382683 0.000000
-1.000000 0.000000 1.250000 -0.923880 0.382683 0.000000
-1.000000 0.000000 2.000000 -0.923880 0.382683 0.000000
-0.707107 0.707107 2.000000 -0.923880 0.382683 0.000000
-0.707107 0.707107 1.250000 -0.923880 0.382683 0.000000
-0.707107 0.707107 1.250000 -0.382683 0.923880 0.000000
-0.707107 0.707107 2.000000 -0.382683 0.923880 0.000000
0.000000 1.000000 2.000000 -0.382683 0.923880 0.000000
0.000000 1.000000 1.250000 -0.382683 0.923880 0.000000
-1.000000 0.000000 1.000000 -0.923880 0.382683 -0.000000
-0.707107 0.707107 1.000000 -0.923880 0.382683 -0.000000
-0.707107 0.707107 0.000000 -0.923880 0.382683 -0.000000
-1.000000 0.000000 0.000000 -0.923880 0.382683 -0.000000
-0.707107 0.707107 3.250000 -0.923880 0.382683 0.000000
-1.000000 0.000000 3.250000 -0.923880 0.382683 0.000000
-1.000000 0.000000 4.000000 -0.923880 0.382683 0.000000
-0.707107 0.707107 4.000000 -0.923880 0.382683 0.000000
-1.000000 0.000000 2.250000 -0.923880 -0.382683 0.000000
-0.707107 -0.707107 2.250000 -0.923880 -0.382683 0.000000
-0.707107 -0.707107 3.000000 -0.923880 -0.382683 0.000000
-1.000000 0.000000 3.000000 -0.923880 -0.382683 0.000000
-0.000000 -1.000000 2.250000 0.382683 -0.923880 0.000000
0.707107 -0.707107 2.250000 0.382683 -0.923880 0.000000
0.707107 -0.707107 3.000000 0.382683 -0.923880 0.000000
-0.000000 -1.000000 3.000000 0.382683 -0.923880 0.000000
-0.707107 0.707107 2.250000 -0.923880 0.382683 0.000000
-1.000000 0.000000 2.250000 -0.923880 0.382683 0.000000
-1.000000 0.000000 3.000000 -0.923880 0.382683 0.000000
-0.707107 0.707107 3.000000 -0.923880 0.382683 0.000000
1.000000 -0.000000 2.250000 0.923880 0.382683 0.000000
0.707107 0.707107 2.250000 0.923880 0.382683 0.000000
0.707107 0.707107 3.000000 0.923880 0.382683 0.000000
1.000000 -0.000000 3.000000 0.923880 0.382683 0.000000
-0.707107 -0.707107 2.250000 -0.382684 -0.923879 0.000000
-0.000000 -1.000000 2.250000 -0.382684 -0.923879 0.000000
-0.000000 -1.000000 3.000000 -0.382684 -0.923879 0.000000
-0.707107 -0.707107 3.000000 -0.382684 -0.923879 0.000000
0.000000 1.000000 2.250000 -0.382683 0.923880 0.000000
-0.707107 0.707107 2.250000 -0.382683 0.923880 0.000000
-0.707107 0.707107 3.000000 -0.382683 0.923880 0.000000
0.000000 1.000000 3.000000 -0.382683 0.923880 0.000000
0.707107 0.707107 2.250000 0.382683 0.923879 -0.000000
0.000000 1.000000 2.250000 0.382683 0.923879 -0.000000
0.000000 1.000000 3.000000 0.382683 0.923879 -0.000000
0.707107 0.707107 3.000000 0.382683 0.923879 -0.000000
1.000000 -0.000000 4.250000 0.923880 0.382683 -0.000000
0.707107 0.707107 4.250000 0.923880 0.382683 -0.000000
0.707107 0.707107 5.000000 0.923880 0.382683 -0.000000
1.000000 -0.000000 5.000000 0.923880 0.382683 -0.000000
-0.707107 -0.707107 3.250000 -0.382684 -0.923879 0.000000
-0.000000 -1.000000 3.250000 -0.382684 -0.923879 0.000000
-0.000000 -1.000000 4.000000 -0.382684 -0.923879 0.000000
-0.707107 -0.707107 4.000000 -0.382684 -0.923879 0.000000
0.707107 -0.707107 3.250000 0.923880 -0.382683 0.000000
1.000000 -0.000000 3.250000 0.923880 -0.382683 0.000000
1.000000 -0.000000 4.000000 0.923880 -0.382683 0.000000
0.707107 -0.707107 4.000000 0.923880 -0.382683 0.000000
0.707107 0.707107 3.250000 0.382683 0.923879 0.000000
0.000000 1.000000 3.250000 0.382683 0.923879 0.000000
0.000000 1.000000 4.000000 0.382683 0.923879 0.000000
0.707107 0.707107 4.000000 0.382683 0.923879 0.000000
0.000000 1.000000 3.250000 -0.382683 0.923880 0.000000
-0.707107 0.707107 3.250000 -0.382683 0.923880 0.000000
-0.707107 0.707107 4.000000 -0.382683 0.923880 0.000000
0.000000 1.000000 4.000000 -0.382683 0.923880 0.000000
-1.000000 0.000000 3.250000 -0.923880 -0.382683 0.000000
-0.707107 -0.707107 3.250000 -0.923880 -0.382683 0.000000
-0.707107 -0.707107 4.000000 -0.923880 -0.382683 0.000000
-1.000000 0.000000 4.000000 -0.923880 -0.382683 0.000000
-0.000000 -1.000000 3.250000 0.382683 -0.923880 0.000000
0.707107 -0.707107 3.250000 0.382683 -0.923880 0.000000
0.707107 -0.707107 4.000000 0.382683 -0.923880 0.000000
-0.000000 -1.000000 4.000000 0.382683 -0.923880 0.000000
1.000000 -0.000000 3.250000 0.923880 0.382683 0.000000
0.707107 0.707107 3.250000 0.923880 0.382683 0.000000
0.707107 0.707107 4.000000 0.923880 0.382683 0.000000
1.000000 -0.000000 4.000000 0.923880 0.382683 0.000000
0.000000 1.000000 5.250000 -0.382683 0.923880 -0.000000
-0.707107 0.707107 5.250000 -0.382683 0.923880 -0.000000
-0.707107 0.707107 6.000000 -0.382683 0.923880 -0.000000
-0.000000 1.000000 6.000000 -0.382683 0.923880 -0.000000
-0.707107 0.707107 4.250000 -0.923880 0.382683 0.000000
-1.000000 0.000000 4.250000 -0.923880 0.382683 0.000000
-1.000000 0.000000 5.000000 -0.923880 0.382683 0.000000
-0.707106 0.707107 5.000000 -0.923880 0.382683 0.000000
-0.707107 -0.707107 4.250000 -0.382684 -0.923879 0.000000
0.000000 -1.000000 4.250000 -0.382684 -0.923879 0.000000
0.000000 -1.000000 5.000000 -0.382684 -0.923879 0.000000
-0.707106 -0.707107 5.000000 -0.382684 -0.923879 0.000000
0.707107 -0.707107 4.250000 0.923880 -0.382683 -0.000000
1.000000 -0.000000 4.250000 0.923880 -0.382683 -0.000000
1.000000 -0.000000 5.000000 0.923880 -0.382683 -0.000000
0.707107 -0.707107 5.000000 0.923880 -0.382683 -0.000000
0.707107 0.707107 4.250000 0.382683 0.923880 -0.000000
0.000000 1.000000 4.250000 0.382683 0.923880 -0.000000
0.000000 1.000000 5.000000 0.382683 0.923880 -0.000000
0.707107 0.707107 5.000000 0.382683 0.923880 -0.000000
0.000000 1.000000 4.250000 -0.382683 0.923880 0.000000
-0.707107 0.707107 4.250000 -0.382683 0.923880 0.000000
-0.707106 0.707107 5.000000 -0.382683 0.923880 0.000000
0.000000 1.000000 5.000000 -0.382683 0.923880 0.000000
-1.000000 0.000000 4.250000 -0.923880 -0.382683 0.000000
-0.707107 -0.707107 4.250000 -0.923880 -0.382683 0.000000
-0.707106 -0.707107 5.000000 -0.923880 -0.382683 0.000000
-1.000000 0.000000 5.000000 -0.923880 -0.382683 0.000000
0.000000 -1.000000 4.250000 0.382683 -0.923880 -0.000000
0.707107 -0.707107 4.250000 0.382683 -0.923880 -0.000000
0.707107 -0.707107 5.000000 0.382683 -0.923880 -0.000000
0.000000 -1.000000 5.000000 0.382683 -0.923880 -0.000000
0.707107 -0.707107 6.250000 0.923880 -0.382683 -0.000001
1.000000 -0.000000 6.250000 0.923880 -0.382683 -0.000001
1.000000 -0.000000 7.000000 0.923880 -0.382683 -0.000001
0.707107 -0.707107 7.000000 0.923880 -0.382683 -0.000001
-1.000000 0.000000 5.250000 -0.923880 -0.382683 -0.000001
-0.707107 -0.707107 5.250000 -0.923880 -0.382683 -0.000001
-0.707107 -0.707107 6.000000 -0.923880 -0.382683 -0.000001
-1.000000 0.000000 6.000000 -0.923880 -0.382683 -0.000001
0.000000 -1.000000 5.250000 0.382683 -0.923880 0.000000
0.707107 -0.707107 5.250000 0.382683 -0.923880 0.000000
0.707107 -0.707107 6.000000 0.382683 -0.923880 0.000000
-0.000000 -1.000000 6.000000 0.382683 -0.923880 0.000000
1.000000 -0.000000 5.250000 0.923880 0.382683 0.000001
0.707107 0.707107 5.250000 0.923880 0.382683 0.000001
0.707107 0.707107 6.000000 0.923880 0.382683 0.000001
1.000000 -0.000000 6.000000 0.923880 0.382683 0.000001
-0.707107 0.707107 5.250000 -0.923880 0.382683 -0.000001
-1.000000 0.000000 5.250000 -0.923880 0.382683 -0.000001
-1.000000 0.000000 6.000000 -0.923880 0.382683 -0.000001
-0.707107 0.707107 6.000000 -0.923880 0.382683 -0.000001
-0.707107 -0.707107 5.250000 -0.382684 -0.923879 -0.000000
0.000000 -1.000000 5.250000 -0.382684 -0.923879 -0.000000
-0.000000 -1.000000 6.000000 -0.382684 -0.923879 -0.000000
-0.707107 -0.707107 6.000000 -0.382684 -0.923879 -0.000000
0.707107 -0.707107 5.250000 0.923879 -0.382683 0.000001
1.000000 -0.000000 5.250000 0.923879 -0.382683 0.000001
1.000000 -0.000000 6.000000 0.923879 -0.382683 0.000001
0.707107 -0.707107 6.000000 0.923879 -0.382683 0.000001
0.707107 0.707107 5.250000 0.382683 0.923879 0.000000
0.000000 1.000000 5.250000 0.382683 0.923879 0.000000
-0.000000 1.000000 6.000000 0.382683 0.923879 0.000000
0.707107 0.707107 6.000000 0.382683 0.923879 0.000000
-0.707106 0.707107 7.262952 -0.382683 0.923879 0.000000
-0.707106 0.707107 8.051807 -0.382683 0.923879 0.000000
0.000001 1.000000 8.000000 -0.382683 0.923879 0.000000
0.000000 1.000000 7.262952 -0.382683 0.923879 0.000000
0.707107 0.707107 6.250000 0.382683 0.923880 -0.000000
-0.000000 1.000000 6.250000 0.382683 0.923880 -0.000000
0.000000 1.000000 7.000000 0.382683 0.923880 -0.000000
0.707107 0.707107 7.000000 0.382683 0.923880 -0.000000
-0.000000 1.000000 6.250000 -0.382683 0.923880 0.000000
-0.707107 0.707107 6.250000 -0.382683 0.923880 0.000000
-0.707106 0.707107 7.000000 -0.382683 0.923880 0.000000
0.000000 1.000000 7.000000 -0.382683 0.923880 0.000000
-1.000000 0.000000 6.250000 -0.923880 -0.382683 0.000001
-0.707107 -0.707107 6.250000 -0.923880 -0.382683 0.000001
-0.707106 -0.707107 7.000000 -0.923880 -0.382683 0.000001
-1.000000 0.000000 7.000000 -0.923880 -0.382683 0.000001
-0.000000 -1.000000 6.250000 0.382683 -0.923880 -0.000000
0.707107 -0.707107 6.250000 0.382683 -0.923880 -0.000000
0.707107 -0.707107 7.000000 0.382683 -0.923880 -0.000000
0.000000 -1.000000 7.000000 0.382683 -0.923880 -0.000000
1.000000 -0.000000 6.250000 0.923880 0.382683 -0.000001
0.707107 0.707107 6.250000 0.923880 0.382683 -0.000001
0.707107 0.707107 7.000000 0.923880 0.382683 -0.000001
1.000000 -0.000000 7.000000 0.923880 0.382683 -0.000001
-0.707107 0.707107 6.250000 -0.923880 0.382683 0.000001
-1.000000 0.000000 6.250000 -0.923880 0.382683 0.000001
-1.000000 0.000000 7.000000 -0.923880 0.382683 0.000001
-0.707106 0.707107 7.000000 -0.923880 0.382683 0.000001
-0.707107 -0.707107 6.250000 -0.382684 -0.923879 0.000000
-0.000000 -1.000000 6.250000 -0.382684 -0.923879 0.000000
0.000000 -1.000000 7.000000 -0.382684 -0.923879 0.000000
-0.707106 -0.707107 7.000000 -0.382684 -0.923879 0.000000
0.000000 -1.000000 7.262952 -0.382684 -0.923879 0.000000
0.000001 -1.000000 9.000000 -0.382684 -0.923879 0.000000
-0.707106 -0.707107 8.607245 -0.382684 -0.923879 0.000000
-0.707106 -0.707107 7.262952 -0.382684 -0.923879 0.000000
-0.707106 -0.707107 7.262952 -0.923880 -0.382683 0.000000
-0.707106 -0.707107 8.607245 -0.923880 -0.382683 0.000000
-0.999999 0.000000 8.274284 -0.923880 -0.382683 0.000000
-1.000000 0.000000 7.262952 -0.923880 -0.382683 0.000000
0.000000 -1.000000 7.262952 0.382683 -0.923880 -0.000000
0.707107 -0.707107 7.262952 0.382683 -0.923880 -0.000000
0.707107 -0.707107 8.607245 0.382683 -0.923880 -0.000000
0.000001 -1.000000 9.000000 0.382683 -0.923880 -0.000000
0.707107 0.707107 7.262952 0.923880 0.382683 -0.000000
0.707107 0.707107 8.051807 0.923880 0.382683 -0.000000
1.000001 -0.000000 8.274284 0.923880 0.382683 -0.000000
1.000000 -0.000000 7.262952 0.923880 0.382683 -0.000000
-0.707107 0.707107 0.000000 -0.000000 0.000000 -1.000000
0.000000 1.000000 0.000000 -0.000000 0.000000 -1.000000
0.707107 0.707107 0.000000 -0.000000 0.000000 -1.000000
1.000000 -0.000000 0.000000 0.000000 0.000000 -1.000000
0.707107 -0.707107 0.000000 0.000000 0.000000 -1.000000
-0.000000 -1.000000 0.000000 0.000000 0.000000 -1.000000
-0.707107 -0.707107 0.000000 0.000000 0.000000 -1.000000
-1.000000 0.000000 0.000000 0.000000 -0.000000 -1.000000
-1.000000 0.000000 7.262952 -0.923880 0.382683 0.000000
-0.999999 0.000000 8.274284 -0.923880 0.382683 0.000000
-0.707106 0.707107 8.051807 -0.923880 0.382683 0.000000
-0.707106 0.707107 7.262952 -0.923880 0.382683 0.000000
1.000000 -0.000000 1.000000 0.923880 -0.382683 0.000000
0.707107 -0.707107 1.000000 0.923880 -0.382683 0.000000
0.707107 -0.707107 0.000000 0.923880 -0.382683 0.000000
1.000000 -0.000000 0.000000 0.923880 -0.382683 0.000000
1.000000 -0.000000 7.262952 0.923880 -0.382684 -0.000000
1.000001 -0.000000 8.274284 0.923880 -0.382684 -0.000000
0.707107 -0.707107 8.607245 0.923880 -0.382684 -0.000000
0.707107 -0.707107 7.262952 0.923880 -0.382684 -0.000000
0.707107 0.707107 8.051807 0.172909 0.360063 0.916764
0.707107 -0.707107 8.607245 0.172909 0.360063 0.916764
1.000001 -0.000000 8.274284 0.172909 0.360063 0.916764
0.707107 -0.707107 1.000000 0.382683 -0.923880 0.000000
-0.000000 -1.000000 1.000000 0.382683 -0.923880 0.000000
-0.000000 -1.000000 0.000000 0.382683 -0.923880 0.000000
0.707107 -0.707107 0.000000 0.382683 -0.923880 0.000000
-0.000000 -1.000000 1.000000 -0.382684 -0.923879 -0.000000
-0.707107 -0.707107 1.000000 -0.382684 -0.923879 -0.000000
-0.707107 -0.707107 0.000000 -0.382684 -0.923879 -0.000000
-0.000000 -1.000000 0.000000 -0.382684 -0.923879 -0.000000
0.000000 1.000000 1.000000 0.382683 0.923880 0.000000
0.707107 0.707107 1.000000 0.382683 0.923880 0.000000
0.707107 0.707107 0.000000 0.382683 0.923880 0.000000
0.000000 1.000000 0.000000 0.382683 0.923880 0.000000
-0.707107 -0.707107 1.000000 -0.923880 -0.382683 -0.000000
-1.000000 0.000000 1.000000 -0.923880 -0.382683 -0.000000
-1.000000 0.000000 0.000000 -0.923880 -0.382683 -0.000000
-0.707107 -0.707107 0.000000 -0.923880 -0.382683 -0.000000
0.707107 0.707107 1.000000 0.923880 0.382683 0.000000
1.000000 -0.000000 1.000000 0.923880 0.382683 0.000000
1.000000 -0.000000 0.000000 0.923880 0.382683 0.000000
0.707107 0.707107 0.000000 0.923880 0.382683 0.000000
-0.707107 0.707107 1.000000 -0.382683 0.923880 -0.000000
0.000000 1.000000 1.000000 -0.382683 0.923880 -0.000000
0.000000 1.000000 0.000000 -0.382683 0.923880 -0.000000
-0.707107 0.707107 0.000000 -0.382683 0.923880 -0.000000
0.707107 -0.707107 8.607245 0.082941 0.364310 0.927577
0.707107 0.707107 8.051807 0.082941 0.364310 0.927577
0.000001 1.000000 8.000000 0.082941 0.364310 0.927577
0.000001 1.000000 8.000000 -0.082941 0.364310 0.927577
-0.707106 0.707107 8.051807 -0.082941 0.364310 0.927577
-0.707106 -0.707107 8.607245 -0.082941 0.364310 0.927577
-0.707106 -0.707107 8.607245 -0.172909 0.360063 0.916764
-0.707106 0.707107 8.051807 -0.172909 0.360063 0.916764
-0.999999 0.000000 8.274284 -0.172909 0.360063 0.916764
-0.707106 -0.707107 8.607245 -0.297455 0.426971 0.853942
0.000001 -1.000000 9.000000 -0.297455 0.426971 0.853942
0.000001 1.000000 8.000000 -0.297455 0.426971 0.853942
0.000001 -1.000000 9.000000 0.297455 0.426971 0.853942
0.707107 -0.707107 8.607245 0.297455 0.426971 0.853942
0.000001 1.000000 8.000000 0.297455 0.426971 0.853942
0.000000 1.000000 7.262952 0.382683 0.923880 -0.000000
0.000001 1.000000 8.000000 0.382683 0.923880 -0.000000
0.707107 0.707107 8.051807 0.382683 0.923880 -0.000000
0.707107 0.707107 7.262952 0.382683 0.923880 -0.000000
-0.000000 -1.000000 1.250000 -0.382684 -0.923879 0.000000
-0.707107 -0.707107 1.250000 -0.382684 -0.923879 0.000000
1.000000 -0.000000 1.250000 0.923880 -0.382683 0.000000
0.707107 -0.707107 1.250000 0.923880 -0.382683 0.000000
0.000000 1.000000 1.250000 0.382683 0.923880 0.000000
0.707107 0.707107 1.250000 0.382683 0.923880 0.000000
0.707107 0.707107 2.000000 0.382683 0.923880 -0.000000
0.000000 1.000000 2.000000 0.382683 0.923880 -0.000000
0.000000 1.000000 2.250000 0.382683 0.923880 -0.000000
0.707107 0.707107 2.250000 0.382683 0.923880 -0.000000
0.000000 1.000000 2.000000 -0.382684 0.923880 0.000000
-0.707107 0.707107 2.000000 -0.382684 0.923880 0.000000
-0.707107 0.707107 2.250000 -0.382684 0.923880 0.000000
0.000000 1.000000 2.250000 -0.382684 0.923880 0.000000
-0.707107 -0.707107 2.000000 -0.382684 -0.923879 0.000000
-0.000000 -1.000000 2.000000 -0.382684 -0.923879 0.000000
0.707107 -0.707107 2.000000 0.923880 -0.382683 -0.000000
1.000000 -0.000000 2.000000 0.923880 -0.382683 -0.000000
0.707107 0.707107 3.000000 0.382683 0.923880 0.000000
0.000000 1.000000 3.000000 0.382683 0.923880 0.000000
0.000000 1.000000 3.250000 0.382683 0.923880 0.000000
0.707107 0.707107 3.250000 0.382683 0.923880 0.000000
-0.707107 -0.707107 3.000000 -0.382684 -0.923880 0.000000
-0.000000 -1.000000 3.000000 -0.382684 -0.923880 0.000000
-0.000000 -1.000000 3.250000 -0.382684 -0.923880 0.000000
-0.707107 -0.707107 3.250000 -0.382684 -0.923880 0.000000
0.000000 1.000000 4.000000 -0.382684 0.923880 0.000000
-0.707107 0.707107 4.000000 -0.382684 0.923880 0.000000
-0.707107 0.707107 4.250000 -0.382684 0.923880 0.000000
0.000000 1.000000 4.250000 -0.382684 0.923880 0.000000
0.707107 0.707107 4.000000 0.382683 0.923880 -0.000000
0.000000 1.000000 4.000000 0.382683 0.923880 -0.000000
-0.707107 -0.707107 4.000000 -0.382684 -0.923880 0.000000
-0.000000 -1.000000 4.000000 -0.382684 -0.923880 0.000000
0.000000 -1.000000 4.250000 -0.382684 -0.923880 0.000000
-0.707107 -0.707107 4.250000 -0.382684 -0.923880 0.000000
0.000000 1.000000 5.250000 0.382683 0.923880 0.000000
0.707107 0.707107 5.250000 0.382683 0.923880 0.000000
0.707107 -0.707107 5.000000 0.923880 -0.382683 0.000001
1.000000 -0.000000 5.000000 0.923880 -0.382683 0.000001
1.000000 -0.000000 5.250000 0.923880 -0.382683 0.000001
0.707107 -0.707107 5.250000 0.923880 -0.382683 0.000001
-0.707106 -0.707107 5.000000 -0.382684 -0.923880 -0.000000
0.000000 -1.000000 5.000000 -0.382684 -0.923880 -0.000000
0.000000 -1.000000 5.250000 -0.382684 -0.923880 -0.000000
-0.707107 -0.707107 5.250000 -0.382684 -0.923880 -0.000000
-0.707106 0.707107 5.000000 -0.923880 0.382683 -0.000001
-1.000000 0.000000 5.000000 -0.923880 0.382683 -0.000001
1.000000 -0.000000 5.000000 0.923880 0.382683 0.000001
0.707107 0.707107 5.000000 0.923880 0.382683 0.000001
-1.000000 0.000000 5.000000 -0.923880 -0.382683 -0.000001
-0.707106 -0.707107 5.000000 -0.923880 -0.382683 -0.000001
0.000000 1.000000 5.000000 -0.382684 0.923880 -0.000000
-0.707106 0.707107 5.000000 -0.382684 0.923880 -0.000000
-0.707107 0.707107 5.250000 -0.382684 0.923880 -0.000000
0.000000 1.000000 5.250000 -0.382684 0.923880 -0.000000
-0.707107 -0.707107 6.000000 -0.382684 -0.923880 0.000000
-0.000000 -1.000000 6.000000 -0.382684 -0.923880 0.000000
-0.000000 -1.000000 6.250000 -0.382684 -0.923880 0.000000
-0.707107 -0.707107 6.250000 -0.382684 -0.923880 0.000000
-0.707107 0.707107 6.000000 -0.923880 0.382683 0.000001
-1.000000 0.000000 6.000000 -0.923880 0.382683 0.000001
1.000000 -0.000000 6.000000 0.923880 0.382683 -0.000001
0.707107 0.707107 6.000000 0.923880 0.382683 -0.000001
-1.000000 0.000000 6.000000 -0.923880 -0.382683 0.000001
-0.707107 -0.707107 6.000000 -0.923880 -0.382683 0.000001
-0.000000 1.000000 6.000000 -0.382684 0.923880 0.000000
-0.707107 0.707107 6.000000 -0.382684 0.923880 0.000000
-0.707107 0.707107 6.250000 -0.382684 0.923880 0.000000
-0.000000 1.000000 6.250000 -0.382684 0.923880 0.000000
0.707107 0.707107 6.000000 0.382683 0.923880 -0.000000
-0.000000 1.000000 6.000000 0.382683 0.923880 -0.000000
0.707107 -0.707107 6.000000 0.923880 -0.382683 -0.000001
1.000000 -0.000000 6.000000 0.923880 -0.382683 -0.000001
1.000000 -0.000000 7.000000 0.923880 -0.382683 -0.000000
1.000000 -0.000000 7.262952 0.923880 -0.382683 -0.000000
0.707107 -0.707107 7.262952 0.923880 -0.382683 -0.000000
0.707107 -0.707107 7.000000 0.923880 -0.382683 -0.000000
-1.000000 0.000000 7.000000 -0.923880 0.382683 0.000000
-0.707106 0.707107 7.000000 -0.923880 0.382683 0.000000
0.707107 0.707107 7.000000 0.923880 0.382683 -0.000000
1.000000 -0.000000 7.000000 0.923880 0.382683 -0.000000
-0.707106 -0.707107 7.000000 -0.923880 -0.382683 0.000000
-1.000000 0.000000 7.000000 -0.923880 -0.382683 0.000000
0.000000 -1.000000 7.000000 -0.382684 -0.923880 0.000000
0.000000 -1.000000 7.262952 -0.382684 -0.923880 0.000000
-0.707106 -0.707107 7.262952 -0.382684 -0.923880 0.000000
-0.707106 -0.707107 7.000000 -0.382684 -0.923880 0.000000
-0.707106 0.707107 7.262952 -0.382683 0.923880 0.000000
0.000000 1.000000 7.262952 -0.382683 0.923880 0.000000
0.000000 1.000000 2.000000 0.000000 0.000000 -1.000000
0.707107 0.707107 2.000000 0.000000 0.000000 -1.000000
1.000000 -0.000000 2.000000 0.000000 0.000000 -1.000000
0.707107 -0.707107 2.000000 0.000000 0.000000 -1.000000
-0.000000 -1.000000 2.000000 0.000000 0.000000 -1.000000
-0.707107 -0.707107 2.000000 0.000000 0.000000 -1.000000
-1.000000 0.000000 2.000000 0.000000 0.000000 -1.000000
-0.707107 0.707107 2.000000 0.000000 0.000000 -1.000000
-1.000000 0.000000 1.000000 0.000000 0.000000 -1.000000
-0.707107 0.707107 1.000000 0.000000 0.000000 -1.000000
0.000000 1.000000 1.000000 0.000000 0.000000 -1.000000
0.707107 0.707107 1.000000 0.000000 0.000000 -1.000000
1.000000 -0.000000 1.000000 0.000000 0.000000 -1.000000
0.707107 -0.707107 1.000000 0.000000 0.000000 -1.000000
-0.000000 -1.000000 1.000000 0.000000 0.000000 -1.000000
-0.707107 -0.707107 1.000000 0.000000 0.000000 -1.000000
0.000000 1.000000 3.000000 0.000000 0.000000 -1.000000
0.707107 0.707107 3.000000 0.000000 0.000000 -1.000000
1.000000 -0.000000 3.000000 0.000000 0.000000 -1.000000
0.707107 -0.707107 3.000000 0.000000 0.000000 -1.000000
-0.000000 -1.000000 3.000000 0.000000 0.000000 -1.000000
-0.707107 -0.707107 3.000000 0.000000 0.000000 -1.000000
-1.000000 0.000000 3.000000 0.000000 0.000000 -1.000000
-0.707107 0.707107 3.000000 0.000000 0.000000 -1.000000
0.000000 1.000000 5.000000 0.000000 0.000000 -1.000000
0.707107 0.707107 5.000000 0.000000 0.000000 -1.000000
1.000000 -0.000000 5.000000 0.000000 0.000000 -1.000000
0.707107 -0.707107 5.000000 0.000000 0.000000 -1.000000
0.000000 -1.000000 5.000000 0.000000 0.000000 -1.000000
-0.707106 -0.707107 5.000000 0.000000 0.000000 -1.000000
-1.000000 0.000000 5.000000 0.000000 0.000000 -1.000000
-0.707106 0.707107 5.000000 0.000000 0.000000 -1.000000
-0.000000 1.000000 6.000000 0.000000 0.000000 -1.000000
0.707107 0.707107 6.000000 0.000000 0.000000 -1.000000
1.000000 -0.000000 6.000000 0.000000 0.000000 -1.000000
0.707107 -0.707107 6.000000 0.000000 0.000000 -1.000000
-0.000000 -1.000000 6.000000 0.000000 0.000000 -1.000000
-0.707107 -0.707107 6.000000 0.000000 0.000000 -1.000000
-1.000000 0.000000 6.000000 0.000000 0.000000 -1.000000
-0.707107 0.707107 6.000000 0.000000 0.000000 -1.000000
0.000000 1.000000 7.000000 0.000000 0.000000 -1.000000
0.707107 0.707107 7.000000 0.000000 0.000000 -1.000000
1.000000 -0.000000 7.000000 0.000000 0.000000 -1.000000
0.707107 -0.707107 7.000000 0.000000 0.000000 -1.000000
0.000000 -1.000000 7.000000 0.000000 0.000000 -1.000000
-0.707106 -0.707107 7.000000 0.000000 0.000000 -1.000000
-1.000000 0.000000 7.000000 0.000000 0.000000 -1.000000
-0.707106 0.707107 7.000000 0.000000 0.000000 -1.000000
0.000000 1.000000 4.000000 0.000000 0.000000 -1.000000
0.707107 0.707107 4.000000 0.000000 0.000000 -1.000000
1.000000 -0.000000 4.000000 0.000000 0.000000 -1.000000
0.707107 -0.707107 4.000000 0.000000 0.000000 -1.000000
-0.000000 -1.000000 4.000000 0.000000 0.000000 -1.000000
-0.707107 -0.707107 4.000000 0.000000 0.000000 -1.000000
-1.000000 0.000000 4.000000 0.000000 0.000000 -1.000000
-0.707107 0.707107 4.000000 0.000000 0.000000 -1.000000
4 0 1 2 3
4 4 5 6 7
4 8 9 10 11
4 12 13 14 15
4 16 17 18 19
4 20 21 22 23
4 24 25 26 27
4 28 29 30 31
4 32 33 34 35
4 36 37 38 39
4 40 41 42 43
4 44 45 46 47
4 48 49 50 51
4 52 53 54 55
4 56 57 58 59
4 60 61 62 63
4 64 65 66 67
4 68 69 70 71
4 72 73 74 75
4 76 77 78 79
4 80 81 82 83
4 84 85 86 87
4 88 89 90 91
4 92 93 94 95
4 96 97 98 99
4 100 101 102 103
4 104 105 106 107
4 108 109 110 111
4 112 113 114 115
4 116 117 118 119
4 120 121 122 123
4 124 125 126 127
4 128 129 130 131
4 132 133 134 135
4 136 137 138 139
4 140 141 142 143
4 144 145 146 147
4 148 149 150 151
4 152 153 154 155
4 156 157 158 159
4 160 161 162 163
4 164 165 166 167
4 168 169 170 171
4 172 173 174 175
4 176 177 178 179
4 180 181 182 183
4 184 185 186 187
4 188 189 190 191
4 192 193 194 195
4 196 197 198 199
4 200 201 202 203
4 204 205 206 207
4 208 209 210 211
4 212 213 214 215
3 216 217 218
3 218 219 220
3 220 221 222
3 222 223 216
3 216 218 220
3 220 222 216
4 224 225 226 227
4 228 229 230 231
4 232 233 234 235
3 236 237 238
4 239 240 241 242
4 243 244 245 246
4 247 248 249 250
4 251 252 253 254
4 255 256 257 258
4 259 260 261 262
3 263 264 265
3 266 267 268
3 269 270 271
3 272 273 274
3 275 276 277
4 278 279 280 281
4 35 260 259 32
4 36 28 31 37
4 251 20 23 252
4 243 282 283 244
4 239 12 15 240
4 228 284 285 229
4 255 4 7 256
4 247 286 287 248
4 288 289 290 291
4 292 293 294 295
4 296 297 61 60
4 6 5 57 56
4 30 29 53 52
4 14 13 49 48
4 22 21 45 44
4 298 299 25 24
4 59 58 101 100
4 51 50 97 96
4 47 46 93 92
4 67 66 89 88
4 300 301 302 303
4 27 26 81 80
4 304 305 306 307
4 55 54 41 40
4 99 98 133 132
4 95 94 129 128
4 308 309 310 311
4 312 313 121 120
4 83 82 117 116
4 314 315 316 317
4 43 42 109 108
4 103 102 73 72
4 123 122 318 319
4 320 321 322 323
4 324 325 326 327
4 328 329 153 152
4 330 331 149 148
4 135 134 145 144
4 332 333 141 140
4 334 335 336 337
4 338 339 340 341
4 342 343 193 192
4 344 345 189 188
4 147 146 185 184
4 346 347 181 180
4 348 349 350 351
4 352 353 173 172
4 354 355 137 136
4 174 278 281 175
4 356 357 358 359
4 360 224 227 361
4 362 212 215 363
4 187 186 209 208
4 364 204 207 365
4 366 367 368 369
4 178 370 371 179
3 372 373 374
3 374 375 376
3 376 377 378
3 378 379 372
3 372 374 376
3 376 378 372
3 380 381 382
3 382 383 384
3 384 385 386
3 386 387 380
3 380 382 384
3 384 386 380
3 388 389 390
3 390 391 392
3 392 393 394
3 394 395 388
3 388 390 392
3 392 394 388
3 396 397 398
3 398 399 400
3 400 401 402
3 402 403 396
3 396 398 400
3 400 402 396
3 404 405 406
3 406 407 408
3 408 409 410
3 410 411 404
3 404 406 408
3 408 410 404
3 412 413 414
3 414 415 416
3 416 417 418
3 418 419 412
3 412 414 416
3 416 418 412
3 420 421 422
3 422 423 424
3 424 425 426
3 426 427 420
3 420 422 424
3 424 426 420
